<svg width="66" height="66" viewBox="0 0 66 66" fill="none" xmlns="http://www.w3.org/2000/svg">
<g clip-path="url(#clip0_324_9)">
<path d="M60.6704 -2.74918C60.439 -2.76364 44.3464 -2.58188 44.3464 -2.58188C41.4774 -2.54677 39.1826 0.254011 39.2219 3.12501C39.257 5.96916 41.5786 8.69765 44.4167 8.69765C44.4373 8.69765 44.4601 8.69765 44.4848 8.69765L47.484 8.2102L42.0186 13.4606C37.5715 10.3604 32.3023 8.56339 26.7688 8.56339C19.6158 8.56339 12.8925 11.2939 7.83401 16.3523C-2.60727 26.7932 -2.60727 43.7549 7.83401 54.1958C12.8925 59.2521 19.6158 62.0239 26.7688 62.0239C33.9217 62.0239 40.6429 59.2273 45.7014 54.1731C54.7815 45.0933 56.2212 31.0687 49.5185 20.698L55.6346 14.8527V18.4797C55.6346 21.3528 57.9501 23.6785 60.8191 23.6785C63.686 23.6785 66.0056 21.3528 66.0056 18.4797V2.40003C65.9974 1.0141 65.7764 -2.43523 60.6704 -2.74918ZM38.3481 46.8159C35.2581 49.91 31.1436 51.6181 26.7646 51.6181C22.3857 51.6181 18.2711 49.91 15.179 46.8159C8.78622 40.4295 8.78622 30.0319 15.179 23.6413C18.2711 20.5472 22.3857 18.8391 26.7646 18.8391C31.1436 18.8391 35.2581 20.5472 38.3481 23.6413C44.741 30.0319 44.741 40.4315 38.3481 46.8159Z" fill="#2B3674"/>
</g>
<defs>
<clipPath id="clip0_324_9">
<rect width="66" height="66" fill="white"/>
</clipPath>
</defs>
</svg>
