<svg width="66" height="66" viewBox="0 0 66 66" fill="none" xmlns="http://www.w3.org/2000/svg">
<circle cx="33" cy="33" r="33" fill="#347C3E"/>
<path d="M22.8545 17.5645C22.5673 17.8517 22.4634 18.2123 22.5856 18.5056C22.7261 18.8417 22.94 18.9945 23.6611 19.2695C25.0606 19.8073 27.5661 21.225 27.5723 21.4878C27.5723 21.5367 27.45 21.7139 27.3034 21.885C26.3867 22.9728 25.91 24.3417 26.0078 25.6067C26.0689 26.4562 26.1056 26.6273 26.2461 26.725C26.3623 26.8045 27.3156 26.8167 33.5673 26.8167C40.3384 26.8167 40.76 26.8106 40.8456 26.7067C40.98 26.5478 41.0778 26.01 41.0778 25.3928C41.0778 24.14 40.7356 23.1623 39.9106 22.0745C39.6784 21.7628 39.4889 21.4878 39.4889 21.4573C39.4889 21.3962 40.375 20.7973 41.0778 20.3878C41.6217 20.0762 42.4223 19.6789 42.9723 19.4589C43.3817 19.2878 43.4367 19.2634 43.8584 19.0923C43.9928 19.0312 44.1639 18.9395 44.2311 18.8784C44.39 18.75 44.5611 18.4323 44.5611 18.2734C44.5611 18.0778 44.3961 17.7478 44.2067 17.54C44.0356 17.3567 43.9928 17.3445 43.6323 17.3445C43.3084 17.3445 43.1373 17.3873 42.6606 17.595C41.7439 17.9862 40.0817 18.7623 39.9167 18.8723C39.8678 18.9089 39.7639 18.9578 39.6906 18.9945C39.5561 19.0495 38.9023 19.4834 38.2973 19.9234C37.8328 20.2595 37.7534 20.2595 37.1606 19.9845C36.8795 19.8562 36.525 19.6973 36.3723 19.6362C36.2195 19.575 36.0117 19.4895 35.9017 19.4467C35.7978 19.3978 35.6817 19.3612 35.6389 19.3612C35.5961 19.3612 35.4373 19.3184 35.2784 19.2695C34.6856 19.0862 34.3128 19.0006 33.8973 18.9639C33.4817 18.9273 32.6934 19.0006 32.3084 19.1106C32.2106 19.1412 31.96 19.2145 31.7584 19.2695C31.1961 19.4284 30.5911 19.6667 29.8456 20.0089C29.6011 20.125 29.3628 20.2167 29.32 20.2167C29.2711 20.2167 29.0023 20.0578 28.7211 19.8684C27.5845 19.0923 27.3889 18.9762 26.6861 18.6339C25.7145 18.1634 25.5373 18.0839 24.6145 17.6867C23.9361 17.3934 23.765 17.3445 23.4473 17.3445C23.0989 17.3445 23.0561 17.3628 22.8545 17.5645Z" fill="white"/>
<path d="M47.2867 25.5761C46.9139 25.6372 46.4556 26.175 46.4556 26.5661C46.4556 26.6334 46.4311 26.7006 46.4006 26.725C46.37 26.7434 46.3272 26.8472 46.3028 26.9572C46.2784 27.0611 46.1806 27.3972 46.0828 27.7028C45.985 28.0022 45.8628 28.375 45.82 28.5278C45.3922 29.9272 45.3984 29.915 44.8911 30.08C44.6895 30.1411 44.2984 30.2695 44.0111 30.3611C43.7239 30.4589 43.4 30.5506 43.2961 30.575C43.1861 30.5995 43.0822 30.6422 43.0639 30.6728C43.0028 30.7706 42.8195 30.7339 42.7095 30.6056C42.6545 30.5384 42.6056 30.465 42.6056 30.4467C42.6056 30.4284 42.5261 30.2939 42.4345 30.1534C42.3428 30.0189 42.245 29.86 42.2206 29.8111C42.1961 29.7622 42.0739 29.5545 41.9456 29.3528C41.5545 28.7356 41.7867 28.7722 38.0406 28.7722H34.7895L34.7528 28.9678C34.7345 29.0778 34.7284 33.3495 34.7345 38.4584L34.7528 47.7472L34.9667 47.7656C35.3517 47.8022 36.5739 47.4478 37.4539 47.0384C37.6678 46.9406 37.8511 46.8611 37.8695 46.8611C37.9428 46.8611 38.8595 46.2867 39.2017 46.0239C40.3506 45.1561 41.4872 43.885 42.1411 42.7606C42.3978 42.3145 42.4772 42.2656 42.7645 42.3634C42.9906 42.4428 43.1922 42.5039 43.95 42.73C45.0806 43.0661 45.2761 43.1456 45.4167 43.3411C45.5084 43.4756 45.8995 44.5695 45.9056 44.71C45.9056 44.7589 45.9422 44.8811 45.985 44.985C46.1072 45.2722 46.2722 45.7978 46.2722 45.8895C46.2722 45.9384 46.3089 46.0422 46.3517 46.1278C46.4006 46.2134 46.4495 46.3661 46.4739 46.4639C46.6022 47.1239 47.0422 47.5945 47.5189 47.5945C47.7572 47.5945 48.1545 47.4295 48.3195 47.2645C48.5578 47.0322 48.6556 46.5984 48.5395 46.2989C48.515 46.2195 48.4417 45.9934 48.3806 45.7917C48.3256 45.59 48.24 45.315 48.1972 45.1806C48.1606 45.0461 48.075 44.7711 48.0139 44.5695C47.9589 44.3678 47.8734 44.0928 47.8306 43.9584C47.7939 43.8239 47.7084 43.5489 47.6472 43.3472C47.4028 42.51 47.3539 42.3572 47.2378 42.0945C47.1034 41.7706 46.8711 41.5995 46.3945 41.4528C46.2111 41.3917 45.9422 41.3061 45.7956 41.2634C45.655 41.2145 45.4839 41.1778 45.4167 41.1778C45.3556 41.1778 45.2884 41.1534 45.27 41.1228C45.2456 41.0922 45.1172 41.0495 44.9706 41.025C44.83 41.0006 44.6895 40.9578 44.6528 40.9334C44.6222 40.9089 44.4939 40.8661 44.3778 40.8478C44.2617 40.8234 44.1089 40.7806 44.0417 40.75C43.9745 40.7195 43.8034 40.6645 43.6689 40.6278C43.5284 40.5972 43.3817 40.5239 43.3389 40.475C43.2595 40.3834 43.2595 40.3956 43.5406 39.2528C43.73 38.4889 43.8278 37.9511 43.8767 37.3767L43.9195 36.9306L44.3167 36.9489C44.5367 36.955 44.8239 36.9978 44.9584 37.0467C45.0928 37.0956 45.3678 37.1811 45.5695 37.2361C45.9728 37.3522 46.1256 37.4072 46.8834 37.7006C47.4761 37.9267 48.1117 38.2017 48.3806 38.3545C48.4967 38.4156 48.7045 38.4584 48.9428 38.4584C49.2911 38.4584 49.34 38.44 49.5172 38.2689C49.8411 37.9389 49.8839 37.2667 49.5906 36.9795C49.4134 36.79 49.2178 36.6922 48.4111 36.35C47.9895 36.1789 47.5678 35.9956 47.4639 35.9528C47.3661 35.91 47.1584 35.8245 47.0056 35.7695C46.8528 35.7084 46.645 35.6228 46.535 35.58C46.4311 35.5311 46.315 35.4945 46.2784 35.4945C46.2417 35.4945 46.1256 35.4578 46.0156 35.4089C45.6061 35.2378 44.4572 34.9445 44.1822 34.9445C43.9622 34.9445 43.9011 34.8406 43.8278 34.3761C43.7972 34.15 43.7422 33.7895 43.7056 33.5756C43.675 33.3617 43.62 33.1111 43.5834 33.0256C43.4306 32.6222 43.5528 32.4572 44.0722 32.3472C44.1884 32.3228 44.3228 32.28 44.3778 32.2556C44.4267 32.2311 44.6345 32.1639 44.8361 32.1028C45.0378 32.0478 45.3128 31.9622 45.4472 31.9195C45.5817 31.8706 45.7834 31.8217 45.8872 31.7972C45.9972 31.7728 46.1011 31.73 46.1195 31.6995C46.1439 31.6689 46.2111 31.6445 46.2784 31.6445C46.48 31.6445 46.92 31.4122 47.0789 31.2289C47.2378 31.0395 47.2989 30.905 47.4639 30.3306C47.525 30.1289 47.6106 29.8539 47.6472 29.7195C47.69 29.585 47.7756 29.31 47.8306 29.1084C47.8917 28.9067 47.9772 28.6317 48.0139 28.4972C48.1545 28.045 48.2706 27.6417 48.3806 27.275C48.4417 27.0734 48.515 26.8472 48.5395 26.7678C48.8022 26.0834 48.13 25.4478 47.2867 25.5761Z" fill="white"/>
<path d="M18.8761 25.7839C18.7478 25.8939 18.6255 26.065 18.595 26.1873C18.5339 26.4011 18.5828 26.8961 18.6989 27.1834C18.7294 27.2689 18.8028 27.5011 18.8639 27.7028C18.9189 27.9045 19.0044 28.1795 19.0472 28.3139C19.0839 28.4484 19.1694 28.7234 19.2305 28.925C19.3405 29.31 19.6217 30.2023 19.8233 30.8073C19.9455 31.2045 20.1167 31.3939 20.465 31.5345C20.685 31.6261 20.8378 31.675 21.675 31.9256C21.8767 31.9806 22.2739 32.1089 22.5611 32.2067C22.8422 32.2984 23.1233 32.3778 23.1783 32.3778C23.2333 32.3778 23.3494 32.4328 23.4411 32.5061C23.6122 32.6406 23.6122 32.5978 23.4472 33.325C23.4044 33.5267 23.3311 33.8811 23.2944 34.1195C23.1844 34.7917 23.1783 34.81 23.0317 34.8589C22.9583 34.8834 22.7078 34.9384 22.4694 34.9873C21.6261 35.1523 21.5467 35.1706 21.3083 35.25C21.1739 35.2928 20.9539 35.3661 20.8194 35.415C20.685 35.47 20.4772 35.5434 20.3611 35.5861C19.7805 35.8 19.2367 36.02 18.9983 36.1423C18.9005 36.1911 18.7967 36.2278 18.7661 36.2278C18.7355 36.2278 18.5278 36.3134 18.3017 36.4173C17.1772 36.9184 17.0978 37.01 17.1161 37.7434C17.1222 37.945 17.165 38.0489 17.33 38.2323C17.5317 38.4461 17.5561 38.4584 17.9289 38.4523C18.2528 38.4523 18.3994 38.4095 18.8944 38.1711C19.6217 37.8228 20.6178 37.4378 21.2778 37.2484C22.3044 36.9428 23.0194 36.7839 23.0989 36.8328C23.1294 36.8511 23.1722 37.0895 23.1905 37.3584C23.2089 37.6273 23.2578 37.9817 23.2883 38.1528C23.325 38.3178 23.38 38.5928 23.4105 38.7639C23.4655 39.045 23.545 39.3934 23.7222 40.0778C23.8078 40.4139 23.7589 40.6278 23.6 40.6278C23.5328 40.6278 23.3739 40.6645 23.2517 40.7134C23.1233 40.7561 22.8544 40.8417 22.6528 40.9028C21.2105 41.3245 20.3917 41.6117 20.19 41.7645C20.0067 41.905 19.6889 42.4673 19.6889 42.6506C19.6889 42.7361 19.5178 43.2678 19.4017 43.5428C19.3589 43.6467 19.3222 43.7628 19.3222 43.8056C19.3222 43.8423 19.2428 44.1173 19.145 44.4045C19.0472 44.6978 18.925 45.1011 18.8639 45.3028C18.8028 45.5045 18.7355 45.7123 18.7111 45.7673C18.6805 45.8223 18.6133 46.0484 18.5583 46.2745C18.4728 46.6167 18.4667 46.7145 18.5339 46.8795C18.815 47.6006 19.7683 47.7595 20.2755 47.1728C20.4039 47.0261 20.52 46.7145 20.9844 45.2417C21.1555 44.71 21.2044 44.545 21.4305 43.775C21.5772 43.3045 21.8094 43.0784 22.3289 42.9317C23.1355 42.7056 23.3433 42.6445 23.8933 42.4673C24.205 42.3634 24.4983 42.2961 24.5411 42.3145C24.5839 42.3328 24.7 42.4734 24.7978 42.6323C25.0911 43.1089 25.58 43.8239 25.7205 43.9889C25.7878 44.0745 25.9955 44.3189 26.1789 44.5389C26.5944 45.0339 27.4378 45.7856 28.0122 46.1706C28.5805 46.5495 28.55 46.5311 29.2955 46.8978C29.9861 47.2461 30.2428 47.35 30.75 47.4906C30.9333 47.5456 31.2083 47.625 31.3611 47.6678C31.5078 47.7106 31.7828 47.7473 31.9722 47.7473H32.3083V38.2445V28.7417L29.0389 28.7295C26.5089 28.7173 25.7328 28.7295 25.6167 28.7906C25.525 28.8395 25.2622 29.2061 24.9261 29.75C24.6328 30.2389 24.3517 30.6484 24.2967 30.6545C24.2478 30.6667 24.1255 30.6484 24.04 30.6178C23.9483 30.5811 23.71 30.5139 23.5083 30.4589C22.8911 30.2878 22.4755 30.1656 22.3472 30.1106C22.28 30.0861 22.1578 30.0434 22.0722 30.0189C21.9011 29.9761 21.7055 29.8234 21.7055 29.7317C21.7055 29.7011 21.6689 29.5911 21.6261 29.4873C21.51 29.2184 21.1555 28.1184 21.1555 28.0328C21.1555 27.9961 21.1189 27.88 21.0761 27.7761C21.0272 27.6661 20.9478 27.4278 20.8928 27.2445C20.6055 26.2789 20.5139 26.0589 20.3 25.8267C20.0739 25.5945 20.0739 25.5945 19.585 25.5945C19.1267 25.5945 19.0839 25.6067 18.8761 25.7839Z" fill="white"/>
</svg>
