<svg width="66" height="66" viewBox="0 0 66 66" fill="none" xmlns="http://www.w3.org/2000/svg">
<circle cx="33" cy="33" r="33" fill="#598C15"/>
<path d="M44.0723 14.8672C43.7911 15.3928 41.8417 17.4889 40.815 18.3689C40.5461 18.595 39.9961 19.0289 39.5928 19.3283C39.1834 19.6217 38.8228 19.8906 38.7861 19.915C38.7556 19.9456 38.615 20.0372 38.4806 20.1167C38.3461 20.1961 38.2239 20.2756 38.2056 20.3C38.1384 20.3733 37.4173 20.7889 37.3561 20.7889C37.3195 20.7889 37.2889 20.8133 37.2889 20.8439C37.2889 20.8744 37.2278 20.9233 37.1545 20.9478C37.0811 20.9661 36.855 21.0883 36.6534 21.2106C36.2073 21.4856 34.3006 22.4267 33.3778 22.8239C33.2617 22.8789 33.0356 22.9767 32.8767 23.0439C32.7178 23.1172 32.5773 23.1722 32.5589 23.1722C32.5406 23.1722 32.3023 23.2822 32.0334 23.4106C31.7584 23.545 31.4773 23.6733 31.4039 23.6978C31.2817 23.7344 31.0067 23.8567 29.7906 24.4311C29.5523 24.5472 29.3384 24.6389 29.32 24.6389C29.3017 24.6389 29.1061 24.7489 28.8861 24.8833C28.6661 25.0178 28.4645 25.1278 28.44 25.1278C28.4156 25.1278 28.2017 25.2561 27.9695 25.4089C27.7311 25.5617 27.4317 25.7511 27.2972 25.8367C27.1628 25.9161 26.9795 26.0444 26.8878 26.1178C26.8022 26.1972 26.5456 26.3928 26.3256 26.5639C25.7878 26.9794 24.2417 28.5439 23.8567 29.0694C23.6856 29.3017 23.5206 29.5217 23.49 29.5583C23.4106 29.6561 22.6528 30.9456 22.5795 31.1167C22.2067 31.9233 21.8278 32.9989 21.6995 33.61C21.4306 34.8994 21.2961 36.5067 21.3939 37.3011C21.4367 37.6128 21.4917 38.1444 21.5284 38.4744C21.5589 38.8044 21.6017 39.1039 21.62 39.1283C21.6384 39.1589 21.6873 39.3911 21.7361 39.6539C21.8889 40.4483 21.9378 40.6867 22.0478 41.0289C22.1761 41.4444 22.3167 41.8661 22.3778 42.025C22.4023 42.0922 22.4756 42.2817 22.5306 42.4528C22.6406 42.7644 22.6834 42.8744 22.9461 43.4611C23.0256 43.6444 23.1539 43.9317 23.2273 44.1028C23.5695 44.8789 24.2723 46.1011 25.0117 47.1889C26.1361 48.845 27.5539 50.2567 29.2528 51.43C30.1267 52.035 30.805 52.3833 30.5239 52.09C30.1573 51.705 29.7723 51.2711 29.5584 51.0083C29.4239 50.8372 29.2834 50.6661 29.2345 50.6172C29.1917 50.5744 28.99 50.3117 28.7823 50.0367C28.5745 49.7678 28.385 49.5294 28.3667 49.5111C28.3178 49.4744 27.9878 49.01 27.5356 48.3378C26.68 47.0728 25.4945 44.8728 25.4945 44.5489C25.4945 44.5 25.47 44.4389 25.4395 44.4083C25.3539 44.3106 25.0606 43.4061 24.9689 42.9417C24.8039 42.1167 24.645 40.9189 24.645 40.5278C24.645 40.1306 24.8161 38.7739 24.9445 38.1444C25.0056 37.845 25.2989 36.91 25.4334 36.5861C25.58 36.2194 25.9772 35.4372 26.1789 35.1011C26.3072 34.8933 26.4111 34.6978 26.4111 34.6672C26.4111 34.5817 27.6456 32.9622 27.9817 32.6017C28.7028 31.8317 28.8556 31.6789 29.2284 31.3306C29.4484 31.1289 29.7478 30.8539 29.9006 30.7133C30.5178 30.1511 32.9561 28.4217 34.05 27.7739C34.7711 27.3461 36.5556 26.4172 37.4417 26.0139C37.9734 25.7694 38.0284 25.745 38.4806 25.5556C38.6517 25.4822 38.8473 25.3967 38.9206 25.36C39.0673 25.2867 39.275 25.3356 39.2139 25.4333C39.1895 25.47 38.8961 25.7083 38.5539 25.965C38.0284 26.3622 37.6128 26.6922 36.8306 27.34C34.7711 29.045 32.4061 31.3122 31.4528 32.4917C31.3184 32.6628 31.1534 32.8522 31.08 32.9194C30.9334 33.0661 30.09 34.1722 29.705 34.7222C28.5745 36.3539 27.6761 38.2361 27.3889 39.5867C27.2178 40.3628 27.1995 40.6256 27.2178 41.5422C27.2545 43.0211 27.2973 43.0517 29.0695 42.8806C30.1206 42.7828 31.4284 42.5567 31.6973 42.4283C31.7645 42.3917 32.015 42.3122 32.2473 42.245C33.0111 42.0311 33.7261 41.75 34.6917 41.2856C35.0584 41.1083 35.4861 40.87 35.59 40.7906C35.6328 40.7539 35.865 40.6194 36.0973 40.4972C36.3356 40.3689 36.5373 40.2467 36.5556 40.2222C36.5739 40.2039 36.6961 40.1183 36.8306 40.0389C36.965 39.9594 37.1056 39.8678 37.1361 39.8433C37.1728 39.8128 37.4478 39.6111 37.7473 39.385C39.3667 38.1872 40.9678 36.6411 41.7928 35.4678C41.9517 35.2417 42.0984 35.0461 42.1167 35.0278C42.4406 34.7222 44.0723 31.7033 44.0723 31.4039C44.0723 31.3611 44.0967 31.3 44.1211 31.2633C44.1517 31.2328 44.2739 30.8906 44.4023 30.5056C44.5245 30.1206 44.6528 29.7172 44.6834 29.6133C44.7139 29.5156 44.7689 29.3078 44.8056 29.155C44.9156 28.6356 45.0378 28.1528 45.0745 28.0611C45.1906 27.7617 45.4045 25.8978 45.49 24.4556C45.545 23.4839 45.545 22.995 45.4839 22.2556C45.4411 21.7361 45.3861 20.9417 45.3556 20.4956C45.325 20.0433 45.2761 19.5911 45.2395 19.4872C45.2089 19.3772 45.16 19.0839 45.1417 18.8333C45.1173 18.5828 45.0745 18.2772 45.05 18.1611C45.0195 18.045 44.9584 17.7517 44.9034 17.5194C44.6773 16.45 44.5489 15.8572 44.5 15.7167C44.4695 15.6311 44.4023 15.3989 44.3411 15.1972C44.2128 14.745 44.1639 14.69 44.0723 14.8672Z" fill="white"/>
</svg>
