<svg width="66" height="66" viewBox="0 0 66 66" fill="none" xmlns="http://www.w3.org/2000/svg">
<circle cx="33" cy="33" r="33" fill="#7C169B"/>
<path d="M31.8499 17.9617C30.6888 18.035 29.4788 18.2122 28.3666 18.4689C28.1466 18.5178 27.8349 18.5911 27.6638 18.6278C27.4988 18.6645 27.3155 18.7195 27.2666 18.7439C27.2116 18.7745 27.0527 18.8172 26.9121 18.8417C26.7716 18.8661 26.6432 18.9028 26.6249 18.9333C26.6066 18.9639 26.4843 19.0006 26.3499 19.025C26.2155 19.0495 26.0932 19.0922 26.0688 19.1228C26.0505 19.1533 25.9893 19.1778 25.9343 19.1778C25.8793 19.1778 25.751 19.2206 25.6532 19.2695C25.5616 19.3183 25.4516 19.3611 25.421 19.3611C25.3905 19.3611 25.2377 19.4161 25.0788 19.4895C24.9199 19.5567 24.7366 19.6361 24.6693 19.6606C23.4716 20.1617 21.0577 21.5489 20.3305 22.16C20.2632 22.215 20.1288 22.3128 20.031 22.38C19.7316 22.5756 18.5216 23.6389 17.9166 24.25C16.9693 25.1911 15.9855 26.3889 15.3193 27.3972C15.1849 27.5989 15.0566 27.7761 15.0382 27.7945C14.8732 27.9472 13.4493 30.6178 13.2232 31.2167C13.1805 31.3328 13.1071 31.5161 13.0582 31.62C12.9299 31.9195 12.826 32.5367 12.8627 32.7995C12.8932 33.0561 13.981 35.3539 14.5982 36.4722C14.7021 36.6556 14.8366 36.9 14.8977 37.0161C14.9649 37.1322 15.0321 37.2606 15.0627 37.2911C15.0871 37.3278 15.2827 37.6211 15.4905 37.945C15.7043 38.2689 15.9488 38.6111 16.0405 38.7089C16.1321 38.8067 16.2055 38.9045 16.2055 38.9228C16.2055 38.9411 16.2605 39.0267 16.3338 39.1061C17.2077 40.1206 17.5927 40.5422 18.1305 41.0861C18.8393 41.7889 19.811 42.6383 20.5138 43.1517C20.8193 43.3778 21.0943 43.5795 21.1249 43.61C21.1616 43.6345 21.296 43.7261 21.4305 43.8056C21.5649 43.885 21.6871 43.9706 21.7055 43.9889C21.7299 44.0195 22.616 44.5511 22.9521 44.7345C23.2027 44.8689 24.1255 45.3272 24.3332 45.4128C24.5227 45.4983 24.9321 45.6756 25.2805 45.8222C25.3477 45.8467 25.5799 45.9322 25.7999 46.0056C26.0199 46.0789 26.2521 46.1645 26.3193 46.1889C26.4293 46.2378 26.6493 46.2989 27.3582 46.5006C27.9816 46.6717 29.0327 46.8733 29.8332 46.9833C30.0838 47.0139 30.4871 47.0689 30.7193 47.1056C31.4466 47.2033 33.3593 47.24 34.386 47.1728C36.5066 47.0322 38.2116 46.7572 39.9166 46.2867C40.6071 46.0911 40.8027 46.0361 40.8638 45.9995C40.9005 45.975 41.0166 45.9383 41.1266 45.9139C41.2366 45.8895 41.4016 45.8345 41.4932 45.7856C41.5849 45.7367 41.7071 45.7 41.7621 45.7C41.8171 45.7 41.8782 45.6756 41.9027 45.645C41.921 45.6145 42.0249 45.5656 42.1288 45.5411C42.2388 45.5228 42.3671 45.48 42.4221 45.4495C42.471 45.4189 42.6543 45.3395 42.8193 45.2661C43.9682 44.7711 45.9788 43.6283 46.4799 43.1822C46.5471 43.1211 46.7121 42.9989 46.8466 42.9072C46.9871 42.8095 47.1277 42.7056 47.1643 42.675C47.201 42.6383 47.3782 42.4917 47.5555 42.3389C48.7838 41.3122 49.8777 40.1572 50.8127 38.8861C51.0388 38.5806 51.2405 38.3056 51.271 38.275C51.2955 38.2383 51.3871 38.1039 51.4666 37.9695C51.546 37.835 51.6316 37.7128 51.6499 37.6945C51.8638 37.5233 53.7277 33.9789 53.7277 33.7467C53.7277 33.7283 53.7888 33.5878 53.8621 33.4289C54.0577 33.0195 54.0577 32.115 53.856 31.675C53.7827 31.5039 53.6971 31.3145 53.6666 31.2472C53.4893 30.8256 52.7438 29.3406 52.5238 28.98C52.3771 28.7417 52.261 28.5156 52.261 28.4789C52.261 28.4422 52.2366 28.4056 52.2121 28.3933C52.1816 28.3811 52.041 28.1795 51.9005 27.9472C51.6255 27.4828 51.0143 26.5967 50.8799 26.4622C50.831 26.4195 50.7943 26.3645 50.7943 26.34C50.7943 26.3156 50.7149 26.2117 50.6232 26.1078C50.5316 26.0039 50.336 25.7717 50.1832 25.5883C50.0305 25.4111 49.8166 25.1545 49.7005 25.0139C49.3643 24.6289 48.2399 23.5167 47.7999 23.15C47.586 22.9667 47.366 22.7772 47.311 22.7283C47.2621 22.6795 46.9443 22.435 46.6082 22.1906C46.2721 21.9461 45.9727 21.72 45.936 21.6956C45.9055 21.6711 45.7649 21.5795 45.6305 21.5C45.496 21.4206 45.3738 21.335 45.3555 21.3167C45.2332 21.17 43.3755 20.1678 42.636 19.85C42.471 19.7767 42.2755 19.6972 42.2082 19.6667C41.6949 19.4345 41.5055 19.3611 41.4443 19.3611C41.4138 19.3611 41.3343 19.3367 41.2732 19.3C41.2182 19.2695 40.9249 19.1656 40.6193 19.0617C37.8755 18.1511 34.8382 17.7722 31.8499 17.9617ZM35.2416 20.9745C36.2682 21.1089 36.9893 21.2739 37.301 21.445C37.3621 21.4756 37.4477 21.5 37.4905 21.5C37.6249 21.5 38.676 22.05 39.1832 22.38C39.7577 22.7589 40.8393 23.8406 41.2121 24.4028C41.5666 24.9406 41.8782 25.5395 42.0249 25.9306C42.086 26.0956 42.1593 26.2606 42.1838 26.2972C42.2021 26.3278 42.2449 26.4561 42.2693 26.5722C42.2938 26.6883 42.3366 26.8106 42.361 26.8472C42.4221 26.9267 42.5382 27.5317 42.6055 28.1306C42.636 28.3995 42.691 28.7172 42.7277 28.8333C43.0149 29.805 43.0638 32.3045 42.8255 33.7222C42.6971 34.4678 42.4405 35.4883 42.3549 35.58C42.3243 35.6167 42.2999 35.6839 42.2999 35.7328C42.2938 35.7878 42.2449 35.9406 42.1777 36.075C42.1105 36.2095 42.0616 36.3439 42.0555 36.3683C42.0493 36.5456 41.0655 38.2811 40.8943 38.4278C40.876 38.4461 40.7293 38.6233 40.5766 38.825C40.2527 39.2467 39.3971 40.1267 39.0671 40.3711C38.9449 40.4628 38.7921 40.585 38.7249 40.6461C38.6577 40.7072 38.4316 40.8722 38.2238 41.0067C37.8693 41.2389 37.7532 41.3611 37.8999 41.3611C38.0282 41.3611 39.6477 40.4689 39.831 40.2917C39.8677 40.2611 39.9655 40.1878 40.0388 40.1389C40.6132 39.7539 41.0043 39.4239 41.6888 38.7333C42.361 38.0611 42.6116 37.7861 42.9293 37.3583C43.0516 37.1872 43.1738 37.0222 43.2043 36.9917C43.2288 36.955 43.3205 36.8206 43.3999 36.6861C43.4793 36.5517 43.5649 36.4295 43.5893 36.4111C43.6688 36.35 44.286 35.1706 44.4999 34.6695C44.5671 34.4983 44.6527 34.315 44.6832 34.26C44.7199 34.1989 44.7443 34.1195 44.7443 34.0828C44.7443 34.0461 44.781 33.93 44.8299 33.8261C44.9277 33.6122 45.0071 33.3495 45.1538 32.775C45.6732 30.6972 45.6671 28.3506 45.1416 26.0528C45.0377 25.5883 44.946 25.1728 44.9032 24.9039C44.8482 24.6167 45.0621 24.7022 45.6732 25.2095C46.8405 26.1811 47.8366 27.2322 48.6799 28.3811C48.8999 28.6806 49.1016 28.9495 49.1321 28.9861C49.291 29.1878 49.8593 30.135 50.1405 30.6667C50.2505 30.8867 50.3788 31.1189 50.4155 31.1861C50.5499 31.4306 50.9043 32.2311 50.9349 32.3778C50.9838 32.5672 50.886 33.0011 50.7271 33.3556C50.4155 34.0339 50.2627 34.3272 50.0488 34.6878C49.9205 34.8956 49.8166 35.0911 49.8166 35.1156C49.8166 35.14 49.7738 35.2195 49.7249 35.2806C49.676 35.3478 49.456 35.6717 49.2421 36.0017C48.8999 36.515 48.521 37.0467 48.411 37.1445C48.3927 37.1628 48.2277 37.3645 48.0382 37.6028C47.5799 38.1711 46.3638 39.3872 45.8199 39.8211C45.5816 40.0106 45.3493 40.2061 45.3005 40.2489C44.946 40.585 43.4305 41.5872 42.5932 42.0395C42.0249 42.345 41.0227 42.8156 40.6499 42.95C40.5338 42.9928 40.3566 43.0661 40.2527 43.1089C40.1549 43.1517 39.8799 43.2433 39.6416 43.3167C39.4093 43.39 39.1588 43.4756 39.0916 43.5061C39.0243 43.5367 38.8471 43.5917 38.6943 43.6222C38.5416 43.6589 38.2543 43.7322 38.0527 43.7811C37.5577 43.9095 36.8671 44.0378 36.311 44.1111C36.0605 44.1478 35.6327 44.2028 35.3638 44.2395C35.0582 44.2822 34.3249 44.2945 33.4388 44.2761C31.2082 44.2272 30.1143 44.0195 28.7943 43.3961C27.7555 42.9011 26.5821 41.9539 25.9466 41.0861C25.7999 40.8845 25.6532 40.6889 25.6166 40.6461C25.5432 40.5545 25.0055 39.5828 25.0055 39.5339C24.9993 39.5156 24.9505 39.3872 24.8832 39.2528C24.816 39.1183 24.7671 38.9717 24.761 38.9289C24.761 38.8861 24.7366 38.8067 24.706 38.7456C24.5288 38.4217 24.3638 37.6639 24.2721 36.7778C24.2355 36.46 24.1805 36.1117 24.1438 36.0139C24.046 35.7511 24.0032 33.0195 24.0827 32.3472C24.1866 31.4795 24.3577 30.6361 24.5532 30.0556C24.7549 29.4445 25.036 28.7417 25.0788 28.7233C25.1032 28.7111 25.1277 28.6745 25.1277 28.6378C25.1277 28.5461 25.3905 28.0145 25.4516 27.99C25.476 27.9778 25.4943 27.935 25.4943 27.8983C25.4943 27.8128 25.9771 27.0856 26.3743 26.5722C26.7777 26.0467 27.4988 25.3256 28.0305 24.9161C28.2688 24.7389 28.4705 24.5739 28.4888 24.5556C28.6049 24.4272 29.5888 23.8345 30.0838 23.5961C30.6705 23.3089 30.7988 23.2111 30.5849 23.2111C30.4627 23.2111 29.6682 23.48 29.6071 23.5411C29.5827 23.5595 29.5277 23.5778 29.4849 23.5778C29.2893 23.5778 27.7371 24.3478 27.3582 24.6289C27.3277 24.6533 27.0099 24.8856 26.6555 25.1483C25.8427 25.7533 24.8038 26.7922 24.1927 27.6111C23.936 27.9656 23.6977 28.2772 23.6732 28.3139C23.6488 28.3445 23.5571 28.485 23.4777 28.6195C23.3982 28.7539 23.3005 28.8945 23.2638 28.9311C23.2332 28.9678 23.1477 29.1022 23.0805 29.2367C23.0132 29.365 22.946 29.4872 22.9277 29.5056C22.9093 29.5239 22.7688 29.7989 22.6099 30.1167C21.9927 31.3572 21.6138 32.5856 21.3999 34.0278C21.3266 34.535 21.3266 36.6739 21.3999 37.2361C21.4793 37.835 21.6199 38.5745 21.736 39.0083C21.9743 39.8945 21.9927 40.0167 21.956 40.2122C21.9316 40.3406 21.8766 40.4139 21.8155 40.4139C21.6932 40.4139 20.8805 39.6867 19.9332 38.7395C19.1755 37.9817 19.1449 37.945 18.6621 37.2972C18.4849 37.0589 18.3199 36.8389 18.2955 36.8083C18.271 36.7717 18.1793 36.6372 18.0999 36.5028C18.0205 36.3683 17.9288 36.2278 17.8982 36.1972C17.8677 36.1606 17.7271 35.9406 17.5805 35.7083C17.4338 35.47 17.2077 35.1156 17.0855 34.9139C16.9571 34.7122 16.7555 34.4067 16.6332 34.2417C16.071 33.4717 15.8999 32.7567 16.1138 32.0417C16.2299 31.6628 16.2543 31.5956 16.5416 31.0333C16.6699 30.7828 16.8227 30.4833 16.8716 30.3733C16.9205 30.2695 16.9877 30.1778 17.0121 30.1778C17.0366 30.1778 17.061 30.1472 17.061 30.1045C17.061 29.9517 18.3382 28.1367 18.8332 27.5867C18.9493 27.4522 19.206 27.165 19.4077 26.945C19.6032 26.7189 19.8477 26.4622 19.9577 26.3645C20.0616 26.2667 20.3121 26.0345 20.5138 25.845C20.7155 25.6556 21.0882 25.3378 21.3388 25.1361C21.5893 24.9345 21.8277 24.7389 21.8643 24.7083C21.901 24.6717 21.9988 24.6045 22.0721 24.5556C22.1455 24.5067 22.3593 24.3539 22.5488 24.2133C23.3432 23.645 25.0238 22.7161 25.9527 22.3311C26.0871 22.2761 26.246 22.2028 26.301 22.1722C26.3621 22.1356 26.4416 22.1111 26.4782 22.1111C26.5149 22.1111 26.631 22.0745 26.7349 22.0256C26.8449 21.9767 27.126 21.8789 27.3582 21.8056C27.5966 21.7322 27.841 21.6467 27.9082 21.6222C28.116 21.5367 28.9838 21.3228 29.6499 21.1945C29.8332 21.1578 30.1082 21.1028 30.261 21.0722C30.4138 21.0356 30.866 20.9806 31.2632 20.95C31.6666 20.9133 32.0088 20.8706 32.0271 20.8522C32.0943 20.785 34.5571 20.8828 35.2416 20.9745Z" fill="white"/>
<path d="M32.95 24.745C31.8805 24.9283 31.2083 25.1789 30.2611 25.735C29.2588 26.3278 28.4827 27.0244 27.7983 27.9472C27.6761 28.1122 27.5538 28.2772 27.5233 28.3139C27.4438 28.4178 27.12 28.9739 27.01 29.2C26.5822 30.08 26.3438 30.8378 26.1666 31.8583C26.0994 32.2617 26.0994 33.985 26.1666 34.3333C26.1972 34.4861 26.2522 34.7733 26.295 34.975C26.3316 35.1767 26.3866 35.3661 26.4111 35.4028C26.4355 35.4333 26.4783 35.5617 26.5027 35.6778C26.5272 35.7939 26.57 35.9283 26.6005 35.9833C26.625 36.0322 26.7594 36.3194 26.9 36.6128C27.3583 37.5722 28.0916 38.4767 28.9533 39.1367C29.3688 39.4544 30.5055 40.0778 30.6705 40.0778C30.7133 40.0778 30.7988 40.1022 30.86 40.1328C31.2877 40.365 32.9011 40.585 33.555 40.4994C34.6672 40.3528 35.3333 40.2183 35.4311 40.1206C35.4555 40.0961 35.5166 40.0778 35.5594 40.0778C35.755 40.0778 36.7755 39.5706 37.3805 39.1672C37.7594 38.9167 38.9572 37.7983 39.2811 37.3889C39.55 37.0467 39.9716 36.35 40.1916 35.8917C40.3138 35.6228 40.4605 35.3294 40.5033 35.2378C40.5522 35.1522 40.5888 35.0483 40.5888 35.0117C40.5888 34.8833 40.4788 34.9444 40.4116 35.1094C40.2711 35.4578 39.8738 36.0628 39.3666 36.6739C39.2933 36.7717 38.4988 37.4683 38.2972 37.6211C38.1322 37.7494 37.1666 38.2994 36.9527 38.3911C36.8183 38.4461 36.6655 38.5194 36.6166 38.5439C36.5616 38.5744 36.4272 38.6172 36.3111 38.6417C36.195 38.6661 36.0727 38.7089 36.0361 38.7333C35.7916 38.9228 33.9705 39.0144 33.2861 38.8678C32.8461 38.77 32.07 38.5133 31.8194 38.3789C30.9272 37.8961 30.7622 37.7739 30.0961 37.1017C29.6194 36.6189 29.1366 35.9161 28.8922 35.3417C28.8372 35.2072 28.7638 35.0544 28.7394 35.0056C28.7088 34.9506 28.6661 34.8161 28.6416 34.7C28.6172 34.5839 28.5744 34.4556 28.55 34.425C28.2688 34.0644 28.275 31.1067 28.5561 30.5933C28.5866 30.5322 28.6111 30.4344 28.6111 30.3794C28.6111 30.3183 28.6538 30.19 28.7027 30.0922C28.7516 30.0006 28.7944 29.8906 28.7944 29.8478C28.7944 29.7683 29.3627 28.6317 29.4605 28.5156C29.4972 28.4728 29.6622 28.2589 29.8272 28.0389C30.6766 26.9022 32.1616 25.8633 33.4694 25.4844C34.5572 25.1667 36.1522 25.1789 37.0016 25.5028C37.5455 25.7167 37.5455 25.5639 36.9955 25.3133C36.3783 25.02 35.8772 24.8672 35.1194 24.7389C34.7405 24.6717 33.3227 24.6778 32.95 24.745Z" fill="white"/>
<path d="M37.4722 25.6556C37.4722 25.6861 37.5333 25.7167 37.6127 25.7167C37.7227 25.7167 37.7288 25.7045 37.6555 25.6556C37.5394 25.5761 37.4722 25.5761 37.4722 25.6556Z" fill="white"/>
<path d="M33.8972 27.1955C32.07 27.55 30.7378 28.6928 29.9311 30.6055C29.6255 31.3328 29.5155 32.775 29.7111 33.4472C29.7417 33.545 29.8089 33.7833 29.8639 33.9667C29.9739 34.3333 30.2061 34.8406 30.2794 34.8711C30.3039 34.8833 30.3222 34.92 30.3222 34.9506C30.3222 35.1767 31.3122 36.185 31.8194 36.4722C32.6933 36.9733 33.995 37.2055 34.8261 37.0161C35.37 36.8939 35.9444 36.7044 35.9444 36.6494C35.9444 36.5761 35.8467 36.5822 35.4555 36.6861C34.0317 37.0711 32.1983 36.185 31.4344 34.7489C31.1778 34.2539 31.0678 33.9239 30.97 33.3067C30.8905 32.8178 30.8905 32.665 30.97 32.1455C31.245 30.2755 32.51 28.7783 34.2639 28.2405C34.7894 28.0817 35.8405 28.0939 36.3417 28.265C36.7389 28.3994 37.0567 28.5339 37.1055 28.5889C37.1239 28.6072 37.2033 28.65 37.2889 28.6867C37.57 28.815 38.23 29.4872 38.45 29.8661C38.6639 30.2328 38.7555 30.3244 38.7555 30.1472C38.7555 30.0494 38.505 29.4933 38.4378 29.4444C38.4133 29.4261 38.3705 29.3528 38.3461 29.2794C38.285 29.1144 37.8878 28.6255 37.5394 28.2955C36.6289 27.4217 35.1133 26.9633 33.8972 27.1955Z" fill="white"/>
<path d="M34.5082 29.2367C33.341 29.5483 32.5465 30.3122 32.1249 31.5222C32.0088 31.8583 31.9415 32.7445 31.9965 33.1417C32.0577 33.5389 32.1554 33.3861 32.1554 32.885C32.1554 32.1456 32.4732 31.3756 32.9927 30.8378C33.3288 30.4956 33.9949 30.1533 34.5388 30.0556C34.8871 29.9883 34.9971 29.9945 35.3638 30.0861C35.9199 30.2206 36.3049 30.4345 36.6288 30.7828C36.9832 31.1556 37.0627 31.2961 37.2277 31.7789C37.3438 32.1272 37.3621 32.28 37.3377 32.8178C37.3132 33.3556 37.2827 33.5022 37.1299 33.8139C36.9527 34.1867 36.1521 35.0667 35.9199 35.1522C35.8588 35.1706 35.8221 35.2072 35.8465 35.2317C35.9199 35.305 36.5432 34.9383 36.861 34.6206C37.5638 33.9361 37.8877 33.2089 37.9427 32.2311C38.0527 30.2878 36.2927 28.7539 34.5082 29.2367Z" fill="white"/>
<path d="M34.6306 31.3328C34.5389 31.3694 34.5633 31.3878 34.7772 31.4244C35.1011 31.4733 35.3028 31.6078 35.5228 31.9133C35.6817 32.1272 35.7 32.2005 35.7 32.6039C35.7 33.0989 35.5594 33.435 35.2478 33.7039C34.7406 34.1439 33.9278 34.1561 33.5794 33.7222C33.5183 33.6489 33.5061 33.6428 33.5 33.7161C33.5 33.875 33.9278 34.1928 34.2578 34.2722C34.875 34.4189 35.5656 34.0644 35.8833 33.4411C36.0972 33.0194 36.0972 32.3778 35.8894 31.9928C35.645 31.5405 34.9728 31.1861 34.6306 31.3328Z" fill="white"/>
<path d="M37.5942 41.4222C37.5209 41.4711 37.527 41.4833 37.6431 41.4833C37.7165 41.4833 37.7776 41.4528 37.7776 41.4222C37.7776 41.3428 37.7104 41.3428 37.5942 41.4222Z" fill="white"/>
</svg>
