<svg width="66" height="66" viewBox="0 0 66 66" fill="none" xmlns="http://www.w3.org/2000/svg">
<circle cx="33" cy="33" r="33" fill="#FFAB08"/>
<path d="M33.3962 13.8122C33.3595 13.855 33.3045 14.0567 33.2679 14.2583C33.2312 14.46 33.164 14.8144 33.109 15.0528C32.8829 16.1039 32.8279 16.3667 32.7423 16.7944C32.6873 17.045 32.6018 17.4422 32.5468 17.6806C32.4979 17.9128 32.4306 18.2794 32.4001 18.4872C32.3695 18.7011 32.3206 18.9211 32.2901 18.9761C32.2595 19.0372 32.2168 19.1778 32.1984 19.2878C32.174 19.3978 32.0945 19.5567 32.0151 19.6422C31.8806 19.7828 31.8012 19.8072 31.2268 19.85C30.5545 19.905 30.3834 19.96 29.2834 20.4733C28.9962 20.6078 28.5868 20.7972 28.3668 20.9011C27.6762 21.2189 26.8145 21.6467 26.5945 21.7811C26.4784 21.8483 26.234 21.9583 26.0629 22.0194L25.739 22.1356L25.3418 21.9278C25.1218 21.8178 24.9445 21.7017 24.9445 21.6711C24.9445 21.6467 24.9201 21.6222 24.8895 21.6222C24.8406 21.6222 24.529 21.4328 24.089 21.1333C24.0401 21.1028 23.6673 20.8583 23.264 20.5894C22.8606 20.3267 22.1212 19.8378 21.614 19.5078C21.1129 19.1717 20.6729 18.8906 20.6484 18.8783C20.5995 18.86 20.1412 18.5667 19.8723 18.3833C19.1818 17.9189 18.8579 17.7233 18.8151 17.7539C18.7906 17.7722 18.8029 17.8272 18.8518 17.8822C18.9006 17.9433 19.1695 18.3711 19.4445 18.8417C19.7256 19.3122 19.9945 19.7339 20.0373 19.7767C20.0801 19.8194 20.1168 19.8928 20.1168 19.9417C20.1168 19.9844 20.1412 20.0333 20.1656 20.0456C20.1962 20.0517 20.3612 20.2961 20.5323 20.5833C20.7095 20.8706 20.9662 21.2678 21.0945 21.4694C21.229 21.6711 21.3573 21.8789 21.3818 21.9278C21.4062 21.9767 21.449 22.0439 21.4734 22.0806C21.504 22.1111 21.8584 22.6489 22.2679 23.2722C22.934 24.2867 23.0134 24.4333 23.0379 24.7206C23.0562 24.965 23.0318 25.0994 22.9279 25.3011C22.8545 25.4478 22.7751 25.5761 22.7506 25.5944C22.6834 25.6433 22.1823 26.505 21.9684 26.9389C21.7423 27.4033 21.4673 28.1 21.3879 28.4056C21.3573 28.5217 21.3084 28.6744 21.2779 28.7417C21.2106 28.8944 21.1129 29.3283 21.0029 29.9639C20.8012 31.1006 20.7401 31.18 20.0068 31.3817C19.8173 31.4306 19.5056 31.4978 19.3223 31.5283C19.139 31.5589 18.7968 31.6261 18.5584 31.675C18.3262 31.73 17.9229 31.8155 17.6723 31.8644C17.4218 31.9194 17.0368 31.9989 16.8168 32.0478C16.3095 32.1517 15.6129 32.2983 15.1056 32.4083C14.8856 32.4511 14.6534 32.5061 14.5862 32.5244C14.519 32.5428 14.3356 32.5733 14.1706 32.5917C14.0118 32.6161 13.8956 32.6528 13.9079 32.6772C13.9384 32.72 14.2868 32.8117 14.8918 32.9217C15.0629 32.9583 15.4051 33.0255 15.6556 33.0805C15.9062 33.1355 16.2912 33.2211 16.5112 33.27C17.599 33.4961 17.8556 33.5511 18.2529 33.6305C18.8823 33.765 19.5484 33.8994 19.964 33.9728C20.404 34.0522 20.734 34.2111 20.8684 34.4128C20.9173 34.4922 20.9906 34.7183 21.0212 34.92C21.1068 35.415 21.2106 35.8672 21.2779 36.0139C21.3023 36.0811 21.3879 36.3255 21.4612 36.5639C21.6201 37.0955 21.614 37.0772 22.0662 38C22.4329 38.7578 22.5673 38.99 23.1295 39.7844C23.5451 40.3833 23.5329 40.4933 22.9584 41.3611C22.7079 41.74 22.5001 42.0578 22.5001 42.07C22.5001 42.0822 22.1823 42.5772 22.0112 42.8278C21.9745 42.8767 21.8156 43.1272 21.6506 43.3778C21.4918 43.6283 21.1679 44.1233 20.9356 44.4778C20.7034 44.8322 20.5018 45.1439 20.4895 45.1683C20.4712 45.2172 20.1656 45.6939 19.9945 45.9444C19.9579 45.9933 19.7929 46.2561 19.6156 46.525C19.4445 46.7939 19.194 47.1728 19.0656 47.3683C18.6868 47.9367 18.7601 47.9367 19.6706 47.3622C19.8968 47.2156 20.1412 47.0689 20.2023 47.0261C20.2695 46.9833 20.3551 46.9283 20.3856 46.9039C20.4223 46.8794 20.7401 46.6717 21.0945 46.4394C22.5062 45.5228 23.594 44.8139 24.0156 44.5328C24.2601 44.3678 24.4679 44.2333 24.4801 44.2333C24.4923 44.2333 24.8529 43.995 25.2868 43.7078C26.3073 43.0233 26.4479 42.9989 27.0956 43.3839C27.3401 43.5306 27.7618 43.7567 28.0306 43.885C28.2995 44.0133 28.5684 44.1478 28.6234 44.1783C28.6845 44.2089 28.764 44.2333 28.8068 44.2333C28.8495 44.2333 28.9595 44.27 29.0512 44.3189C29.1429 44.3678 29.3018 44.4228 29.4118 44.4472C29.5279 44.4717 29.6562 44.5144 29.7112 44.545C29.8029 44.5939 30.1451 44.6794 30.7195 44.7894C30.8906 44.82 31.1351 44.875 31.2695 44.9056C31.404 44.9361 31.5873 44.9728 31.679 44.9972C31.9295 45.0461 32.1373 45.4189 32.1923 45.8894C32.2106 46.1033 32.2534 46.305 32.2779 46.3417C32.3023 46.3722 32.3573 46.58 32.394 46.8C32.4306 47.02 32.504 47.3867 32.559 47.625C32.6079 47.8572 32.6934 48.23 32.7362 48.45C32.779 48.67 32.8645 49.055 32.9195 49.3056C33.0906 50.0694 33.2006 50.6011 33.2679 50.9861C33.384 51.6339 33.5123 51.6706 33.604 51.09C33.6406 50.8639 33.7201 50.485 33.7751 50.2528C33.934 49.55 34.0501 48.9939 34.1112 48.615C34.1479 48.4133 34.1845 48.23 34.2029 48.1994C34.2212 48.1689 34.2823 47.9306 34.3312 47.6739C34.649 46.0239 34.6979 45.8283 34.8323 45.6817C34.979 45.5167 35.2906 45.4006 35.7551 45.3394C36.4151 45.2417 37.4845 44.9544 38.0529 44.7161C38.5845 44.4961 38.8168 44.3983 39.0001 44.3067C39.2995 44.16 40.3995 43.5 40.6195 43.3411C40.8884 43.1394 41.0962 43.1089 41.3345 43.2189C41.5362 43.3167 43.2351 44.4106 43.3818 44.5328C43.4245 44.5694 43.4673 44.6 43.4856 44.6C43.5101 44.6 43.9318 44.8689 44.2556 45.0889C44.5795 45.3089 45.7406 46.0667 45.759 46.0667C45.7834 46.0667 46.9629 46.8489 47.0484 46.9222C47.0912 46.9528 47.134 46.9833 47.1523 46.9833C47.1706 46.9833 47.409 47.1361 47.6901 47.3256C47.9651 47.5089 48.2034 47.6372 48.2156 47.6006C48.234 47.5517 47.849 46.9222 47.4334 46.3111C47.2623 46.0606 46.9568 45.5839 46.9384 45.535C46.9262 45.5106 46.694 45.1561 46.4312 44.7528C46.1684 44.3494 45.7712 43.7444 45.5512 43.4083C45.3373 43.0722 45.0256 42.5956 44.8606 42.3511C44.6956 42.1067 44.5612 41.8928 44.5612 41.8744C44.5612 41.8561 44.5306 41.8133 44.5001 41.7706C44.4634 41.7278 44.2923 41.4772 44.1151 41.2083C43.6873 40.5606 43.6873 40.3833 44.0906 39.7844C44.5184 39.1428 45.3556 37.4622 45.3556 37.2422C45.3556 37.1933 45.3801 37.1383 45.4106 37.12C45.4412 37.0955 45.484 36.9733 45.5084 36.8389C45.5329 36.7044 45.5695 36.5822 45.6001 36.5639C45.6245 36.5455 45.6673 36.405 45.6918 36.2522C45.7162 36.0933 45.759 35.9222 45.7834 35.8672C45.814 35.8122 45.869 35.5739 45.9056 35.3417C46.1134 33.9972 46.0645 34.0522 47.2806 33.8139C47.519 33.765 47.904 33.6855 48.1362 33.6367C49.2423 33.3983 49.5051 33.3433 49.8779 33.2639C50.0979 33.215 50.4829 33.1294 50.7334 33.0805C50.984 33.0255 51.3873 32.94 51.6195 32.8911C51.8579 32.8361 52.2368 32.7628 52.469 32.7261C52.8418 32.6589 52.8784 32.6405 52.7868 32.5672C52.7318 32.5183 52.4873 32.445 52.2429 32.3961C51.9984 32.3533 51.6256 32.2739 51.4056 32.225C50.6723 32.0661 50.1529 31.9561 49.6945 31.8644C49.444 31.8094 49.0468 31.7239 48.8084 31.675C48.5762 31.62 48.2095 31.5528 47.9956 31.5222C47.7818 31.4856 47.5618 31.4367 47.5006 31.4061C47.4456 31.3756 47.2256 31.3267 47.0179 31.3022C46.8101 31.2839 46.6206 31.235 46.6023 31.2106C46.584 31.18 46.5229 31.1556 46.4618 31.1556C46.2356 31.1556 45.9423 30.7644 45.8751 30.3856C45.8506 30.2572 45.7956 30.025 45.7529 29.8722C45.7101 29.7194 45.6245 29.4322 45.5695 29.2306C45.5145 29.0289 45.4473 28.8089 45.4168 28.7417C45.3862 28.6744 45.3434 28.5522 45.3251 28.4667C45.2701 28.2528 44.6345 26.89 44.439 26.5722C44.1518 26.1017 43.6445 25.2278 43.6445 25.1972C43.6445 25.1728 43.6018 25.1178 43.5529 25.0689C43.3879 24.9039 43.449 24.6411 43.7362 24.2133C43.889 23.9933 44.0112 23.8039 44.0112 23.7917C44.0112 23.7733 44.2984 23.3272 44.5001 23.0278C44.5368 22.9789 44.7018 22.7161 44.879 22.4472C45.0501 22.1783 45.3984 21.6406 45.649 21.2556C45.9056 20.8706 46.2234 20.3756 46.364 20.1556C47.134 18.9639 47.3601 18.6033 47.7145 18.0778C48.2462 17.2833 48.234 17.2406 47.5923 17.6806C47.3662 17.8333 47.1706 17.9556 47.1523 17.9556C47.1401 17.9556 47.0912 17.9861 47.0484 18.0167C47.0056 18.0533 46.7551 18.2244 46.4862 18.3956C46.2173 18.5667 45.6795 18.915 45.2945 19.1656C44.9095 19.4222 44.4145 19.74 44.1945 19.8806C43.9745 20.0211 43.3573 20.4244 42.8195 20.7789C40.6134 22.2211 40.7662 22.1356 40.4668 22.1294C40.2529 22.1294 40.094 22.0683 39.7945 21.885C39.379 21.6344 38.2545 21.0722 38.1629 21.0722C38.1384 21.0722 38.0406 21.0356 37.949 20.9867C37.8573 20.9378 37.6984 20.8828 37.5884 20.8583C37.4723 20.8339 37.344 20.7911 37.289 20.7606C37.1301 20.6811 36.409 20.51 35.4618 20.3389C34.9484 20.2472 34.8384 20.1067 34.6795 19.3306C34.5573 18.7378 34.4473 18.1939 34.3312 17.65C34.2762 17.3994 34.1906 16.9839 34.1356 16.7333C34.0868 16.4828 34.0012 16.0794 33.9523 15.8472C33.9034 15.6089 33.8179 15.2239 33.769 14.9917C33.714 14.7533 33.6406 14.3928 33.604 14.185C33.5245 13.7694 33.4879 13.7022 33.3962 13.8122Z" fill="white"/>
</svg>
