<svg width="66" height="66" viewBox="0 0 66 66" fill="none" xmlns="http://www.w3.org/2000/svg">
<circle cx="33" cy="33" r="33" fill="#A7C1F2"/>
<path d="M40.8111 19.4222C40.3711 19.4711 39.9677 19.575 39.6683 19.7033C39.5644 19.7522 39.4483 19.7889 39.4055 19.7889C39.3688 19.7889 39.0755 19.9172 38.7577 20.0761C38.1711 20.3633 37.5172 20.9133 37.1261 21.445C36.9305 21.7017 36.5333 22.4595 36.5333 22.5572C36.5333 22.6 36.4844 22.71 36.4294 22.8139C36.3438 22.9667 36.3255 23.1683 36.3255 23.9506C36.3194 24.9161 36.3316 24.9772 36.6127 25.5761C36.7105 25.7961 36.6311 25.9061 36.3988 25.8633C35.8733 25.7656 34.7244 25.1606 33.9116 24.5617C32.8544 23.7795 32.6772 23.6633 31.9194 23.2845C31.2472 22.9483 30.7277 22.7222 30.6238 22.7222C30.5749 22.7222 30.4466 22.6856 30.3427 22.6367C30.0433 22.5022 29.6461 22.4106 29.0472 22.3311C28.7477 22.2883 28.4422 22.2333 28.3749 22.1967C28.1855 22.1111 24.4761 22.1233 24.3661 22.215C24.3172 22.2578 24.1522 22.3067 24.0055 22.325C23.6999 22.3678 23.1561 22.5145 22.8627 22.6428C22.7588 22.6856 22.6305 22.7222 22.5755 22.7222C22.5205 22.7222 22.4288 22.7467 22.3677 22.7833C22.1905 22.8811 21.6955 23.0889 21.6344 23.0889C21.5855 23.0889 21.4449 23.1622 20.7361 23.5411C19.8744 24.0117 18.9027 24.8122 18.6827 25.2339C18.5299 25.5333 18.5238 26.1628 18.6705 26.4561C18.8477 26.8228 19.3855 27.3239 19.7155 27.44C20.1188 27.5867 20.9316 27.5806 21.3472 27.44C21.6955 27.3178 22.2638 27.0061 22.4472 26.8289C22.5938 26.6945 22.6794 26.6456 23.5349 26.2178C23.8894 26.0467 24.2499 25.9 24.3233 25.9C24.4027 25.9 24.4944 25.8756 24.5311 25.845C24.6472 25.7289 25.5333 25.6311 26.4805 25.6311C27.4277 25.625 28.0327 25.6922 28.5094 25.8389C29.6461 26.2056 30.2816 26.5295 31.1861 27.2078C31.8522 27.7028 33.0561 28.4667 33.1783 28.4667C33.2149 28.4667 33.3188 28.5095 33.4044 28.5522C33.4961 28.6011 33.6672 28.6806 33.7833 28.7295C33.8994 28.7783 34.0766 28.8456 34.1683 28.8883C34.3638 28.9678 34.9261 29.1511 35.4027 29.2856C36.0444 29.475 36.5333 29.5545 37.4377 29.6339C38.8311 29.75 40.5849 29.5972 41.7888 29.2489C41.9416 29.2061 42.0944 29.1511 42.1249 29.1328C42.1616 29.1083 42.2716 29.0778 42.3694 29.0533C42.4733 29.0289 42.6383 28.9739 42.7361 28.925C42.8399 28.8822 43.0294 28.7967 43.1638 28.7417C43.5916 28.5645 44.0683 28.3383 44.4472 28.1367C44.9911 27.8372 45.8283 27.1039 46.3294 26.4867C46.6411 26.1017 46.9955 25.295 47.1177 24.7083C47.2522 24.03 47.2522 23.81 47.1116 23.15C46.9222 22.2517 46.5372 21.6039 45.7733 20.8767C45.2294 20.3633 44.7344 20.0517 43.8972 19.6972C43.2127 19.41 41.9477 19.3 40.8111 19.4222Z" fill="white"/>
<path d="M24.8365 28.815C24.8182 28.8394 24.5677 28.8944 24.2927 28.9372C23.7182 29.0228 23.1988 29.145 22.9482 29.2489C22.8504 29.2917 22.7343 29.3222 22.6854 29.3222C22.6365 29.3222 22.551 29.3467 22.4899 29.3772C22.3799 29.4383 21.9827 29.6156 21.5915 29.7806C21.1149 29.9761 20.0699 30.5506 19.9721 30.6667C19.9538 30.685 19.8071 30.8133 19.636 30.9417C19.1899 31.3022 18.8232 31.7117 18.646 32.06C18.5299 32.28 18.5482 32.8972 18.6704 33.0989C18.866 33.4044 19.3121 33.8383 19.5382 33.9361C19.6604 33.9911 19.8132 34.0583 19.8804 34.0889C20.3388 34.2906 20.9865 34.2722 21.4815 34.0522C21.5854 34.0033 21.7015 33.9667 21.7321 33.9667C21.7688 33.9667 22.0132 33.82 22.276 33.6428C22.5388 33.4594 22.826 33.2761 22.9177 33.2272C23.1865 33.0867 23.6632 32.8544 23.7915 32.7994C23.8588 32.775 24.0482 32.6956 24.2132 32.6283C24.3782 32.555 24.5615 32.5 24.6288 32.5C24.696 32.5 24.806 32.4694 24.8732 32.4328C24.9465 32.39 25.1604 32.3411 25.3438 32.3167C25.5332 32.2922 25.851 32.2372 26.0527 32.1944C26.4254 32.1211 27.2199 32.1517 27.5804 32.2556C27.6843 32.2861 27.9043 32.335 28.0693 32.3656C28.5827 32.4694 28.9249 32.5672 28.986 32.6283C29.0165 32.6589 29.0838 32.6833 29.1388 32.6833C29.2243 32.6833 29.6582 32.8911 30.1227 33.1478C30.4282 33.3189 30.8927 33.6428 31.2593 33.9422C31.5404 34.1744 32.0232 34.5044 32.4082 34.7367C32.4754 34.7794 32.6893 34.8894 32.8849 34.9811C33.0743 35.0789 33.2332 35.1767 33.2332 35.2011C33.2332 35.2256 33.2821 35.25 33.3432 35.25C33.4043 35.25 33.5082 35.2928 33.5754 35.3417C33.6365 35.3906 33.7465 35.4333 33.8138 35.4333C33.881 35.4333 33.991 35.47 34.0582 35.5128C34.1682 35.5861 34.4615 35.6839 35.1888 35.8978C35.9343 36.1117 36.4721 36.1911 37.8227 36.2889C38.5438 36.3378 38.8371 36.3317 39.3504 36.2583C39.6988 36.2094 40.1204 36.1667 40.2793 36.1667C40.4443 36.1667 40.6215 36.1422 40.6827 36.1117C40.7377 36.0811 40.9638 36.0261 41.1838 35.9894C41.636 35.9222 42.0454 35.8183 42.3204 35.7022C42.4243 35.6533 42.5404 35.6167 42.5771 35.6167C42.6138 35.6167 42.7299 35.58 42.8399 35.5311C42.9499 35.4822 43.1515 35.3967 43.286 35.3417C44.2821 34.9261 45.2965 34.2661 45.926 33.6244C46.5065 33.0317 46.6288 32.5428 46.3415 31.9317C45.9871 31.1861 45.3638 30.7889 44.5449 30.7889C43.9154 30.7889 43.4204 30.9783 42.626 31.51C42.1004 31.8706 41.3793 32.2556 41.2388 32.2556C41.1899 32.2556 41.0921 32.2983 41.031 32.3472C40.9638 32.3961 40.8538 32.4389 40.7804 32.4389C40.7071 32.4389 40.6215 32.4694 40.591 32.5C40.5543 32.5367 40.3893 32.5917 40.2243 32.6222C40.0593 32.6528 39.8027 32.7078 39.6499 32.7383C39.3199 32.8117 37.7127 32.8178 37.3277 32.7444C37.1749 32.72 36.8999 32.665 36.7043 32.6344C36.5149 32.5978 36.3132 32.5428 36.246 32.5061C36.1849 32.4756 35.971 32.3839 35.7693 32.3044C35.1765 32.0783 33.7221 31.1433 32.946 30.4833C32.9032 30.4528 32.8543 30.4222 32.8299 30.4222C32.8115 30.4222 32.5854 30.3 32.3349 30.1472C32.0904 29.9944 31.8704 29.8722 31.8521 29.8722C31.8338 29.8722 31.6382 29.7928 31.4182 29.6889C31.2043 29.5911 30.9599 29.4872 30.8743 29.4689C30.7949 29.4506 30.7093 29.4078 30.691 29.3772C30.6727 29.3467 30.6054 29.3222 30.5443 29.3222C30.4832 29.3222 30.3549 29.2917 30.2571 29.2489C30.0004 29.145 29.3649 29.0167 28.7477 28.9556C28.4482 28.925 28.0693 28.87 27.9043 28.8394C27.5743 28.7661 24.9038 28.7478 24.8365 28.815Z" fill="white"/>
<path d="M25.2216 35.4028C25.1971 35.4211 24.9099 35.4761 24.5799 35.525C23.8649 35.6289 23.3393 35.7328 23.211 35.8C23.156 35.8244 23.0277 35.8672 22.9116 35.8917C22.8016 35.9161 22.6427 35.9711 22.551 36.02C22.4593 36.0689 22.3493 36.1056 22.3066 36.1056C22.2638 36.1056 22.1843 36.13 22.1232 36.1606C22.0682 36.1911 21.7993 36.3194 21.5305 36.4478C21.2616 36.57 20.9988 36.6922 20.9499 36.7228C20.901 36.7533 20.8032 36.8022 20.736 36.8328C20.6688 36.8633 20.5099 36.9611 20.3816 37.0467C20.2532 37.1322 20.1371 37.2056 20.1188 37.2056C20.0821 37.2056 20.0638 37.2178 19.4466 37.7372C19.1777 37.9633 18.8293 38.3178 18.6827 38.5133C18.3649 38.9472 18.0166 39.5094 18.0166 39.595C18.0166 39.6317 17.9799 39.7172 17.9432 39.7906C17.8455 39.9556 17.7171 40.5422 17.6682 41.0128C17.601 41.7278 18.0043 42.9867 18.5055 43.5917C18.8293 43.9767 19.6727 44.7833 19.7582 44.7833C19.7705 44.7833 19.9049 44.8628 20.0516 44.9667C20.2043 45.0644 20.3449 45.15 20.3693 45.15C20.3938 45.15 20.4977 45.1867 20.6016 45.2356C21.0721 45.4372 21.3043 45.5167 21.5305 45.5533C21.6649 45.5778 21.8116 45.6267 21.8605 45.6633C21.9766 45.755 24.3843 45.755 24.5005 45.6572C24.5493 45.6206 24.7082 45.5717 24.861 45.5472C25.0077 45.5228 25.1727 45.48 25.2277 45.4494C25.2766 45.4189 25.4599 45.3394 25.6249 45.2722C25.796 45.205 25.9732 45.1194 26.0221 45.0889C26.071 45.0522 26.1566 45.0094 26.2055 44.985C26.786 44.7283 27.6538 43.9094 28.0449 43.2556C28.381 42.6872 28.5032 42.3267 28.5949 41.6178C28.6805 41.0006 28.6071 40.31 28.4299 39.9678C28.3871 39.8761 28.3443 39.76 28.3443 39.7111C28.3443 39.6622 28.3016 39.5644 28.2527 39.5033C28.1427 39.3628 28.1366 39.21 28.2282 39.1183C28.2955 39.0511 28.7477 39.1306 28.8638 39.2283C28.8943 39.2589 28.9555 39.2833 29.0043 39.2833C29.0899 39.2833 29.4505 39.4239 29.6277 39.5278C29.6766 39.5583 29.866 39.6561 30.0493 39.7478C30.2327 39.8333 30.4221 39.9372 30.4649 39.98C30.5077 40.0167 30.7216 40.1694 30.9416 40.3222C31.351 40.6033 32.1149 41.135 32.2249 41.2267C32.5305 41.465 34.1499 42.2778 34.3271 42.2778C34.3638 42.2778 34.4432 42.3022 34.5043 42.3328C34.6388 42.4 35.2193 42.565 35.4943 42.62C35.6105 42.6383 35.7388 42.675 35.7693 42.6994C36.0566 42.8828 39.0327 43.0233 39.711 42.8889C39.8943 42.8522 40.2671 42.7972 40.536 42.7667C41.2021 42.6933 42.1982 42.4672 42.5649 42.3022C42.6688 42.2533 42.7849 42.2167 42.8216 42.2167C42.8582 42.2167 42.9377 42.1922 42.9988 42.1617C43.0538 42.125 43.4082 41.9539 43.7749 41.7767C44.9971 41.1778 45.9077 40.4811 46.2988 39.8456C46.8243 38.9839 46.2927 37.9389 45.0888 37.4928C44.7405 37.3644 44.3799 37.3583 43.9705 37.4867C43.5549 37.6089 43.3532 37.7067 42.5527 38.1833C41.9416 38.5439 41.6055 38.7211 41.086 38.9472C40.9882 38.99 40.8355 39.0572 40.7499 39.0939C40.5482 39.1794 40.1327 39.2833 39.6805 39.3567C39.4788 39.3872 39.1305 39.4422 38.9105 39.4789C38.6843 39.5156 38.3666 39.5278 38.2077 39.5094C37.2605 39.3933 36.9305 39.3444 36.7593 39.2894C36.0871 39.0756 35.7816 38.9717 35.6899 38.9228C35.6349 38.8922 35.5188 38.8372 35.4332 38.8006C35.3477 38.77 35.1521 38.66 34.9932 38.5683C34.2905 38.1467 34.1193 38.0367 34.0888 38C34.0705 37.9817 33.8688 37.8167 33.6305 37.6456C33.3982 37.4744 33.1721 37.3033 33.1293 37.2667C33.0866 37.2361 33.0316 37.2056 33.001 37.2056C32.9766 37.2056 32.7627 37.0833 32.5366 36.9306C32.3043 36.7778 32.0966 36.6556 32.066 36.6556C32.0416 36.6556 31.8582 36.5761 31.6627 36.4783C31.1555 36.2156 30.8988 36.1056 30.8316 36.1056C30.801 36.1056 30.691 36.0689 30.5871 36.0261C30.1166 35.8244 29.5421 35.6778 28.5582 35.5189C27.996 35.4211 25.2888 35.3294 25.2216 35.4028Z" fill="white"/>
</svg>
