<svg width="66" height="66" viewBox="0 0 45 66" fill="none" xmlns="http://www.w3.org/2000/svg">
  <path
    d="M1.90137e-05 22.4056C1.90137e-05 10.0563 10.0542 0 22.4056 0C34.7611 0 44.8174 10.0542 44.8174 22.4056C44.8174 33.1477 37.2256 42.1484 27.1218 44.3112V49.5253H32.1066C34.507 49.5253 36.453 51.4878 36.453 53.8841C36.453 56.2846 34.507 58.245 32.1066 58.245H27.1218V61.6536C27.1218 64.054 25.1593 66 22.7589 66C20.3584 66 18.398 64.0582 18.398 61.6536V58.245H13.1632C10.7649 58.245 8.81889 56.2846 8.81889 53.8841C8.81889 51.4878 10.7628 49.5253 13.1632 49.5253H18.398V44.4559C8.01736 42.5657 1.90137e-05 33.3935 1.90137e-05 22.4056ZM36.1225 22.4056C36.1225 14.8427 29.9705 8.69492 22.4118 8.69492C14.8489 8.69492 8.7032 14.8427 8.7032 22.4056C8.7032 29.9664 14.851 36.1204 22.4118 36.1204C29.9726 36.1183 36.1225 29.9664 36.1225 22.4056Z"
    fill="black"/>
</svg>
