<svg width="66" height="66" viewBox="0 0 66 66" fill="none" xmlns="http://www.w3.org/2000/svg">
<circle cx="33" cy="33" r="33" fill="#F6D407"/>
<path d="M16.0711 14.2889C16.065 14.3194 16.0711 14.8939 16.0895 15.5539C16.1384 16.8922 16.285 18.5728 16.3889 18.8355C16.4195 18.9272 16.45 19.0983 16.45 19.2144C16.45 19.3367 16.4745 19.4772 16.505 19.5383C16.5356 19.5933 16.5906 19.8194 16.6273 20.0394C16.7067 20.5344 16.835 21.0844 16.89 21.17C16.9145 21.2067 16.9511 21.3533 16.9756 21.5C17 21.6467 17.055 21.8361 17.1039 21.9217C17.1467 22.0072 17.1834 22.1172 17.1834 22.16C17.1834 22.2822 17.5806 23.425 17.7945 23.9139C17.825 23.9811 17.9045 24.1705 17.9778 24.3417C18.2406 24.9528 18.3017 25.0872 18.5767 25.6555C18.9067 26.3217 19.8417 27.9106 20.2023 28.4117C20.3428 28.6011 20.4956 28.815 20.5445 28.8944C20.7095 29.1389 21.0517 29.5911 21.2411 29.8172C21.345 29.9394 21.565 30.1961 21.7361 30.3978C21.9011 30.5933 22.1761 30.9111 22.3473 31.0944C23.3006 32.1394 23.6 32.7383 23.6 33.6122C23.6 33.8444 23.6306 34.15 23.6611 34.2906C23.6978 34.4311 23.7528 34.81 23.7834 35.1278C23.8628 35.9406 24.095 37.1689 24.2478 37.5906C24.2967 37.7128 24.3334 37.89 24.3334 37.9694C24.3334 38.055 24.3578 38.1711 24.3884 38.2322C24.4189 38.2872 24.5045 38.5439 24.5839 38.7944C24.6573 39.045 24.7367 39.3078 24.7673 39.375C24.8284 39.5278 25.0484 40.09 25.1706 40.4139C25.4517 41.1533 26.2584 42.7728 26.79 43.6589C27.0956 44.1722 27.0956 44.1722 27.4195 44.6489C27.5906 44.8994 27.7556 45.1439 27.7861 45.1989C27.8595 45.3089 27.8411 45.2905 28.2567 45.8528C28.4278 46.085 28.5928 46.2928 28.6111 46.3111C28.6356 46.3294 28.6784 46.3844 28.7089 46.4394C28.8006 46.6044 29.2039 47.0933 30.0717 48.0833C31.0006 49.1467 33.0111 51.0289 33.0111 50.8394C33.0111 50.8028 32.95 50.705 32.8828 50.6255C32.8095 50.54 32.6689 50.3383 32.5589 50.1733C32.455 50.0022 32.1434 49.5317 31.8623 49.1161C31.5873 48.7067 31.3611 48.3339 31.3611 48.2911C31.3611 48.2483 31.3367 48.2055 31.3061 48.1933C31.1839 48.1505 29.5889 44.9972 29.5889 44.8017C29.5889 44.7772 29.5461 44.6672 29.4911 44.5694C29.4361 44.4656 29.3384 44.2211 29.2711 44.0194C29.21 43.8178 29.1306 43.5978 29.1 43.5306C29.0756 43.4633 28.99 43.2006 28.9106 42.95C28.8373 42.6994 28.7395 42.3756 28.6906 42.2289C28.6478 42.0883 28.6111 41.8928 28.6111 41.8011C28.6111 41.7033 28.5806 41.5994 28.55 41.5689C28.5134 41.5322 28.4706 41.355 28.4461 41.1717C28.4278 40.9883 28.385 40.8111 28.3606 40.7744C28.33 40.7378 28.275 40.4506 28.2445 40.1328C28.2139 39.815 28.1589 39.3506 28.1284 39.1C28.055 38.5194 28.055 36.3194 28.1284 35.8306C28.1589 35.6289 28.2078 35.2378 28.2384 34.9628C28.2689 34.6878 28.3239 34.3761 28.3545 34.26C28.3911 34.15 28.4461 33.9056 28.4889 33.7222C28.6173 33.0622 28.6723 32.8361 28.7211 32.7139C28.8311 32.4572 28.9778 31.9561 28.9717 31.8522C28.9717 31.785 28.9045 31.6139 28.825 31.4611C28.7395 31.3083 28.66 31.1433 28.6417 31.0944C28.6173 31.0456 28.5256 30.9478 28.4278 30.8806C28.2689 30.7644 27.8778 30.4161 26.7167 29.3528C25.7511 28.4667 23.8506 26.5722 23.3189 25.9611C23.05 25.6617 23.0195 25.625 22.5856 25.1605C22.4206 24.9772 22.1273 24.635 21.9439 24.4028C21.7667 24.1644 21.5773 23.9383 21.5345 23.8894C21.2045 23.5411 19.805 21.555 19.255 20.6567C18.7784 19.8622 17.9961 18.3711 17.4217 17.1305C17.1345 16.5072 16.7617 15.6761 16.6089 15.3155C16.56 15.2055 16.45 14.9672 16.3645 14.79C16.2789 14.6067 16.2056 14.4233 16.2056 14.3805C16.2056 14.2767 16.1017 14.2033 16.0711 14.2889Z" fill="white"/>
<path d="M50.6478 14.4905C50.55 14.7167 50.3973 15.065 50.0917 15.725C50.0489 15.8228 49.9634 16.0183 49.9023 16.1528C49.5661 16.9411 48.35 19.4283 48.0628 19.9233C47.1156 21.5305 45.9667 23.1744 45.0195 24.2805C44.8484 24.4822 44.6528 24.7205 44.5795 24.8122C44.0173 25.5517 41.9578 27.6905 40.6317 28.9128C40.3139 29.2061 39.9534 29.5361 39.8434 29.6461C39.3239 30.135 38.6028 30.7705 38.4439 30.8805C38.3523 30.9478 38.2606 31.0455 38.2423 31.0944C38.2239 31.1433 38.1811 31.2289 38.1506 31.2778C37.8939 31.6689 37.8511 31.9622 37.9917 32.2311C38.0406 32.3289 38.0834 32.4694 38.0834 32.5428C38.0834 32.6161 38.1078 32.6894 38.1384 32.7078C38.1689 32.7261 38.2117 32.8483 38.23 32.9705C38.285 33.2822 38.45 34.0155 38.5173 34.2417C38.5417 34.3394 38.5967 34.6694 38.6334 34.975C38.67 35.2744 38.725 35.7022 38.7556 35.9222C38.8289 36.4172 38.8289 38.495 38.7556 39.0694C38.725 39.3017 38.67 39.76 38.6334 40.0778C38.5967 40.3955 38.5478 40.7255 38.5173 40.8111C38.4867 40.8967 38.4195 41.1839 38.3645 41.4528C38.3095 41.7217 38.2239 42.0639 38.175 42.2167C38.1323 42.3694 38.0711 42.5955 38.0528 42.7239C38.0284 42.8461 37.9856 42.9683 37.955 42.9867C37.9245 43.005 37.9 43.0783 37.9 43.1517C37.9 43.225 37.8634 43.3594 37.8145 43.4511C37.7656 43.5428 37.7106 43.6955 37.6861 43.7994C37.6617 43.9033 37.6189 44.0011 37.5884 44.0194C37.5578 44.0439 37.5334 44.0989 37.5334 44.1478C37.5334 44.2333 37.3561 44.6855 37.2339 44.9055C37.2034 44.9605 37.1606 45.0889 37.1361 45.1989C37.1178 45.3089 37.0689 45.3944 37.0384 45.3944C37.0078 45.3944 36.9834 45.4311 36.9834 45.48C36.9834 45.5472 36.1461 47.2583 35.9445 47.5944C35.9139 47.6433 35.7489 47.9305 35.5717 48.2361C35.2906 48.7189 34.93 49.2628 34.1661 50.375C34.05 50.54 33.94 50.6867 33.9156 50.6989C33.885 50.7111 33.8667 50.7661 33.8667 50.815C33.8667 50.8822 33.9584 50.8333 34.1539 50.6744C35.0156 49.9717 36.9223 48.0528 37.35 47.4661C37.4295 47.35 37.5578 47.1911 37.6311 47.1055C38.0589 46.6228 38.1445 46.5189 38.1445 46.4822C38.1445 46.4578 38.1811 46.4028 38.2239 46.36C38.5111 46.0667 39.6661 44.4167 39.7945 44.1111C39.8311 44.0317 39.8861 43.9461 39.9106 43.9278C40.0328 43.8544 41.3223 41.4039 41.3223 41.2511C41.3223 41.2144 41.3528 41.1778 41.3834 41.1778C41.42 41.1778 41.4445 41.1228 41.4445 41.0617C41.4445 40.9944 41.4873 40.9028 41.5361 40.8478C41.585 40.7989 41.6278 40.7072 41.6278 40.6461C41.6278 40.5789 41.6706 40.475 41.7195 40.4078C41.7684 40.3467 41.8111 40.2367 41.8111 40.1633C41.8111 40.0961 41.8539 39.9861 41.9028 39.9189C41.9517 39.8578 41.9945 39.76 41.9945 39.7111C41.9945 39.6622 42.0373 39.54 42.0861 39.4422C42.135 39.3505 42.1778 39.2222 42.1778 39.1672C42.1778 39.1122 42.2206 38.99 42.2695 38.8922C42.3184 38.8005 42.3611 38.6722 42.3611 38.6172C42.3611 38.5622 42.4039 38.3972 42.4528 38.2444C42.7339 37.3767 42.9845 36.1605 43.0945 35.1278C43.125 34.81 43.1678 34.4922 43.1861 34.425C43.2045 34.3578 43.2473 33.9911 43.2717 33.6122C43.3023 33.2272 43.3573 32.885 43.3939 32.8483C43.4306 32.8117 43.4611 32.7322 43.4611 32.6711C43.4611 32.5611 43.6811 32.0967 43.7973 31.9683C43.8278 31.9317 43.9256 31.8094 44.0111 31.6933C44.0967 31.5833 44.3045 31.3389 44.4756 31.1555C45.1845 30.3855 45.5817 29.9089 45.9545 29.3894C46.0706 29.2367 46.3334 28.8761 46.5411 28.5889C46.7489 28.3017 47.0239 27.8922 47.1584 27.6722C47.2867 27.4522 47.4211 27.2628 47.4456 27.2567C47.47 27.2444 47.4945 27.2078 47.4945 27.1711C47.4945 27.1344 47.6106 26.9083 47.7573 26.67C48.02 26.23 48.3928 25.4844 48.6861 24.8305C48.7717 24.6289 48.8695 24.4089 48.9 24.3417C49.0589 23.9811 49.1995 23.6389 49.2973 23.3639C49.3584 23.1928 49.4317 23.0278 49.45 22.9972C49.4745 22.9605 49.5111 22.8505 49.5295 22.7528C49.56 22.5939 49.7006 22.1417 49.8045 21.8667C49.8228 21.8178 49.8717 21.6344 49.9145 21.4694C49.9573 21.2983 50.0367 20.9867 50.0917 20.7667C50.3423 19.7583 50.5256 18.75 50.6478 17.65C50.7517 16.7883 50.8495 14.3805 50.7884 14.2828C50.77 14.2522 50.7089 14.3439 50.6478 14.4905Z" fill="white"/>
<path d="M33.4146 16.275C33.3535 16.4767 33.2679 16.7333 33.219 16.8433C33.1701 16.9533 33.1335 17.1 33.1335 17.1672C33.1335 17.2406 33.0968 17.3811 33.054 17.485C33.0051 17.595 32.9257 17.8333 32.8707 18.0167C32.6751 18.6889 32.504 19.2083 32.4612 19.2695C32.4368 19.3 32.4001 19.4039 32.3757 19.5017C32.284 19.8745 31.239 20.7056 30.8479 20.7056C30.799 20.7056 30.744 20.73 30.7196 20.7606C30.7012 20.7911 30.5973 20.8339 30.4873 20.8583C30.3835 20.8828 30.1696 20.9378 30.0168 20.9806C29.864 21.0295 29.5768 21.115 29.3751 21.17C29.1735 21.225 28.9596 21.2983 28.8985 21.3289C28.8373 21.3595 28.6723 21.4083 28.5318 21.4389C27.9207 21.5733 27.6151 21.665 27.664 21.6956C27.7007 21.7139 27.9207 21.775 28.1529 21.83C28.3912 21.885 28.6357 21.9583 28.7029 21.9828C28.8923 22.0622 29.4729 22.2272 29.7112 22.27C29.8273 22.2883 29.9557 22.325 29.9862 22.3433C30.1085 22.4228 30.6585 22.5939 30.7807 22.6C30.8968 22.6 31.6485 22.9972 31.8562 23.1622C32.0335 23.3089 32.3757 23.8528 32.4857 24.1583C32.5468 24.3233 32.614 24.5067 32.6385 24.5556C32.6812 24.6411 32.7485 24.855 33.054 25.9C33.109 26.0833 33.1885 26.34 33.2312 26.4683C33.2801 26.5906 33.3168 26.7617 33.3168 26.8472C33.3168 26.9267 33.3473 27.0122 33.3779 27.0306C33.4146 27.0489 33.439 27.1345 33.439 27.2139C33.439 27.2933 33.4635 27.3728 33.494 27.3911C33.5551 27.4339 33.6223 27.2872 33.6223 27.1161C33.6223 27.0489 33.6468 26.9511 33.6773 26.89C33.7079 26.835 33.7751 26.6211 33.8362 26.4195C33.8912 26.2178 33.9768 25.9428 34.0257 25.8083C34.0685 25.6739 34.1235 25.46 34.1479 25.3317C34.1662 25.2095 34.209 25.0872 34.2396 25.0689C34.2701 25.0506 34.2946 24.9772 34.2946 24.9039C34.2946 24.8306 34.3373 24.69 34.3862 24.5922C34.4351 24.5006 34.4779 24.3783 34.4779 24.3295C34.4779 24.2806 34.5451 24.0911 34.6307 23.9017C34.9057 23.3028 35.5962 22.7406 36.2196 22.6183C36.3173 22.5939 36.4701 22.545 36.5557 22.4961C36.6412 22.4533 36.7696 22.4167 36.8429 22.4167C36.9162 22.4167 36.9896 22.3922 37.0079 22.3617C37.0262 22.3311 37.1485 22.2883 37.2707 22.27C37.399 22.2456 37.6129 22.1906 37.7473 22.1478C37.9796 22.0683 38.3035 21.9706 38.939 21.7995C39.2996 21.7017 39.3607 21.6406 39.1468 21.5917C39.049 21.5672 38.9023 21.5306 38.8168 21.5C38.7312 21.4695 38.5662 21.4267 38.4501 21.4022C38.334 21.3839 38.1996 21.3411 38.1446 21.3167C38.059 21.2739 37.894 21.225 37.2585 21.0661C37.124 21.0295 36.9896 20.9806 36.959 20.9439C36.9223 20.9133 36.8429 20.8889 36.7696 20.8889C36.6229 20.8889 36.0362 20.6933 35.6512 20.5161C35.309 20.3633 34.8262 19.8806 34.6673 19.5383C34.5023 19.1839 34.1112 18.0167 34.1112 17.8761C34.1112 17.8211 34.0868 17.7233 34.0562 17.6622C33.9707 17.5033 33.7446 16.77 33.7446 16.6539C33.7446 16.5928 33.7201 16.5011 33.6896 16.44C33.659 16.385 33.6101 16.2383 33.5796 16.1222L33.5246 15.9083L33.4146 16.275Z" fill="white"/>
<path d="M13.7183 24.1033C13.7366 24.4333 13.7977 24.9406 13.8466 25.2278C13.9872 25.9978 14.2438 27 14.3172 27.0611C14.3355 27.0794 14.3722 27.1589 14.3966 27.2444C14.4211 27.33 14.4761 27.4767 14.525 27.5806C14.5677 27.6783 14.6533 27.8739 14.7083 28.0083C15.0016 28.6744 15.5761 29.6828 16.0588 30.3733C16.3155 30.7339 16.8227 31.4122 16.8777 31.4611C16.8961 31.4794 17.0183 31.6261 17.1527 31.7972C17.4277 32.1456 18.0877 32.7994 18.5888 33.2272C18.7722 33.38 18.98 33.5572 19.0472 33.6183C19.1633 33.7283 19.8905 34.2233 20.1472 34.37C20.3611 34.4983 21.0638 34.8283 21.4122 34.9689C21.6383 35.0606 21.6444 35.0606 21.6811 34.9017C21.73 34.7061 21.6627 33.7222 21.5894 33.6367C21.5588 33.6 21.5161 33.5022 21.4916 33.4167C21.4061 33.1539 21.015 32.6833 20.575 32.335C19.8783 31.785 19.4016 31.3511 18.5888 30.5444C17.55 29.5056 17.4522 29.3894 16.615 28.3139C15.7472 27.1894 14.9711 25.9306 14.2561 24.4761C14.0055 23.9811 13.7794 23.5594 13.7427 23.535C13.7061 23.5106 13.6938 23.7 13.7183 24.1033Z" fill="white"/>
<path d="M53.0496 23.6756C52.9396 23.8039 52.8907 23.9017 52.5118 24.6778C51.8824 25.9733 51.1368 27.1833 50.2629 28.3139C49.4807 29.3222 49.3279 29.4933 48.2585 30.5689C47.6351 31.1983 47.1035 31.6811 46.3946 32.2556C45.814 32.7322 45.539 33.0561 45.3313 33.5083C45.2029 33.7894 45.1174 34.9017 45.2151 34.9628C45.2885 35.0056 45.5635 34.9322 45.9057 34.7733C46.0218 34.7244 46.2174 34.6328 46.3335 34.5839C46.4496 34.5289 46.584 34.4494 46.6268 34.4067C46.6696 34.37 46.7368 34.3333 46.7674 34.3333C46.8285 34.3333 47.6474 33.7833 47.8429 33.6122C47.904 33.5572 48.1363 33.3556 48.3501 33.1722C48.8329 32.7567 49.4929 32.0783 50.0307 31.4306C50.6235 30.7156 51.5096 29.3894 51.7174 28.8944C51.754 28.815 51.7968 28.7294 51.8213 28.7111C51.864 28.6806 51.9435 28.5156 52.194 27.9472C52.2674 27.7761 52.3529 27.5989 52.3774 27.55C52.4079 27.495 52.4507 27.3667 52.4751 27.2567C52.4935 27.1467 52.5424 27.0611 52.5729 27.0611C52.6035 27.0611 52.6279 26.9939 52.6279 26.9083C52.6279 26.8167 52.6646 26.6761 52.7135 26.5844C52.7563 26.4928 52.8174 26.2972 52.8418 26.1444C52.8663 25.9917 52.909 25.8389 52.9335 25.8083C52.9579 25.7717 53.0007 25.57 53.019 25.35C53.0435 25.13 53.0924 24.8428 53.1229 24.7083C53.1596 24.5739 53.1779 24.2622 53.1657 24.0117C53.1474 23.5961 53.1413 23.5717 53.0496 23.6756Z" fill="white"/>
<path d="M11.8667 30.9905C11.8667 31.1555 12.6123 32.4083 12.9606 32.8361C13.2661 33.2089 14.8673 34.7611 15.0934 34.9078C15.2217 34.9872 15.3684 35.0972 15.4173 35.1461C15.6861 35.4089 17.8189 36.7778 17.9656 36.7778C18.0023 36.7778 18.0389 36.7961 18.0511 36.8205C18.0756 36.8878 20.3428 38 20.4467 38C20.4773 38 20.5934 38.0428 20.7156 38.0978C20.8439 38.1528 21.0334 38.2322 21.1434 38.2811C21.2534 38.33 21.3939 38.3667 21.4489 38.3667C21.51 38.3667 21.6078 38.4033 21.675 38.4461C21.8767 38.5805 22.3228 38.6905 22.39 38.6233C22.5123 38.5011 22.28 37.4805 22.0906 37.2789C22.0478 37.2361 22.0111 37.1628 22.0111 37.1261C22.0111 36.9917 21.4184 36.5028 21.0273 36.3133C20.5078 36.0628 20.19 35.9222 20.1106 35.9222C20.0556 35.9222 19.9089 35.8611 19.3528 35.6167C19.2856 35.5861 19.1695 35.5433 19.0961 35.525C19.0167 35.5005 18.9556 35.4578 18.9556 35.4272C18.9556 35.3967 18.9128 35.3722 18.8578 35.3722C18.8028 35.3722 18.6867 35.3355 18.6011 35.2928C17.8556 34.92 16.9389 34.4311 16.5417 34.1928C16.34 34.0705 16.1017 33.9361 16.01 33.8994C15.9123 33.8628 15.8389 33.8078 15.8389 33.7772C15.8389 33.7467 15.8023 33.7222 15.7534 33.7222C15.7045 33.7222 15.5089 33.6061 15.3134 33.4594C15.1117 33.3189 14.7878 33.0928 14.5861 32.9583C14.3845 32.8239 14.1889 32.6833 14.1523 32.6528C14.1156 32.6161 14.0178 32.5489 13.9445 32.5C13.8223 32.4205 13.6084 32.2617 13.425 32.1211C13.3945 32.0905 13.2661 31.9867 13.15 31.8889C13.0339 31.7911 12.9178 31.7055 12.8995 31.7055C12.8811 31.7055 12.7956 31.6444 12.7161 31.5772C12.3617 31.2655 11.8667 30.9233 11.8667 30.9905Z" fill="white"/>
<path d="M54.8585 31.0333C54.8279 31.07 54.4979 31.3205 54.1251 31.5955C53.7585 31.8705 53.4162 32.1333 53.3674 32.1822C53.3185 32.225 53.2085 32.3105 53.1229 32.3655C53.0374 32.4205 52.9396 32.4878 52.9029 32.5183C52.4079 32.8972 51.4851 33.5389 51.4301 33.5389C51.4118 33.5389 51.3079 33.6061 51.204 33.6855C51.094 33.7711 50.9412 33.8628 50.8557 33.8994C50.7701 33.9361 50.6601 33.9911 50.6112 34.0278C50.324 34.2172 49.664 34.59 49.3829 34.7305C49.1996 34.8161 48.9429 34.9567 48.8085 35.0361C48.674 35.1155 48.5212 35.1828 48.4662 35.1889C48.4112 35.1889 48.3318 35.2317 48.289 35.2805C48.2462 35.3294 48.1485 35.3722 48.069 35.3722C47.9896 35.3722 47.9224 35.3967 47.9224 35.4272C47.9224 35.4578 47.8612 35.5067 47.7879 35.525C47.6596 35.5617 47.3907 35.6717 47.0974 35.8C46.9079 35.8855 46.4435 36.0505 46.2724 36.0872C46.034 36.1483 45.2762 36.6311 45.0807 36.8572C44.879 37.0833 44.7629 37.2483 44.7079 37.3889C44.6896 37.4378 44.6346 37.5661 44.5918 37.6761C44.4879 37.9144 44.4024 38.6722 44.4757 38.6722C44.5979 38.6661 45.0868 38.5133 45.2151 38.44C45.2885 38.4033 45.3862 38.3667 45.4351 38.3667C45.484 38.3667 45.6062 38.3239 45.6979 38.275C45.7957 38.2261 45.9179 38.1833 45.9668 38.1833C46.0157 38.1833 46.1135 38.1405 46.1746 38.0917C46.2418 38.0428 46.3335 38 46.3885 38C46.6696 38 49.5174 36.515 50.3546 35.9283C50.4462 35.8672 50.6724 35.7144 50.8557 35.5983C51.039 35.4761 51.2468 35.3294 51.314 35.2683C51.3874 35.2072 51.534 35.0911 51.6501 35.0055C52.3285 34.5289 53.8685 32.9522 54.2901 32.3105C54.669 31.7239 54.889 31.3144 54.889 31.1861C54.889 31.1372 54.9196 31.0944 54.9501 31.0944C54.9868 31.0944 55.0112 31.0639 55.0112 31.0333C55.0112 30.96 54.9379 30.96 54.8585 31.0333Z" fill="white"/>
<path d="M12.325 36.6433C13.2722 37.5417 14.7144 38.6233 15.5333 39.045C15.6861 39.1244 15.8389 39.2222 15.8816 39.2589C15.9489 39.3261 17.5072 40.1022 17.9777 40.3039C18.0939 40.3528 18.2772 40.4322 18.375 40.4811C18.4789 40.5239 18.6316 40.5789 18.7294 40.6033C18.8211 40.6217 18.9127 40.6644 18.9311 40.695C18.9494 40.7256 19.0105 40.75 19.0655 40.75C19.1205 40.75 19.2489 40.7928 19.3466 40.8417C19.4383 40.8906 19.5605 40.9333 19.6094 40.9333C19.6583 40.9333 19.7866 40.97 19.8905 41.0128C20.1655 41.1289 20.6972 41.3 20.7827 41.3C20.8989 41.3 21.4 41.5444 21.7361 41.7583C22.1577 42.0272 22.555 42.4428 22.9522 43.0356C23.3189 43.5733 23.2883 43.5367 24.1866 44.6183C25.2011 45.8406 26.4905 47.0872 27.7555 48.0894C27.9389 48.2361 28.1283 48.3889 28.1711 48.4317C28.2139 48.4744 28.2627 48.5111 28.2811 48.5111C28.3544 48.5111 28.275 48.3644 27.9877 47.9917C27.8105 47.7656 27.5905 47.4661 27.4927 47.3378C27.4011 47.2033 27.2544 47.0261 27.175 46.9344C27.0894 46.8428 27.0222 46.7511 27.0222 46.7328C27.0222 46.7144 26.9672 46.6289 26.9 46.5494C26.8327 46.47 26.7594 46.3722 26.7289 46.3417C26.57 46.14 25.5677 44.7894 25.4822 44.655C25.4272 44.5694 25.3416 44.4594 25.2989 44.4106C25.14 44.2394 24.7611 43.7506 24.7611 43.7139C24.7611 43.6956 24.6939 43.6039 24.6083 43.5122C24.4311 43.3289 24.0277 42.5406 24.0277 42.3878C24.0277 42.3328 23.9911 42.2106 23.9422 42.1128C23.8994 42.0211 23.8077 41.8317 23.7466 41.6972C23.6061 41.4039 23.5877 41.3794 23.2333 40.9822C22.555 40.2183 21.8522 39.8578 19.9333 39.2894C19.6827 39.2161 19.4261 39.1244 19.3711 39.0939C19.31 39.0633 19.2122 39.0389 19.1572 39.0389C19.0961 39.0389 18.9677 38.9961 18.87 38.9472C18.7783 38.8983 18.65 38.8556 18.595 38.8556C18.5339 38.8556 18.4361 38.8128 18.3689 38.7639C18.3077 38.715 18.1977 38.6722 18.1305 38.6722C18.0633 38.6722 17.935 38.6356 17.8433 38.5867C17.7516 38.5378 17.5989 38.4828 17.495 38.4583C17.3911 38.4339 17.2933 38.3911 17.275 38.3606C17.2505 38.33 17.1955 38.3056 17.1405 38.3056C17.0916 38.3056 16.9633 38.2689 16.8594 38.22C16.1566 37.9206 15.7533 37.7556 15.7044 37.7556C15.6433 37.7556 15.1483 37.5478 14.9711 37.45C14.91 37.4133 14.8183 37.3889 14.7633 37.3889C14.7083 37.3889 14.5922 37.3461 14.5066 37.2972C14.415 37.2483 13.9872 37.0711 13.5472 36.9C13.1133 36.7289 12.6672 36.5517 12.5572 36.5028C12.4533 36.4539 12.325 36.4111 12.2761 36.4111C12.2211 36.4111 12.16 36.3806 12.1416 36.35C12.1233 36.3133 12.0683 36.2889 12.0316 36.2889C11.9889 36.2889 12.1233 36.4478 12.325 36.6433Z" fill="white"/>
<path d="M54.6445 36.3622C54.5589 36.3989 54.4122 36.4722 54.3083 36.515C54.2106 36.5639 53.9661 36.6617 53.7645 36.7289C53.5689 36.7961 53.3367 36.8939 53.245 36.9367C53.1595 36.9855 53.0495 37.0222 53.0067 37.0222C52.9639 37.0222 52.8845 37.0467 52.8233 37.0772C52.6767 37.1567 52.2183 37.3583 51.9128 37.4744C51.0756 37.7922 51.0389 37.8044 50.5989 37.9939C50.44 38.0672 50.2689 38.1222 50.22 38.1222C50.1711 38.1222 50.055 38.1589 49.9572 38.2078C49.6517 38.3667 49.34 38.4889 49.2545 38.4889C49.2056 38.4889 49.1445 38.5133 49.1139 38.5439C49.0772 38.5744 48.955 38.6294 48.8389 38.66C48.57 38.7394 48.2583 38.8494 48.0017 38.9594C47.8978 39.0022 47.7695 39.0389 47.7206 39.0389C47.6717 39.0389 47.5495 39.0817 47.4578 39.1305C47.36 39.1794 47.2195 39.2222 47.1522 39.2222C47.0789 39.2222 46.9383 39.265 46.8467 39.3139C46.7489 39.3628 46.6083 39.4055 46.5411 39.4055C46.4678 39.4055 46.3272 39.4483 46.2356 39.4972C46.1378 39.5461 45.9972 39.5889 45.9239 39.5889C45.8506 39.5889 45.7772 39.6133 45.7589 39.6439C45.7406 39.6744 45.6489 39.7172 45.5633 39.7355C45.27 39.815 44.5978 40.1633 44.2556 40.42C43.9439 40.6522 43.7178 40.8783 43.3695 41.3061C43.2106 41.4955 42.85 42.2472 42.85 42.3817C42.85 42.5283 42.4467 43.3228 42.2817 43.5061C42.2022 43.5855 42.0861 43.7505 42.0128 43.8667C41.9395 43.9828 41.8172 44.1478 41.7378 44.2333C41.6583 44.3189 41.5239 44.4961 41.4261 44.6367C41.3345 44.7711 41.2122 44.9361 41.1511 45.0033C41.0961 45.0644 40.9739 45.2294 40.8822 45.3639C40.7906 45.4983 40.6439 45.6878 40.5583 45.7855C40.4728 45.8833 40.4056 45.9811 40.4056 45.9994C40.4056 46.0178 40.3383 46.1094 40.265 46.1889C40.1856 46.2744 40.0145 46.4944 39.8861 46.6778C39.7578 46.8611 39.6356 47.0261 39.6111 47.0444C39.5622 47.0872 38.6822 48.2483 38.6028 48.3767C38.5722 48.4317 38.5172 48.4989 38.4806 48.5233C38.45 48.5478 38.4378 48.5783 38.4561 48.5967C38.4745 48.615 38.5539 48.5661 38.6333 48.4928C38.7189 48.4133 38.9389 48.2361 39.1222 48.0894C39.3056 47.9428 39.66 47.6433 39.9045 47.4294C40.1489 47.2094 40.4239 46.9711 40.5156 46.8978C40.9922 46.5189 42.8072 44.5694 43.2167 43.9889C43.3022 43.8728 43.4306 43.7078 43.51 43.6222C43.5833 43.5428 43.6445 43.4511 43.6445 43.4328C43.6445 43.4083 43.7422 43.2678 43.8583 43.1211C44.1272 42.7911 44.1456 42.7728 44.2678 42.5711C44.4267 42.3267 44.7995 41.9783 45.1417 41.7583C45.4717 41.5444 45.9972 41.3 46.1195 41.3C46.1622 41.3 46.2783 41.2572 46.37 41.2083C46.4678 41.1594 46.59 41.1167 46.6389 41.1167C46.6878 41.1167 46.9261 41.0433 47.1583 40.9578C47.3967 40.8722 47.6411 40.7867 47.7083 40.7683C47.7756 40.7561 47.8856 40.7133 47.9528 40.6889C48.02 40.6583 48.2278 40.5728 48.4111 40.4994C48.5945 40.4322 48.8328 40.3344 48.9306 40.2917C49.0345 40.2428 49.2239 40.1633 49.3583 40.1083C49.4928 40.0533 49.6517 39.9861 49.7128 39.9494C49.7739 39.9189 50.0611 39.7661 50.3545 39.6133C50.935 39.3078 51.7967 38.8005 52.145 38.5561C52.2672 38.4644 52.4322 38.3544 52.5056 38.3055C52.8233 38.0978 53.7156 37.4072 53.9661 37.175C54.9439 36.2828 55.0111 36.2033 54.6445 36.3622Z" fill="white"/>
</svg>
