<svg width="66" height="66" viewBox="0 0 66 66" fill="none" xmlns="http://www.w3.org/2000/svg">
<circle cx="33" cy="33" r="33" fill="#350079"/>
<path d="M38.4499 18.2C38.4499 18.2428 38.5599 18.5117 38.7004 18.805C39.0243 19.4956 39.0854 19.6361 39.2382 20.0333C39.3116 20.2167 39.3971 20.4245 39.4277 20.4917C39.4521 20.5589 39.4949 20.6689 39.5132 20.7361C39.5316 20.8033 39.5988 21.0233 39.6721 21.225C39.8432 21.7017 39.9716 22.1417 40.0327 22.4472C40.0632 22.5817 40.1121 22.8139 40.1488 22.9667C40.5093 24.4395 40.601 26.0222 40.436 27.6111C40.3199 28.6745 40.2466 29.0472 39.9349 30.0861C39.8493 30.3795 39.8066 30.5078 39.5743 31.1067C39.4704 31.3756 38.7432 32.8667 38.6149 33.0745C38.4132 33.3983 37.6127 34.5778 37.4293 34.8222C36.6654 35.8183 35.2354 37.2483 34.2027 38.0428C33.9032 38.2689 33.1882 38.7578 33.0721 38.8128C33.0232 38.8372 32.901 38.9106 32.7971 38.9778C32.6993 39.0389 32.4793 39.1672 32.3082 39.2528C32.1432 39.3383 31.9599 39.4361 31.911 39.4667C31.7338 39.5706 30.9943 39.8945 30.9271 39.8945C30.8904 39.8945 30.7866 39.9311 30.701 39.98C30.426 40.1145 29.6988 40.3528 29.2527 40.4383C29.1182 40.4689 28.886 40.5178 28.7332 40.5545C27.951 40.7439 27.2421 40.8111 25.916 40.8111C24.5654 40.8111 23.8749 40.75 22.8666 40.5361C22.6466 40.4872 22.3899 40.4383 22.286 40.42C22.0538 40.3833 21.4671 40.2306 21.0332 40.1022C20.8499 40.0472 20.5749 39.9678 20.4221 39.925C20.2693 39.8761 19.9943 39.7845 19.811 39.7111C19.6277 39.6378 19.4321 39.5767 19.3832 39.5706C19.1754 39.5461 19.371 39.9006 20.0616 40.8111C20.7338 41.7033 21.2899 42.3022 22.1027 43.005C23.4777 44.1967 24.5471 44.8872 26.2277 45.6511C26.9977 46.0056 27.9082 46.3233 28.611 46.4883C29.0449 46.5922 29.381 46.6717 29.6804 46.7389C29.9738 46.8061 30.3404 46.8489 31.7582 46.9895C32.8399 47.0933 34.9116 46.8978 36.1277 46.5739C37.0077 46.3478 38.1199 45.9872 38.4377 45.8283C38.4927 45.8039 38.6393 45.7367 38.7554 45.6878C39.0671 45.5533 39.8004 45.1806 40.0449 45.0339C40.161 44.9667 40.3077 44.8811 40.3749 44.8506C40.4421 44.82 40.601 44.7222 40.7293 44.6367C40.8577 44.5511 40.9738 44.4778 40.9921 44.4778C41.0104 44.4778 41.3588 44.2272 41.7621 43.9156C43.1004 42.9072 44.5854 41.3122 45.3249 40.09C45.3799 39.9983 45.5327 39.7478 45.7649 39.375C45.8566 39.2222 46.4432 38.0367 46.5471 37.7861C46.6204 37.615 46.706 37.4011 46.9077 36.8511C46.9566 36.7289 47.036 36.4722 47.0849 36.2889C47.1399 36.1056 47.2254 35.8061 47.2743 35.6228C47.3293 35.4456 47.3721 35.25 47.3721 35.195C47.3721 35.14 47.4088 34.92 47.4577 34.7C47.8549 32.9278 47.7754 30.3122 47.2804 28.4972C46.9199 27.1711 46.6877 26.5478 46.0827 25.3195C45.2332 23.5839 44.2127 22.1295 43.0271 20.9561C42.3366 20.2778 41.2366 19.3611 41.1082 19.3611C41.0838 19.3611 40.9799 19.2939 40.876 19.2145C40.7171 19.0983 40.2771 18.86 39.6599 18.5545C39.5071 18.4811 39.061 18.3222 38.8471 18.2611C38.7493 18.2367 38.6149 18.1939 38.5599 18.1695C38.4866 18.1389 38.4499 18.1511 38.4499 18.2Z" fill="white"/>
</svg>
