<svg width="66" height="66" viewBox="0 0 66 66" fill="none" xmlns="http://www.w3.org/2000/svg">
<circle cx="33" cy="33" r="33" fill="#B7295B"/>
<path d="M32.2839 14.4661C32.1862 14.5272 32.2412 14.9306 32.4673 15.7556C32.4978 15.8717 32.5528 16.4033 32.5895 16.9411C32.6567 17.9678 32.5834 20.0578 32.4612 20.4611C32.4306 20.5772 32.4001 20.7789 32.4001 20.9133C32.4001 21.0417 32.3634 21.3289 32.3145 21.555C32.2106 22.0133 32.1189 22.5267 32.0334 23.0583C31.9967 23.26 31.9478 23.48 31.9173 23.5472C31.8684 23.6633 31.8134 23.865 31.6606 24.4639C31.6239 24.5922 31.5751 24.7328 31.5506 24.7694C31.5201 24.8 31.4773 24.9406 31.4528 25.075C31.4284 25.2094 31.3795 25.3561 31.3428 25.405C31.2328 25.5333 31.2695 26.7433 31.3856 26.9694C31.4406 27.0672 31.4834 27.1956 31.4834 27.2506C31.4834 27.3056 31.5262 27.385 31.5751 27.4278C31.6239 27.4706 31.6667 27.5378 31.6667 27.5744C31.6667 27.7211 32.5467 28.4667 32.7178 28.4667C32.7667 28.4667 32.8706 28.5156 32.9501 28.5706C33.0723 28.6622 33.2373 28.6806 33.8056 28.6806C34.4656 28.6806 34.5328 28.6683 34.8751 28.4972C35.2478 28.3139 36.1278 27.5072 36.1278 27.3544C36.1278 27.3117 36.1767 27.1894 36.2317 27.0917C36.3173 26.945 36.3356 26.7556 36.3356 26.175C36.3356 25.7044 36.3112 25.3928 36.2623 25.3011C36.1828 25.1606 36.1278 24.7083 35.9689 22.875C35.8406 21.3717 35.6634 20.1494 35.4801 19.52C35.4312 19.3611 35.3945 19.1594 35.3945 19.08C35.3945 19.0067 35.3701 18.9272 35.3395 18.9028C35.3089 18.8844 35.2662 18.7806 35.2417 18.6706C35.1867 18.4261 35.0339 17.9189 34.9301 17.6806C34.8873 17.5767 34.8078 17.3872 34.7528 17.2528C34.5756 16.8311 34.2701 16.2383 34.1906 16.1711C34.1478 16.1344 34.1112 16.0794 34.1112 16.0489C34.1112 15.9511 33.5978 15.3217 33.2434 14.9856C32.6628 14.4294 32.4917 14.3378 32.2839 14.4661Z" fill="white"/>
<path d="M27.0224 17.3689C26.9063 17.4056 26.7474 17.4728 26.6741 17.5156C26.6007 17.5522 26.4969 17.5889 26.448 17.5889C26.393 17.5889 26.3502 17.6133 26.3502 17.6378C26.3502 17.6683 26.2402 17.7356 26.1057 17.7967C25.9713 17.8578 25.8246 17.9372 25.7819 17.9739C25.7452 18.0167 25.5985 18.1206 25.4641 18.2122C24.5657 18.8233 23.4902 20.2411 22.9585 21.5306C22.9035 21.665 22.8241 21.8606 22.7813 21.9583C22.7324 22.0622 22.6774 22.2394 22.653 22.3556C22.6285 22.4717 22.5919 22.5939 22.5674 22.6306C22.4941 22.7467 22.378 23.4922 22.3107 24.2256C22.2007 25.4844 22.4391 27.5744 22.7935 28.4239C22.8363 28.5217 22.8669 28.6378 22.8669 28.6867C22.8669 28.7356 22.8913 28.8211 22.9219 28.8822C22.9585 28.9372 23.093 29.2183 23.2274 29.5056C23.5269 30.135 23.6613 30.3611 23.9546 30.7217C24.4924 31.3878 24.9141 31.7606 25.4213 32.0233C25.7696 32.2006 26.558 32.1761 26.9796 31.9806C27.3707 31.7911 27.7557 31.4367 28.0246 31.0089C28.5074 30.245 28.7213 29.035 28.5196 28.1611C28.3241 27.33 28.0735 26.9389 27.3585 26.3583C27.1874 26.2239 27.0102 26.0711 26.9552 26.0222C26.9063 25.9733 26.6496 25.735 26.3869 25.5028C25.898 25.0628 25.4152 24.415 25.3357 24.0972C25.3113 23.9933 25.2624 23.8772 25.2257 23.8283C25.128 23.7 25.1341 21.8483 25.238 21.5C25.2807 21.3472 25.3602 21.0722 25.4152 20.8889C25.5252 20.51 25.5985 20.3267 25.9102 19.6667C26.0263 19.4161 26.1485 19.1961 26.173 19.19C26.2035 19.1778 26.228 19.135 26.228 19.0983C26.228 19.0617 26.4296 18.7317 26.6802 18.3589C26.9246 17.9861 27.1569 17.5889 27.1935 17.4789C27.2302 17.375 27.2546 17.2833 27.2485 17.2894C27.2424 17.2956 27.1385 17.3261 27.0224 17.3689Z" fill="white"/>
<path d="M40.8152 18.4261C40.9435 18.5911 41.078 18.75 41.1085 18.7928C41.2674 18.9883 41.3102 19.0433 41.4874 19.3367C41.5913 19.5017 41.6952 19.7095 41.7197 19.795C41.7441 19.8745 41.8052 19.9967 41.848 20.0639C41.8969 20.1311 41.9335 20.2411 41.9335 20.3083C41.9335 20.3817 41.958 20.4611 41.9947 20.4978C42.0252 20.5283 42.0802 20.6872 42.1169 20.8461C42.1474 21.005 42.2085 21.2617 42.2452 21.4206C42.2819 21.5856 42.3124 22.2089 42.3185 22.8139L42.3308 23.9139L42.0863 24.36C41.8113 24.8672 41.5119 25.1972 40.7235 25.8633C40.2224 26.285 39.4402 27.0306 39.2691 27.2506C39.1835 27.3667 39.0308 27.6539 38.8963 27.9472C38.7435 28.2895 38.7435 29.8661 38.8963 30.1472C38.9513 30.245 39.0002 30.3733 39.0002 30.4283C39.0002 30.5628 39.3424 31.1922 39.5685 31.4856C39.6724 31.6139 39.9108 31.8217 40.0941 31.9439C40.4302 32.1578 40.4485 32.1578 41.078 32.1639H41.7197L42.068 31.9317C42.4408 31.6811 42.7524 31.3511 43.1985 30.7278C43.498 30.3122 43.9685 29.4139 44.0419 29.1206C44.0663 29.0289 44.1091 28.9372 44.1397 28.9189C44.1702 28.9006 44.1947 28.8333 44.1947 28.76C44.1947 28.6928 44.2313 28.5522 44.2802 28.4483C44.5063 27.9533 44.708 26.5722 44.708 25.5639C44.708 24.5372 44.5002 23.1378 44.268 22.5817C44.2252 22.4839 44.1947 22.3617 44.1947 22.3006C44.1947 22.2456 44.1702 22.1722 44.1458 22.1356C44.1152 22.105 44.0297 21.9033 43.9502 21.6833C43.8708 21.4633 43.7302 21.1578 43.6324 21.005C43.5408 20.8522 43.4613 20.7056 43.4613 20.6872C43.4613 20.6506 42.9724 19.9233 42.8319 19.7461C42.6974 19.5811 41.903 18.7806 41.7502 18.6583C41.5302 18.4872 40.8274 18.1389 40.693 18.1389C40.6013 18.1389 40.6258 18.1939 40.8152 18.4261Z" fill="white"/>
<path d="M18.589 24.3539C18.5401 24.3722 18.4851 24.4089 18.4668 24.4333C18.4484 24.4517 18.3262 24.5372 18.1918 24.6167C17.8679 24.8122 17.4768 25.185 17.2629 25.4967C17.1712 25.6311 17.0795 25.7594 17.0612 25.7778C17.0429 25.7961 16.9818 25.9061 16.9207 26.0222C16.8534 26.1383 16.7679 26.3033 16.719 26.3889C16.6518 26.5233 16.4929 26.8778 16.334 27.275C16.0407 28.0022 15.9307 28.705 15.9368 29.8722C15.9368 31.0639 16.0834 31.9928 16.3645 32.665C16.4134 32.7689 16.4501 32.8972 16.4501 32.9461C16.4501 33.0011 16.499 33.1294 16.554 33.2456C16.609 33.3556 16.6884 33.5206 16.7373 33.6122C16.7801 33.6978 16.8168 33.8017 16.8168 33.8322C16.8168 33.9544 17.434 34.9322 17.7701 35.3356C18.149 35.8 18.864 36.3867 19.2979 36.6006C19.689 36.79 20.4712 36.8022 20.7584 36.625C21.1984 36.3439 21.4734 35.9467 21.7362 35.2256C21.8584 34.8833 21.8829 33.5694 21.7729 33.4594C21.7362 33.4228 21.7057 33.3556 21.7057 33.3067C21.7057 33.1111 21.4123 32.6344 21.0823 32.2861C20.8684 32.0539 20.569 31.8278 20.2879 31.6811C20.0434 31.5467 19.8295 31.4244 19.8112 31.4061C19.7929 31.3878 19.6584 31.2839 19.5057 31.1861C18.9618 30.8194 18.1612 29.8478 18.1612 29.5544C18.1612 29.5056 18.1307 29.4383 18.094 29.4017C17.9962 29.3039 17.8984 28.6744 17.8984 28.0694C17.8923 27.5194 18.0084 26.6578 18.1001 26.5417C18.1245 26.505 18.1673 26.3522 18.1857 26.1933C18.2101 26.0344 18.2529 25.8878 18.2895 25.8694C18.3201 25.845 18.3445 25.7717 18.3445 25.6983C18.3445 25.625 18.3873 25.4844 18.4362 25.3867C18.4851 25.295 18.5279 25.185 18.5279 25.1422C18.5279 25.1056 18.5707 24.9956 18.6195 24.9039C18.7295 24.69 18.8029 24.3111 18.7357 24.3172C18.7051 24.3172 18.6379 24.3356 18.589 24.3539Z" fill="white"/>
<path d="M48.3501 24.9589C48.3501 25.02 48.5456 25.6006 48.6373 25.8206C48.6801 25.9244 48.7167 26.0772 48.7167 26.1567C48.7167 26.2361 48.7412 26.3278 48.7778 26.3644C48.8084 26.395 48.8634 26.5906 48.894 26.7861C48.9306 26.9878 48.9856 27.3056 49.0223 27.4889C49.114 27.9289 49.0773 29.475 48.9734 29.5789C48.9367 29.6156 48.9001 29.7072 48.9001 29.7806C48.9001 29.9944 48.3256 30.8011 47.9773 31.0761C47.794 31.2228 47.6167 31.3633 47.5801 31.3939C47.5434 31.4244 47.2134 31.5956 46.8467 31.7667C45.8323 32.2494 45.814 32.2617 45.5878 32.4633C45.3006 32.72 45.0928 33.0194 44.9523 33.3861C44.8545 33.6428 44.8362 33.8506 44.8362 34.6389C44.8362 35.4822 44.8545 35.6167 44.9706 35.8611C45.154 36.24 45.4045 36.4967 45.8078 36.7167C46.0951 36.8694 46.2234 36.9 46.5778 36.9C46.8101 36.9 47.0117 36.8756 47.0301 36.845C47.0484 36.8144 47.134 36.7717 47.2134 36.7533C47.6595 36.6433 48.7962 35.7206 49.3645 35.0056C49.5356 34.7856 50.0062 33.985 50.1712 33.6306C50.2506 33.4594 50.3362 33.2761 50.3728 33.2211C50.4034 33.16 50.4278 33.0806 50.4278 33.0439C50.4278 33.0072 50.4645 32.8911 50.5073 32.7872C50.8251 32.0539 50.9473 31.29 50.9412 30.0556C50.9412 28.9922 50.874 28.4056 50.6967 27.9961C50.6478 27.8922 50.6112 27.7761 50.6112 27.7394C50.6112 27.5622 50.1101 26.5722 49.8228 26.1811C49.4073 25.625 48.3501 24.745 48.3501 24.9589Z" fill="white"/>
<path d="M32.7056 31.0272C32.6568 31.0578 32.4856 31.1067 32.3206 31.125C32.1556 31.1494 31.9479 31.2044 31.8623 31.2533C31.7706 31.3022 31.6545 31.3389 31.6056 31.3389C31.514 31.3389 30.4201 31.8767 30.1084 32.0783C30.0106 32.1394 29.8823 32.2128 29.8334 32.2372C29.4973 32.39 28.6784 33.0928 27.7862 33.9911C26.6068 35.1767 26.2034 35.5494 25.5556 36.0383C25.0118 36.4478 24.2968 36.9306 24.0829 37.0222C23.9301 37.0833 23.8873 37.1139 23.429 37.4011C23.2823 37.4989 23.154 37.5722 23.1356 37.5722C23.1173 37.5722 23.0745 37.6028 23.0318 37.6333C22.989 37.67 22.7812 37.8289 22.5612 37.9939C22.0906 38.3422 21.3206 39.1367 21.064 39.5278C20.8318 39.8883 20.4834 40.5728 20.4834 40.6767C20.4834 40.7256 20.4468 40.8478 20.3979 40.9517C20.2268 41.3489 20.1534 41.9111 20.129 43.0111C20.1045 44.215 20.184 44.8933 20.4284 45.6939C20.7829 46.8428 21.4368 47.6678 22.3229 48.0956C23.0195 48.4317 23.2395 48.4744 24.4312 48.4683C25.134 48.4683 25.6045 48.4439 25.7145 48.4011C25.8123 48.3583 26.0995 48.3033 26.3501 48.2667C26.8879 48.1994 28.0429 47.9611 28.4584 47.8389C28.5623 47.8022 28.8068 47.7533 29.0084 47.7228C29.5645 47.6372 30.139 47.5333 30.4384 47.4661C31.569 47.2094 34.5756 47.2094 35.4006 47.46C35.6023 47.5211 35.7551 47.5578 36.739 47.7533C37.7412 47.9489 38.1934 48.0283 38.664 48.0833C38.9329 48.1139 39.2934 48.175 39.4584 48.2178C39.8556 48.3094 42.0679 48.3217 42.184 48.2239C42.2329 48.1872 42.3673 48.1383 42.4834 48.1139C42.5995 48.0894 42.734 48.0467 42.789 48.0161C42.8379 47.9917 43.0151 47.9061 43.1862 47.8267C43.6445 47.6128 44.2984 46.9222 44.5673 46.3722C44.9034 45.6817 44.9768 45.4189 45.1601 44.2944C45.3862 42.9072 45.2273 40.8111 44.8301 39.9128C44.7812 39.8089 44.7445 39.705 44.7445 39.6744C44.7445 39.595 44.3595 38.8311 44.274 38.7456C44.2312 38.7028 44.1945 38.6356 44.1945 38.605C44.1945 38.4339 43.2901 37.4194 42.7584 36.9917C42.5873 36.8633 42.4406 36.735 42.4223 36.7167C42.3673 36.6433 41.1573 35.9344 41.0229 35.8917C40.9556 35.8733 40.8945 35.8244 40.8945 35.7939C40.8945 35.7633 40.864 35.7389 40.8273 35.7389C40.7601 35.7389 40.0329 35.3233 39.9779 35.25C39.9595 35.2256 39.9045 35.195 39.8556 35.1706C39.4523 34.9872 38.1751 33.9239 37.1668 32.9278C36.3356 32.1028 36.1768 31.9683 35.8529 31.7667C35.7184 31.6872 35.5962 31.6078 35.5779 31.5894C35.5412 31.5467 35.2356 31.4 34.9056 31.2533C34.7895 31.2044 34.5573 31.1311 34.3862 31.0883C34.0012 30.9967 32.8279 30.9539 32.7056 31.0272Z" fill="white"/>
</svg>
