<svg width="66" height="66" viewBox="0 0 66 66" fill="none" xmlns="http://www.w3.org/2000/svg">
<circle cx="33" cy="33" r="33" fill="#0DC2E7"/>
<path d="M33.5427 12.1539C33.5182 12.1722 33.4999 12.2517 33.4999 12.3189C33.4999 12.3922 33.4632 12.5022 33.4144 12.5695C33.3716 12.6367 33.3166 12.7589 33.2982 12.8445C33.2555 13.0522 33.1332 13.3884 33.0355 13.59C32.9866 13.6756 32.9499 13.8039 32.9499 13.865C32.9499 13.9322 32.9071 14.0361 32.8582 14.1034C32.8094 14.1645 32.7666 14.2745 32.7666 14.3478C32.7666 14.415 32.7238 14.525 32.6749 14.5922C32.626 14.6534 32.5832 14.7634 32.5832 14.8367C32.5832 14.9039 32.5405 15.0139 32.4916 15.0811C32.4427 15.1422 32.3999 15.2522 32.3999 15.3256C32.3999 15.3928 32.3571 15.5028 32.3082 15.57C32.2594 15.6311 32.2166 15.735 32.2166 15.79C32.2166 15.845 32.1799 15.9672 32.131 16.065C32.0882 16.1567 32.0027 16.34 31.9477 16.4684C31.8988 16.5906 31.8132 16.7922 31.7644 16.9084C31.7094 17.0306 31.6299 17.22 31.581 17.3361C31.2938 18.0022 30.9394 18.7722 30.866 18.8945C30.8355 18.9434 30.7927 19.0289 30.7744 19.0778C30.756 19.1267 30.7132 19.2122 30.6827 19.2611C30.6521 19.31 30.6094 19.3956 30.591 19.4445C30.5727 19.4934 30.5299 19.5789 30.4994 19.6278C30.4688 19.6767 30.426 19.7622 30.4077 19.8111C30.3894 19.86 30.3466 19.9456 30.316 19.9945C30.2855 20.0434 30.2427 20.1289 30.2244 20.1778C30.206 20.2267 30.1694 20.3122 30.1388 20.3611C30.1082 20.41 30.0105 20.5872 29.9249 20.7584C29.8394 20.9234 29.7477 21.1067 29.7171 21.1556C29.6866 21.2045 29.6438 21.29 29.6255 21.3389C29.601 21.3878 29.5338 21.51 29.4666 21.6139C29.4055 21.7117 29.2771 21.9317 29.1916 22.1028C29.106 22.2678 28.9838 22.4878 28.9166 22.5917C28.8555 22.6895 28.7271 22.9095 28.6416 23.0806C28.556 23.2456 28.4338 23.4656 28.3666 23.5695C28.2994 23.6672 28.2199 23.8078 28.1832 23.875C28.1527 23.9422 28.0977 24.04 28.0671 24.0889C27.9327 24.3028 27.4682 25.1034 27.4316 25.1889C27.4071 25.2378 27.3338 25.36 27.2666 25.4639C27.2055 25.5617 27.0832 25.7817 26.9916 25.9528C26.8388 26.2461 26.7838 26.3561 26.6555 26.5761C26.6188 26.6372 26.576 26.7289 26.5577 26.7778C26.5394 26.8267 26.4844 26.9489 26.4355 27.0406C26.3927 27.1384 26.3499 27.2484 26.3499 27.2972C26.3499 27.34 26.3071 27.4072 26.2582 27.45C26.2094 27.4928 26.1666 27.5784 26.1666 27.6334C26.1666 27.6945 26.1299 27.8228 26.081 27.9206C25.9099 28.2567 25.7999 28.5561 25.7999 28.66C25.7999 28.7211 25.7632 28.8189 25.7144 28.8861C25.6716 28.9534 25.6166 29.0878 25.6044 29.1917C25.586 29.2895 25.5432 29.4545 25.5066 29.5584C25.4027 29.8578 25.3049 30.2672 25.2499 30.6278C25.2255 30.8111 25.1705 31.0434 25.1338 31.135C25.0971 31.2328 25.0666 31.4711 25.0666 31.6667C25.0666 31.8622 25.0238 32.2411 24.9749 32.5039C24.8466 33.1761 24.8466 35.8467 24.9749 36.2745C25.0238 36.4395 25.0666 36.6717 25.0666 36.7939C25.0727 36.9161 25.1094 37.0811 25.1582 37.1667C25.2071 37.2522 25.2499 37.3989 25.2499 37.5028C25.2499 37.6006 25.2927 37.7411 25.3416 37.8022C25.3905 37.8695 25.4332 37.9856 25.4332 38.0589C25.4332 38.1322 25.4699 38.2728 25.5188 38.3706C25.5677 38.4622 25.7388 38.8106 25.9038 39.1406C26.0627 39.4706 26.2277 39.77 26.2705 39.8067C26.3132 39.8434 26.3499 39.8922 26.3499 39.9228C26.3499 39.9839 26.851 40.7172 27.0649 40.9678C27.4927 41.4628 27.6271 41.5972 27.6577 41.5606C27.676 41.5484 27.6455 41.3956 27.5966 41.2306C27.5232 40.9984 27.4988 40.5889 27.4927 39.5195C27.4866 38.065 27.4805 38.0834 27.7677 37.2584C27.8044 37.1545 27.8471 37.0017 27.8594 36.91C27.8777 36.8184 27.9266 36.7084 27.9755 36.6717C28.0244 36.635 28.061 36.5372 28.061 36.4639C28.061 36.3906 28.1038 36.2928 28.1527 36.25C28.2016 36.2072 28.2444 36.14 28.2444 36.0911C28.2444 36.0484 28.3238 35.8772 28.4155 35.7184C28.5132 35.5595 28.6049 35.3822 28.6294 35.3334C28.7271 35.1256 29.3994 34.2639 29.7477 33.9034C30.1816 33.4572 31.1105 32.7239 31.4405 32.5772C31.6482 32.4856 31.8499 32.3634 31.9294 32.2839C31.966 32.2472 32.0577 32.2167 32.131 32.2167C32.2044 32.2167 32.296 32.1739 32.3388 32.125C32.3816 32.0761 32.4732 32.0334 32.5466 32.0334C32.6138 32.0334 32.7299 31.9906 32.791 31.9417C32.8582 31.8928 32.9805 31.85 33.0599 31.85C33.1394 31.85 33.2616 31.8195 33.3349 31.7767C33.4082 31.7339 33.6221 31.685 33.8055 31.6606C33.9888 31.6361 34.2638 31.5872 34.4166 31.5506C34.7588 31.4711 36.7205 31.4711 37.136 31.5506C37.3071 31.5811 37.6799 31.63 37.9732 31.6606C38.2605 31.6911 38.5538 31.7461 38.621 31.7828C38.6944 31.8195 38.841 31.85 38.951 31.85C39.061 31.8561 39.2199 31.8928 39.3055 31.9417C39.391 31.9906 39.5438 32.0272 39.6477 32.0334C39.7455 32.0334 39.886 32.0761 39.9532 32.125C40.0144 32.1739 40.1366 32.2167 40.2221 32.2167C40.3077 32.2167 40.4299 32.2595 40.491 32.3084C40.5582 32.3572 40.6744 32.4 40.7477 32.4C40.821 32.4 40.9127 32.4428 40.9555 32.4917C40.9982 32.5406 41.0655 32.5834 41.1082 32.5834C41.2366 32.5834 42.4894 33.2495 42.6666 33.4084C42.7216 33.4572 42.7888 33.5 42.8132 33.5C42.966 33.5 44.2494 34.5878 44.7994 35.1745C44.9216 35.3028 45.1049 35.4984 45.2088 35.6022C45.4594 35.8528 46.3332 37.02 46.3332 37.1056C46.3332 37.1361 46.3516 37.1667 46.3821 37.1667C46.4066 37.1667 46.4921 37.2889 46.5777 37.4417C46.6632 37.5945 46.7427 37.7167 46.7671 37.7167C46.8344 37.7167 46.7488 37.1484 46.6632 36.9711C46.6144 36.8795 46.5777 36.7267 46.5777 36.6289C46.5777 36.5372 46.5349 36.4028 46.486 36.3356C46.4371 36.2745 46.3944 36.1584 46.3944 36.085C46.3944 36.0117 46.3577 35.8772 46.3088 35.7795C46.266 35.6878 46.1805 35.5045 46.1255 35.3761C45.9055 34.8628 45.826 34.6856 45.771 34.6C45.7466 34.5511 45.7099 34.4717 45.6916 34.4289C45.6732 34.3922 45.6488 34.3189 45.6305 34.2761C45.6121 34.2395 45.5694 34.1478 45.5266 34.0806C45.4899 34.0134 45.4349 33.9156 45.4105 33.8667C44.8788 32.8645 44.6955 32.5222 44.5549 32.3084C44.4938 32.2045 44.4144 32.07 44.3777 32.0028C44.341 31.9356 44.2616 31.795 44.1944 31.6972C44.1271 31.5934 44.0477 31.4589 44.011 31.3917C43.9744 31.3245 43.8949 31.1839 43.8277 31.0861C43.7605 30.9822 43.6871 30.86 43.6627 30.8111C43.6444 30.7622 43.5527 30.6217 43.461 30.5056C43.3694 30.3895 43.2838 30.2611 43.2716 30.2306C43.2594 30.1939 43.0271 29.8456 42.7582 29.4484C42.4894 29.0511 42.2449 28.6784 42.2082 28.6234C42.1777 28.5684 42.0738 28.4217 41.9821 28.2995C41.8844 28.1772 41.811 28.0489 41.811 28.0122C41.811 27.9756 41.7927 27.9389 41.7682 27.9267C41.701 27.9022 41.4444 27.5295 41.4444 27.4561C41.4444 27.4256 41.4016 27.3889 41.3527 27.3645C41.3038 27.3461 41.261 27.3034 41.261 27.2606C41.261 27.2239 41.1816 27.0895 41.0777 26.9611C40.9799 26.8328 40.8944 26.7045 40.8944 26.6678C40.8944 26.6311 40.876 26.5945 40.8516 26.5822C40.7782 26.5517 40.5277 26.1789 40.5277 26.1056C40.5277 26.075 40.5032 26.0445 40.4788 26.0445C40.4482 26.0445 40.3932 25.9834 40.3505 25.9039C40.3138 25.8306 40.2282 25.6839 40.161 25.5861C40.0938 25.4822 40.0205 25.36 39.996 25.3111C39.9777 25.2622 39.941 25.2072 39.9227 25.1889C39.8677 25.14 39.611 24.7672 39.611 24.7367C39.611 24.7184 39.5316 24.5839 39.4277 24.4372C39.3299 24.2845 39.2444 24.1317 39.2444 24.095C39.2444 24.0584 39.2199 24.0278 39.1832 24.0278C39.1527 24.0278 39.1099 23.9606 39.0855 23.875C39.0671 23.7895 39.0305 23.7222 39.006 23.7222C38.9816 23.7222 38.8899 23.5756 38.7982 23.3984C38.7005 23.2272 38.5721 22.995 38.511 22.8972C38.4438 22.7934 38.3644 22.6589 38.3277 22.5917C38.291 22.5245 38.1688 22.3045 38.0527 22.1028C37.9427 21.9011 37.7349 21.5161 37.5944 21.2472C37.3194 20.7156 37.2582 20.5995 37.1666 20.4345C37.1299 20.3795 37.0871 20.2878 37.0688 20.2389C37.0505 20.19 37.0077 20.1045 36.9771 20.0556C36.9466 20.0067 36.9038 19.9211 36.8855 19.8722C36.8671 19.8234 36.8244 19.7378 36.7938 19.6889C36.7632 19.64 36.7205 19.5545 36.7021 19.5056C36.6838 19.4567 36.586 19.2489 36.4944 19.0472C36.1644 18.3445 35.8894 17.7395 35.6632 17.2139C35.6144 17.0978 35.5288 16.8961 35.4738 16.7739C35.1988 16.1384 35.0766 15.845 34.936 15.4722C34.8749 15.3195 34.7955 15.1239 34.7466 15.0322C34.6977 14.9467 34.661 14.8245 34.661 14.7572C34.661 14.6961 34.6182 14.5922 34.5694 14.5311C34.5205 14.4639 34.4777 14.3539 34.4777 14.2867C34.4777 14.2134 34.4349 14.1034 34.386 14.0422C34.3371 13.975 34.2944 13.865 34.2944 13.7978C34.2944 13.7245 34.2516 13.6145 34.2027 13.5534C34.1538 13.4861 34.111 13.3761 34.111 13.3089C34.111 13.2356 34.0682 13.1256 34.0194 13.0645C33.9705 12.9972 33.9277 12.8872 33.9277 12.82C33.9277 12.7467 33.8849 12.6367 33.836 12.5756C33.7871 12.5084 33.7444 12.38 33.7444 12.2822C33.7444 12.1234 33.6405 12.0561 33.5427 12.1539Z" fill="white"/>
<path d="M22.0783 33.5367C22.005 33.6528 21.95 33.7872 21.95 33.83C21.95 33.8789 21.9072 33.9461 21.8583 33.9889C21.8095 34.0317 21.7667 34.0928 21.7667 34.1356C21.7667 34.1967 21.5283 34.7283 21.3022 35.1683C21.2533 35.2661 21.2167 35.3883 21.2167 35.4433C21.2167 35.4983 21.1739 35.6022 21.125 35.6633C21.0761 35.7306 21.0333 35.8345 21.0333 35.8895C21.0333 35.9506 20.9967 36.0728 20.9478 36.1706C20.8378 36.3906 20.7278 36.7083 20.6667 36.9833C20.6422 37.0995 20.5872 37.2767 20.5567 37.3806C20.4528 37.6861 20.355 38.0956 20.3 38.45C20.2756 38.6333 20.2206 38.8656 20.1839 38.9572C20.1472 39.055 20.1167 39.2872 20.1167 39.4767C20.1167 39.6661 20.0739 40.0878 20.025 40.4056C19.9761 40.7233 19.9333 41.1939 19.9333 41.4445C19.9333 41.695 19.9761 42.1656 20.025 42.4833C20.0739 42.8011 20.1167 43.2228 20.1167 43.4122C20.1167 43.6017 20.1472 43.8339 20.1839 43.9317C20.2206 44.0233 20.2756 44.2556 20.3 44.4389C20.355 44.7995 20.4528 45.2089 20.5567 45.5083C20.5933 45.6061 20.6361 45.7711 20.6545 45.875C20.6667 45.9728 20.7217 46.1133 20.7645 46.1806C20.8133 46.2478 20.85 46.37 20.85 46.4556C20.85 46.5411 20.8928 46.6633 20.9417 46.7245C20.9906 46.7917 21.0333 46.8956 21.0333 46.9506C21.0333 47.0117 21.07 47.1339 21.1189 47.2317C21.1678 47.3233 21.2533 47.5128 21.3145 47.6472C21.3695 47.7817 21.4428 47.9345 21.4733 47.9833C21.4978 48.0322 21.5345 48.1117 21.5528 48.1483C21.5711 48.1911 21.5956 48.2645 21.6139 48.3011C21.6322 48.3439 21.6689 48.4233 21.6995 48.4722C21.73 48.5211 21.7728 48.6067 21.7911 48.6556C21.8156 48.7045 21.8828 48.8267 21.95 48.9306C22.0172 49.0283 22.0967 49.1689 22.1333 49.2361C22.2861 49.5172 22.7567 50.2322 22.9033 50.4033C22.9706 50.4767 23.105 50.6417 23.2028 50.77C23.7222 51.4361 25.3783 52.915 25.8611 53.135C25.91 53.1595 26.0383 53.2328 26.1361 53.3C26.24 53.3672 26.3745 53.4467 26.4417 53.4833C26.5089 53.52 26.6861 53.6178 26.8328 53.6972C26.9795 53.7828 27.1383 53.85 27.175 53.85C27.2178 53.85 27.285 53.8928 27.3278 53.9417C27.3706 53.9906 27.4683 54.0333 27.5417 54.0333C27.615 54.0333 27.7128 54.0761 27.7556 54.125C27.7983 54.1739 27.8839 54.2167 27.9511 54.2167C28.0183 54.2167 28.1467 54.2533 28.2322 54.3022C28.4461 54.4061 28.77 54.5222 29.0389 54.5833C29.155 54.6078 29.3383 54.6628 29.4361 54.6933C29.76 54.8033 30.1572 54.895 30.5483 54.95C30.7622 54.9806 30.9883 55.0356 31.0495 55.0722C31.1167 55.1028 31.3183 55.1333 31.5017 55.1333C31.6911 55.1333 32.0578 55.1761 32.3206 55.225C32.9622 55.3472 35.1378 55.3472 35.7 55.225C35.92 55.1761 36.2256 55.1395 36.3783 55.1333C36.5372 55.1333 36.7817 55.0906 36.9222 55.0417C37.0628 54.9928 37.2706 54.95 37.3745 54.95C37.4783 54.9439 37.6311 54.9072 37.7167 54.8583C37.8022 54.8095 37.955 54.7667 38.0528 54.7667C38.1567 54.7667 38.2911 54.7239 38.3522 54.675C38.4195 54.6261 38.5233 54.5833 38.5845 54.5833C38.6395 54.5833 38.7922 54.5406 38.9206 54.4856C39.0489 54.4306 39.2383 54.345 39.3361 54.3022C39.5867 54.1983 40.7722 53.6178 40.925 53.5261C40.9922 53.4833 41.145 53.3795 41.2672 53.2878C41.3895 53.19 41.5117 53.1167 41.5361 53.1167C41.5789 53.1167 42.1411 52.695 42.6972 52.2428C43.125 51.8945 44.115 50.8922 44.4695 50.4583C44.7383 50.1222 45.2089 49.4256 45.3006 49.2361C45.3311 49.1689 45.38 49.065 45.4167 49.0039C45.4472 48.9489 45.5083 48.8511 45.5389 48.79C45.5756 48.735 45.6183 48.6433 45.6367 48.5945C45.655 48.5456 45.7039 48.4172 45.7467 48.3195C45.8261 48.1361 45.9422 47.8367 46.0889 47.4333C46.1256 47.3172 46.1867 47.0911 46.2111 46.9322C46.2417 46.7672 46.2845 46.6083 46.3089 46.5717C46.3333 46.5289 46.3883 46.095 46.425 45.6061C46.4861 44.8911 46.4922 44.5367 46.4311 43.8278C46.3883 43.3389 46.3211 42.8622 46.2845 42.7706C46.2417 42.6728 46.2111 42.5078 46.2111 42.4039C46.2111 42.2939 46.1683 42.1533 46.1195 42.0922C46.0706 42.025 46.0278 41.8967 46.0278 41.8111C46.0278 41.7256 45.985 41.5972 45.9361 41.53C45.8872 41.4689 45.8445 41.365 45.8445 41.31C45.8445 41.255 45.8017 41.1328 45.7528 41.035C45.71 40.9433 45.6061 40.7417 45.5328 40.5889C44.9767 39.4278 44.3167 38.5111 43.3083 37.5028C42.6483 36.8367 42.1411 36.3722 42.0739 36.3722C42.0556 36.3722 41.9395 36.2928 41.8172 36.2011C41.695 36.1033 41.5545 36.0056 41.5056 35.9872C41.4567 35.9628 41.3345 35.8895 41.2306 35.8283C41.1328 35.7611 40.8395 35.6083 40.5889 35.4861C40.3383 35.3639 40.0511 35.2295 39.9595 35.1806C39.8617 35.1317 39.7456 35.0889 39.6906 35.0889C39.6417 35.0889 39.5256 35.0522 39.44 35.0033C39.2445 34.9056 38.8472 34.7956 38.4195 34.7222C38.2545 34.6978 38.0345 34.6367 37.9306 34.6C37.6678 34.49 35.0095 34.49 34.7528 34.6C34.655 34.6428 34.4595 34.6978 34.325 34.7222C33.775 34.8261 32.9133 35.2417 32.3939 35.645C32.2717 35.7428 32.1495 35.8222 32.1311 35.8222C32.0822 35.8222 31.3 36.635 31.3 36.69C31.3 36.7145 31.2633 36.7695 31.2267 36.8122C31.1228 36.9222 31.0067 37.1056 30.9395 37.2706C30.9028 37.3378 30.8478 37.4172 30.8172 37.4417C30.7806 37.46 30.75 37.5272 30.75 37.5883C30.75 37.6433 30.7195 37.7228 30.6767 37.7656C30.5911 37.8511 30.4506 38.2117 30.3895 38.5111C30.365 38.6272 30.3161 38.78 30.2795 38.8472C30.2428 38.9145 30.2 39.1345 30.1817 39.3361C30.1572 39.5378 30.1145 39.8861 30.0778 40.1122C30.035 40.3995 30.035 40.6561 30.0778 40.9372C30.1145 41.1695 30.1572 41.5056 30.1817 41.6889C30.2122 42.0006 30.4322 42.7767 30.4445 42.6361C30.4506 42.5995 30.4506 42.3795 30.4445 42.1411C30.4383 41.8661 30.475 41.6156 30.53 41.475C30.585 41.3467 30.6278 41.1817 30.6278 41.1083C30.6278 41.035 30.6706 40.9372 30.7195 40.8945C30.7683 40.8517 30.8111 40.7722 30.8111 40.7111C30.8111 40.65 30.8539 40.5706 30.9028 40.5278C30.9517 40.485 30.9945 40.4117 30.9945 40.3689C30.9945 40.2589 31.7645 39.4767 31.9845 39.3606C32.8461 38.9022 33.1578 38.8167 33.8667 38.8167C34.2517 38.8228 34.4961 38.8472 34.6 38.9083C34.6856 38.9572 34.8078 38.9939 34.8811 39C34.9483 39 35.1317 39.0672 35.2783 39.1528C35.425 39.2322 35.6022 39.33 35.6695 39.3606C35.8283 39.4339 36.5556 40.155 36.6228 40.3139C36.6533 40.3811 36.7022 40.4789 36.7328 40.5278C36.9039 40.8272 36.9833 41.0167 36.9833 41.1267C36.9833 41.1939 37.0261 41.3283 37.075 41.42C37.1972 41.6583 37.1972 42.905 37.075 43.2472C37.0261 43.3817 36.9833 43.5589 36.9833 43.6322C36.9833 43.7117 36.9467 43.8522 36.8978 43.9378C36.8489 44.0295 36.7939 44.1456 36.7695 44.1945C36.6167 44.5672 36.1645 45.1233 35.755 45.4472C35.5472 45.6122 35.3089 45.8078 35.2233 45.8872C35.0583 46.04 34.9667 46.095 34.5267 46.3089C34.0439 46.5472 33.775 46.6328 33.4389 46.6633C33.2556 46.6817 32.9806 46.7245 32.8278 46.755C32.4183 46.8467 31.5567 46.8345 31.1595 46.7306C30.9639 46.6817 30.6889 46.6389 30.5483 46.6389C30.4078 46.6328 30.2245 46.5961 30.1389 46.5472C30.0533 46.4983 29.925 46.4617 29.8517 46.4556C29.7295 46.4556 29.6317 46.4189 29.0695 46.1806C28.8006 46.0645 28.3545 45.8506 28.2139 45.765C28.0061 45.6489 27.4195 45.27 27.3889 45.2333C27.3706 45.215 27.2789 45.1356 27.175 45.0561C26.5761 44.5978 25.6167 43.6933 25.1339 43.125C24.7306 42.6483 23.9728 41.6156 23.8445 41.3528C23.8078 41.2856 23.7283 41.145 23.6611 41.0472C23.5939 40.9433 23.5267 40.8211 23.5022 40.7722C23.4839 40.7233 23.4411 40.6378 23.4106 40.5889C23.38 40.54 23.3372 40.4545 23.3189 40.4056C23.3006 40.3567 23.2456 40.2283 23.2028 40.1306C23.16 40.0267 23.0745 39.8372 23.0195 39.7028C22.9583 39.5683 22.8728 39.3789 22.83 39.2872C22.7811 39.1895 22.7445 39.055 22.7445 38.9817C22.7383 38.9083 22.7017 38.78 22.6528 38.6945C22.6039 38.6089 22.5611 38.4561 22.5611 38.3583C22.5611 38.2545 22.5183 38.1078 22.4695 38.0222C22.4206 37.9367 22.3839 37.7656 22.3778 37.6433C22.3778 37.5211 22.335 37.2522 22.28 37.0445C22.2006 36.7328 22.1883 36.3661 22.2067 34.9911C22.2189 34.0683 22.2189 33.3167 22.2128 33.3167C22.2128 33.3167 22.1517 33.4145 22.0783 33.5367ZM30.1267 50.5317C30.1022 50.6661 29.9922 50.6539 29.9678 50.5256C29.9556 50.4645 29.9861 50.4278 30.0472 50.4278C30.1083 50.4278 30.1389 50.4706 30.1267 50.5317Z" fill="white"/>
</svg>
