<svg width="66" height="66" viewBox="0 0 66 66" fill="none" xmlns="http://www.w3.org/2000/svg">
<circle cx="33" cy="33" r="33" fill="#CE3311"/>
<path d="M35.0218 13.4761C34.8445 13.7694 34.6734 14.0383 34.649 14.075C34.6184 14.1055 34.4534 14.3255 34.2823 14.5639C34.1112 14.7961 33.9523 15.0039 33.934 15.0222C33.9156 15.0405 33.7873 15.1872 33.6529 15.3583C33.5184 15.5233 33.384 15.6944 33.3473 15.7311C33.3168 15.7678 33.0968 16.0122 32.8584 16.2811C32.6262 16.5439 32.2779 16.9228 32.0945 17.1244C31.734 17.5155 31.6912 17.5644 31.3551 17.9311C30.8112 18.53 29.2223 20.7728 29.2223 20.9378C29.2223 20.9744 29.1979 21.0111 29.1734 21.0233C29.0879 21.0539 28.4523 22.2455 28.104 23.0278C27.7984 23.7061 27.5173 24.5372 27.3218 25.3194C27.2056 25.7778 27.1873 26.0405 27.1812 26.9083V27.9472L27.4745 28.65C27.7679 29.3467 27.774 29.3589 27.774 30.0555C27.7801 30.7522 27.719 31.07 27.4745 31.6261C27.4256 31.73 27.389 31.8461 27.389 31.8828C27.389 31.9194 27.3645 31.9989 27.334 32.06C27.3034 32.115 27.169 32.3839 27.0468 32.6528C26.8023 33.1661 26.3562 33.8933 26.1179 34.15C26.0445 34.2355 25.9651 34.3517 25.9468 34.4067C25.9284 34.4678 25.8856 34.5167 25.8551 34.5167C25.7451 34.5167 25.5556 34.3944 25.5556 34.3211C25.5556 34.2661 25.189 33.6244 25.0545 33.4472C24.2051 32.3228 23.5756 31.7728 22.7629 31.4305C22.4818 31.3083 22.0112 31.2167 22.0112 31.2778C22.0112 31.345 22.1395 31.7239 22.2129 31.8828C22.3351 32.1272 22.3045 33.5633 22.1762 33.9972C22.0051 34.5533 21.6934 35.3967 21.6323 35.4639C21.6079 35.4944 21.5834 35.5617 21.5834 35.6167C21.5773 35.6655 21.5284 35.8183 21.4612 35.9528C21.394 36.0872 21.3451 36.2461 21.339 36.3011C21.339 36.3561 21.3145 36.4172 21.284 36.4417C21.2534 36.46 21.2045 36.5639 21.1801 36.6678C21.1618 36.7778 21.119 36.9061 21.0884 36.9611C21.064 37.01 20.9784 37.2605 20.9112 37.5111C20.8379 37.7617 20.7584 38.0367 20.7279 38.1222C20.6729 38.275 20.5873 38.6539 20.4773 39.2833C20.4406 39.4667 20.3795 39.7722 20.3429 39.9555C20.294 40.1694 20.2695 40.9211 20.2695 42.0639C20.2695 43.2067 20.294 43.9583 20.3429 44.1722C20.3795 44.3555 20.4406 44.6611 20.4712 44.8444C20.5079 45.0278 20.5812 45.3455 20.6362 45.5472C20.6912 45.7489 20.7584 46.0239 20.7951 46.1583C20.8318 46.2928 20.8806 46.4272 20.9173 46.4639C20.9479 46.4944 20.9723 46.5617 20.9723 46.6167C20.9723 46.7755 21.7362 47.9 22.3168 48.6028C22.6773 49.0428 23.979 50.2894 24.4251 50.6255C25.189 51.2 26.4601 51.9944 26.6251 51.9944C26.7045 51.9944 26.6373 51.8478 26.3929 51.5239C26.2462 51.3283 26.0262 50.9494 25.8979 50.6805C25.7695 50.4117 25.6473 50.1489 25.6168 50.1C25.5923 50.045 25.5495 49.9105 25.5251 49.7944C25.5006 49.6783 25.464 49.55 25.4395 49.5194C25.3601 49.3972 25.244 48.7067 25.1829 48.0161C25.0606 46.6594 25.3234 45.0094 25.8368 43.8239C25.8856 43.72 25.9223 43.5917 25.9223 43.5428C25.9223 43.4878 25.9529 43.4267 25.9834 43.4083C26.0201 43.39 26.0445 43.3289 26.0445 43.2739C26.0445 43.225 26.0812 43.0967 26.1301 42.9928C26.4173 42.345 26.4968 41.575 26.3195 41.1594C26.1362 40.7255 26.3501 40.6522 26.9612 40.9455C27.2851 41.1044 28.0795 41.8805 28.3362 42.3083C28.4401 42.4733 28.5501 42.6139 28.5806 42.6261C28.6601 42.6505 29.094 41.9967 29.2651 41.6055C29.3812 41.3428 29.4851 41.0678 29.644 40.5544C29.7662 40.1633 29.8395 39.4178 29.8884 37.9389C29.9434 36.3744 29.9923 36.1361 30.3895 35.3539C30.8601 34.4189 31.6729 33.6428 32.7179 33.1172C33.2495 32.8544 33.3351 32.885 33.2801 33.3067C33.2556 33.4839 33.2129 33.6855 33.1762 33.7467C33.0906 33.9239 33.0479 35.4089 33.1212 35.7694C33.2495 36.3744 33.3229 36.6128 33.5123 37.0161C33.7629 37.5539 33.9523 37.7983 34.6612 38.4889C35.9201 39.7233 36.6473 40.86 37.124 42.3694C37.4051 43.2433 37.4601 43.4633 37.5029 43.8667C37.5701 44.5633 37.6251 44.6061 37.9795 44.2944C38.3279 43.995 38.554 43.4755 38.7068 42.6444C38.8412 41.8928 38.8473 41.8805 38.9879 41.8622C39.0795 41.85 39.1223 41.8744 39.1223 41.9417C39.1223 42.0272 39.1773 42.1739 39.4279 42.7361C39.4584 42.8033 39.5562 43.0783 39.6418 43.3472C40.0023 44.4289 40.149 45.1194 40.2712 46.3417C40.3506 47.1728 40.3568 47.4478 40.2895 48.175C40.2223 48.9694 40.1001 49.5744 39.929 49.9961C39.8862 50.0939 39.8556 50.1917 39.8556 50.2161C39.8556 50.2955 39.4768 51.0167 39.2751 51.3222C39.1101 51.5667 38.8534 51.8783 38.5601 52.19C38.499 52.2511 38.4745 52.3 38.5051 52.3C38.5784 52.3 39.9962 51.5728 40.039 51.5117C40.0573 51.4872 40.2223 51.3772 40.4056 51.2672C41.4201 50.65 42.9662 49.2383 43.7056 48.2667C43.9195 47.9794 44.1151 47.735 44.1334 47.7167C44.1518 47.6983 44.2373 47.5761 44.3168 47.4417C44.3962 47.3072 44.5001 47.1605 44.5429 47.1178C44.5856 47.075 44.6223 46.9955 44.6223 46.9467C44.6223 46.8978 44.6468 46.8611 44.6712 46.8611C44.7629 46.8611 45.6001 45.1255 45.814 44.5083C45.869 44.3372 45.9362 44.16 45.9668 44.1111C45.9912 44.0561 46.034 43.9217 46.0523 43.8055C46.0768 43.6894 46.1195 43.5367 46.1501 43.4694C46.2051 43.3411 46.2968 42.9683 46.4006 42.4305C46.4312 42.2594 46.4923 41.9844 46.529 41.8194C46.6268 41.3611 46.6634 38.7333 46.5779 38.1833C46.4312 37.2239 46.4068 37.0955 46.364 36.9672C46.309 36.7839 46.1684 36.8083 46.1195 37.0039C46.0584 37.2483 45.5879 38.1772 45.3312 38.5683C44.8484 39.2894 44.1212 39.9311 43.5223 40.1572C42.5873 40.5055 41.7745 39.9922 41.4262 38.825C41.2306 38.1589 41.249 36.7594 41.469 35.7083C41.6279 34.9444 41.6951 34.6694 41.7501 34.5472C41.7745 34.48 41.8968 34.1072 42.0251 33.7222C42.1473 33.3372 42.2695 32.9644 42.3001 32.8972C42.349 32.7933 42.4712 32.4205 42.6668 31.7972C42.6973 31.6933 42.7523 31.4367 42.789 31.2167C42.8318 30.9967 42.8868 30.6972 42.9112 30.5444C42.9845 30.1778 42.9784 28.8089 42.9112 28.4972C42.7829 27.9289 42.7218 27.7455 42.5323 27.3789C42.3551 27.0244 41.8051 26.3889 41.6829 26.3889C41.6584 26.3889 41.5973 26.3522 41.5545 26.3094C41.4262 26.1872 40.974 26.0039 40.9006 26.0467C40.864 26.0711 40.8334 26.1322 40.8334 26.1811C40.8334 26.3217 40.5951 27 40.4179 27.3605C40.0573 28.1061 39.4768 28.6989 38.8473 28.9739C38.4073 29.1633 37.7901 29.2489 37.4295 29.1694C36.739 29.0105 36.6473 28.7233 36.8551 27.4094C36.8918 27.1833 36.9284 26.5905 36.9345 26.0955C36.9529 25.2522 36.9468 25.1789 36.8062 24.9222C36.4579 24.25 35.4312 23.0522 34.9729 22.7711C34.6734 22.5878 34.1234 22.0683 33.9584 21.7994C33.5429 21.1517 33.5306 20.2289 33.9218 19.0678C34.0623 18.6461 34.1418 18.4505 34.4168 17.8028C34.6245 17.3139 34.7284 17.0755 34.7834 16.9472C34.814 16.88 34.8934 16.6967 34.9606 16.5378C35.034 16.3789 35.089 16.22 35.089 16.1833C35.089 16.1528 35.1134 16.0733 35.144 16.0122C35.3579 15.6211 35.419 15.2055 35.4434 14.1422C35.4556 13.525 35.4434 13.03 35.4068 12.9933C35.3762 12.9628 35.2234 13.1461 35.0218 13.4761Z" fill="white"/>
</svg>
