<svg width="66" height="66" viewBox="0 0 66 66" fill="none" xmlns="http://www.w3.org/2000/svg">
<circle cx="33" cy="33" r="33" fill="#E63AEA"/>
<path d="M47.8 14.1667C47.8 14.2033 47.8244 14.2767 47.855 14.3378C47.8917 14.3928 47.9711 14.5639 48.0322 14.7167C48.0994 14.8694 48.2278 15.1567 48.3194 15.3522C48.7411 16.2994 48.7533 16.66 48.3867 17.7111C48.3317 17.8639 48.2583 18.035 48.2278 18.09C48.1911 18.1511 48.1667 18.2489 48.1667 18.3039C48.1667 18.365 48.1239 18.4933 48.075 18.5911C48.0261 18.6828 47.9833 18.7989 47.9833 18.8417C47.9833 18.8906 47.9528 19.0006 47.91 19.0983C47.6044 19.8561 47.5372 20.1983 47.7267 20.125C47.7817 20.1006 47.8855 20.07 47.9528 20.0517C48.02 20.0333 48.1605 19.9844 48.2705 19.9356C48.3744 19.8867 48.5028 19.85 48.5517 19.85C48.6005 19.85 48.7228 19.8072 48.8144 19.7583C48.9122 19.7094 49.0344 19.6667 49.0894 19.6667C49.1444 19.6667 49.2728 19.6239 49.3644 19.575C49.4622 19.5261 49.5844 19.4833 49.6333 19.4833C49.6822 19.4833 49.7922 19.4222 49.8778 19.355C50.0183 19.2328 50.0367 19.1594 50.1039 18.3589C50.1467 17.8883 50.2078 17.1183 50.2383 16.6539C50.2689 16.1894 50.33 15.6639 50.3728 15.4806C50.4461 15.1567 50.44 15.1383 50.3055 14.9917C50.2261 14.9061 50.1039 14.8389 50.0367 14.8389C49.9633 14.8389 49.8289 14.7961 49.7311 14.7472C49.6394 14.6983 49.5111 14.6556 49.4561 14.6556C49.4011 14.6556 49.2789 14.6128 49.1811 14.5639C49.0894 14.515 48.9611 14.4722 48.9061 14.4722C48.8511 14.4722 48.7289 14.4294 48.6311 14.3806C48.5394 14.3317 48.4111 14.2889 48.3561 14.2889C48.3011 14.2889 48.1789 14.2461 48.0811 14.1972C47.8794 14.0872 47.8 14.0811 47.8 14.1667Z" fill="white"/>
<path d="M45.5205 14.7961C45.3555 14.9672 45.0438 15.3033 44.8238 15.5295C44.4205 15.945 44.4205 15.945 44.4633 16.2261C44.4816 16.3789 44.5244 16.5378 44.5488 16.5745C44.5733 16.6111 44.6588 16.8067 44.7383 17.0083C44.8177 17.21 44.9155 17.4545 44.9583 17.5583C45.166 18.0289 45.2333 18.1939 45.2333 18.2489C45.2333 18.2856 45.2699 18.3895 45.3188 18.4872C45.3677 18.5789 45.4471 18.7561 45.496 18.8722C45.8321 19.6422 45.7955 19.5872 45.8627 19.4222C45.8933 19.3367 45.9421 19.2206 45.9727 19.1656C46.0033 19.1045 46.0277 19.0128 46.0277 18.9578C46.0277 18.9028 46.0644 18.7745 46.1133 18.6706C46.1621 18.5606 46.3027 18.1572 46.431 17.7722C46.5594 17.3872 46.6816 17.0389 46.7121 16.9961C46.7916 16.8983 46.7855 16.3483 46.706 16.2078C46.6694 16.1406 46.5838 15.9511 46.5166 15.7861C46.4433 15.615 46.3638 15.4256 46.3333 15.3583C46.2233 15.1139 46.046 14.6861 46.0094 14.5761C45.9483 14.405 45.8321 14.4539 45.5205 14.7961Z" fill="white"/>
<path d="M32.3205 16.1467C32.2655 16.2322 32.2166 16.33 32.2166 16.3667C32.2166 16.4033 32.1616 16.5622 32.0883 16.7211C32.0211 16.88 31.9355 17.0756 31.9049 17.1611C31.8683 17.2467 31.8011 17.3933 31.7522 17.485C31.7033 17.5828 31.6666 17.6867 31.6666 17.7233C31.6666 17.7783 31.6177 17.9067 31.3916 18.4139C31.3488 18.5117 31.2511 18.75 31.1838 18.9333C30.9944 19.41 30.9333 19.5506 30.8355 19.7461C30.7866 19.8439 30.7499 19.9478 30.7499 19.9845C30.7499 20.015 30.7072 20.1433 30.6522 20.2656C30.6033 20.3939 30.5238 20.5711 30.4811 20.675C30.4322 20.7728 30.3466 20.9806 30.2855 21.1333C30.0716 21.6772 29.9494 21.9583 29.8944 22.0622C29.8577 22.1233 29.8333 22.2028 29.8333 22.2333C29.8333 22.27 29.7783 22.4289 29.7049 22.5878C29.5338 22.985 29.4972 23.0706 29.3444 23.4556C29.1611 23.9261 29.0999 24.0728 29.0022 24.2683C28.9533 24.3661 28.9166 24.47 28.9166 24.5067C28.9166 24.5739 28.7761 24.9222 28.6294 25.1972C28.5072 25.4417 28.4583 26.0406 28.5377 26.4195C28.6233 26.8289 28.7394 27.2445 28.8005 27.3972C28.8311 27.4645 28.8799 27.6295 28.9105 27.7639C29.0449 28.3078 29.1183 28.5645 29.1611 28.6561C29.1916 28.7111 29.2344 28.8639 29.2588 28.9922C29.2772 29.1267 29.3199 29.255 29.3444 29.2917C29.3688 29.3222 29.4177 29.475 29.4544 29.6278C29.4911 29.7806 29.5644 30.0556 29.6194 30.2389C29.6744 30.4222 29.7538 30.6972 29.7966 30.8439L29.8699 31.1067L30.1083 30.8133C30.2427 30.6483 30.3833 30.4772 30.4261 30.4345C30.4688 30.3917 30.5055 30.3306 30.5055 30.3122C30.5055 30.2878 30.5666 30.2022 30.6461 30.1167C30.7499 29.9945 31.4283 29.145 31.6788 28.8028C31.7033 28.7661 31.8438 28.5889 31.9844 28.4056C32.1311 28.2222 32.4794 27.7639 32.7666 27.3972C33.0477 27.0245 33.2983 26.7128 33.3166 26.6945C33.3411 26.67 34.0561 25.7595 34.2455 25.5028C34.2699 25.4661 34.4105 25.2889 34.5572 25.1056C34.6977 24.9222 35.0461 24.4639 35.3272 24.0972C35.6144 23.7245 35.8588 23.4128 35.8772 23.3945C35.9016 23.3761 36.0116 23.2417 36.1277 23.095C36.2927 22.8811 36.3355 22.7711 36.3355 22.5817C36.3294 22.4472 36.2988 22.325 36.2683 22.3006C36.2316 22.2822 36.1705 22.1906 36.1216 22.105C36.0727 22.0133 35.6266 21.2617 35.1194 20.4367C34.6183 19.6056 34.1783 18.8845 34.1416 18.8233C34.0744 18.7072 33.5427 17.8211 33.4205 17.6195C33.3288 17.4728 33.0661 17.045 32.9805 16.9045C32.9499 16.8495 32.8583 16.6845 32.7788 16.5378C32.6994 16.3972 32.5894 16.2078 32.5283 16.1345L32.4244 15.9878L32.3205 16.1467Z" fill="white"/>
<path d="M29.705 17.1183C29.6194 17.1917 29.4178 17.3628 29.2528 17.4972C29.0878 17.6317 28.9289 17.7661 28.8922 17.8028C28.8555 17.8333 28.4828 18.1389 28.0611 18.475C27.6394 18.8111 27.285 19.0983 27.2666 19.1167C27.2483 19.135 27.1016 19.2633 26.9305 19.3917C26.7655 19.5261 26.6128 19.6483 26.5944 19.6667C26.5761 19.685 26.4294 19.8072 26.2583 19.9417C26.0933 20.07 25.9405 20.1983 25.9222 20.2167C25.8855 20.2594 25.1155 20.8828 24.7672 21.1517C24.5289 21.3411 24.1439 21.6528 23.9055 21.8667C23.82 21.94 23.6061 22.1111 23.435 22.2456C23.2578 22.38 23.1111 22.5144 23.1111 22.5328C23.1111 22.5572 23.4044 22.7283 23.7711 22.9056C24.1316 23.0828 24.4372 23.2478 24.4555 23.2661C24.4739 23.2844 24.8039 23.4617 25.1889 23.6572C25.5739 23.8528 26.0994 24.1217 26.35 24.2561C26.6005 24.3844 26.8389 24.4944 26.8694 24.4944C26.9366 24.4944 27.1444 24.1583 27.1444 24.0544C27.1444 23.9872 27.285 23.6511 27.4255 23.3761C27.4744 23.2783 27.5111 23.1744 27.5111 23.1439C27.5111 23.1072 27.5661 22.9544 27.6394 22.7956C27.7066 22.6367 27.7922 22.4411 27.8228 22.3556C27.8594 22.27 27.9266 22.1233 27.9755 22.0317C28.0244 21.9339 28.0611 21.83 28.0611 21.7994C28.0611 21.7628 28.1161 21.61 28.1894 21.4511C28.3605 21.0539 28.3972 20.9683 28.55 20.5833C28.6172 20.4 28.7028 20.1922 28.7333 20.125C28.7578 20.0578 28.8433 19.85 28.9166 19.6667C29.1 19.1961 29.1611 19.0494 29.2589 18.8539C29.3078 18.7561 29.3444 18.6522 29.3444 18.6217C29.3444 18.5606 29.5522 18.0656 29.65 17.8822C29.6866 17.8211 29.7111 17.7417 29.7111 17.6928C29.7111 17.65 29.7661 17.5156 29.8333 17.3872C29.9555 17.155 29.9922 16.9778 29.9128 16.9778C29.8822 16.9778 29.7905 17.045 29.705 17.1183Z" fill="white"/>
<path d="M21.2166 24.0483C21.1005 24.14 20.9905 24.2317 20.9722 24.25C20.9538 24.2683 20.8072 24.3967 20.6361 24.525C20.4711 24.6594 20.3183 24.7817 20.2999 24.8C20.2816 24.8183 19.8722 25.1606 19.3833 25.5578C17.5561 27.0428 17.2444 27.3056 17.2444 27.3361C17.2444 27.3667 17.6172 27.55 17.6905 27.55C17.7455 27.55 17.9961 27.6539 18.3749 27.825C18.4788 27.8739 18.6316 27.9289 18.7294 27.9533C18.8211 27.9717 18.9127 28.0144 18.9311 28.045C18.9494 28.0756 19.0044 28.1 19.0594 28.1C19.1083 28.1 19.2366 28.1367 19.3405 28.1856C19.5483 28.2711 19.7988 28.3689 20.3916 28.595C20.5933 28.6744 20.7827 28.76 20.8194 28.7844C20.8499 28.8089 20.9172 28.8333 20.9722 28.8333C21.0211 28.8333 21.1433 28.8761 21.2411 28.925C21.3327 28.9739 21.4427 29.0167 21.4733 29.0167C21.5405 29.0167 21.8766 29.1572 22.1516 29.2978C22.2494 29.3467 22.3716 29.3833 22.4327 29.3833C22.4877 29.3833 22.5916 29.4261 22.6588 29.475C22.7199 29.5239 22.8177 29.5667 22.8666 29.5667C22.9155 29.5667 23.0377 29.6094 23.1355 29.6583C23.2272 29.7072 23.3372 29.75 23.3677 29.75C23.4044 29.75 23.5144 29.7867 23.6183 29.8356C23.7283 29.8844 23.9788 29.9822 24.1805 30.0617C24.3822 30.1411 24.5716 30.2267 24.6022 30.2511C24.6388 30.2756 24.7061 30.3 24.7549 30.3C24.8099 30.3 24.9322 30.3428 25.0299 30.3917C25.1216 30.4406 25.2316 30.4833 25.2622 30.4833C25.2988 30.4833 25.4088 30.52 25.5127 30.5689C25.6227 30.6117 25.8305 30.6972 25.9833 30.7522C26.1361 30.8133 26.3377 30.8989 26.4294 30.9478C26.5272 30.9967 26.6311 31.0333 26.6677 31.0333C26.6983 31.0333 26.8144 31.07 26.9183 31.1189C27.0283 31.1617 27.2361 31.2472 27.3888 31.3083C27.6333 31.4 27.8838 31.51 28.0183 31.5711C28.0977 31.6078 28.0672 31.2961 27.9694 31.1189C27.9205 31.0211 27.8777 30.8561 27.8777 30.7461C27.8777 30.6422 27.8533 30.5383 27.8227 30.5139C27.7922 30.4956 27.7494 30.3917 27.7249 30.2817C27.7005 30.1778 27.6455 29.9639 27.6027 29.8111C27.5538 29.6583 27.4683 29.3711 27.4133 29.1694C27.3583 28.9678 27.2727 28.6989 27.2299 28.5706C27.1811 28.4483 27.1444 28.2772 27.1444 28.1917C27.1444 28.1122 27.1199 28.0328 27.0894 28.0144C27.0588 27.99 27.0161 27.8678 26.9916 27.7272C26.9672 27.5928 26.9122 27.4033 26.8633 27.3178C26.8144 27.2261 26.7777 27.0917 26.7777 27.0122C26.7777 26.7311 26.5577 26.4256 26.2461 26.2728C26.0872 26.1872 25.9405 26.1078 25.9222 26.0894C25.9038 26.065 25.6594 25.9367 25.3722 25.79C24.8527 25.5333 23.9299 25.0506 22.7749 24.4333C22.4388 24.2561 22.0905 24.0728 21.9988 24.0239C21.6749 23.8589 21.4488 23.865 21.2166 24.0483Z" fill="white"/>
<path d="M37.5577 24.1767C37.4599 24.2989 37.1055 24.7572 36.7694 25.1972C36.4394 25.6311 36.1521 26.0039 36.1277 26.0222C36.1094 26.0406 35.8221 26.4072 35.486 26.8472C35.156 27.2811 34.8199 27.7089 34.7405 27.7945C34.661 27.88 34.5999 27.9656 34.5999 27.99C34.5999 28.0083 34.5632 28.0695 34.5205 28.1122C34.4777 28.155 34.276 28.4117 34.0682 28.6806C33.8666 28.9495 33.6405 29.2367 33.5671 29.3161C33.4999 29.3956 33.4388 29.4811 33.4388 29.4995C33.4388 29.5178 33.3777 29.6033 33.2982 29.6889C33.2188 29.7745 32.846 30.2511 32.461 30.7583C32.076 31.2595 31.6971 31.7422 31.6238 31.8278C31.5444 31.9133 31.4649 32.0295 31.4466 32.0845C31.4282 32.1456 31.3916 32.1945 31.3671 32.1945C31.3427 32.1945 31.2571 32.3228 31.1716 32.4756C31.0921 32.6283 30.9944 32.8117 30.9516 32.8789C30.9149 32.9522 30.8966 33.0378 30.9088 33.0806C30.9271 33.1233 31.361 33.5206 31.8682 33.9667C32.3816 34.4067 32.9927 34.9445 33.2249 35.1522C33.4632 35.36 33.8849 35.7389 34.1721 35.9895C34.4594 36.2339 34.7038 36.46 34.7099 36.4845C34.7588 36.6006 34.8444 36.5089 35.046 36.1178C35.1621 35.8917 35.3882 35.4578 35.5471 35.1583C35.706 34.8528 35.9994 34.2906 36.201 33.9056C38.071 30.3122 38.0038 30.4345 38.4071 30.08C38.896 29.6522 39.391 29.4628 40.1366 29.4139C40.3994 29.3956 40.7966 29.3528 41.0166 29.3161C41.2366 29.2856 41.7438 29.2306 42.1471 29.2C43.186 29.1206 44.2066 29.0228 44.7627 28.9495C45.0194 28.9067 45.4471 28.8639 45.7099 28.8395L46.1805 28.8028L45.8749 28.6256C45.7099 28.5278 45.2394 28.2528 44.836 28.0206C44.4327 27.7822 44.0477 27.5561 43.9805 27.5195C43.9132 27.4828 43.7482 27.385 43.6138 27.2995C43.4794 27.2139 43.3082 27.1222 43.2349 27.0978C43.1555 27.0733 43.0944 27.0245 43.0944 26.9939C43.0944 26.9633 43.0638 26.9389 43.0271 26.9389C42.9905 26.9389 42.5994 26.7189 42.1532 26.4561C41.7132 26.1933 41.2549 25.9183 41.1388 25.845C41.0227 25.7778 40.8699 25.6922 40.8027 25.6617C40.6927 25.6128 39.0488 24.6472 38.8166 24.4945C38.7677 24.4578 38.6577 24.4028 38.5721 24.3661C38.4927 24.3356 38.4071 24.2867 38.3888 24.2622C38.346 24.2072 37.8571 23.9445 37.796 23.9445C37.7716 23.9445 37.6616 24.0483 37.5577 24.1767Z" fill="white"/>
<path d="M16.5416 29.3039C16.566 29.4322 16.6088 29.7683 16.6333 30.0556C16.6944 30.6972 16.7983 31.4917 16.8838 31.9928C16.9205 32.2006 16.9755 32.5856 16.9999 32.8483C17.116 33.8933 17.1955 34.4983 17.2505 34.7917C17.2871 34.9567 17.336 35.3295 17.3666 35.6167C17.4766 36.68 17.556 37.3033 17.6171 37.5906C17.6538 37.7495 17.7088 38.1222 17.7333 38.4156C17.8005 39.1367 17.9105 39.98 17.9838 40.3528C18.0205 40.5178 18.0694 40.9028 18.106 41.2083C18.2038 42.1189 18.2527 42.5161 18.2833 42.5467C18.3016 42.5589 18.7538 42.1433 19.2977 41.6178C19.8355 41.0922 20.5199 40.4261 20.8255 40.1389C21.5038 39.4911 23.9483 37.1506 24.8527 36.2767C25.2255 35.9161 25.586 35.5739 25.6533 35.5128C25.7266 35.4517 26.2277 34.9811 26.7716 34.4617C27.6821 33.5939 27.8777 33.3556 27.6821 33.3556C27.5905 33.3556 26.9183 33.0867 26.8571 33.0256C26.8388 33.0072 26.7655 32.9889 26.6983 32.9889C26.6371 32.9889 26.5088 32.9522 26.4233 32.9033C26.3316 32.8545 26.136 32.775 25.9833 32.7139C25.8305 32.6589 25.6288 32.5733 25.5371 32.5245C25.4394 32.4756 25.3171 32.4389 25.256 32.4389C25.201 32.4389 25.0971 32.3961 25.0299 32.3472C24.9688 32.2983 24.871 32.2556 24.8221 32.2556C24.7733 32.2556 24.651 32.2128 24.5533 32.1639C24.4616 32.115 24.3516 32.0722 24.3088 32.0722C24.2721 32.0722 24.1744 32.0356 24.0888 31.9928C24.0033 31.95 23.7588 31.8461 23.5388 31.7667C23.3188 31.6933 23.1171 31.6017 23.0805 31.5711C23.0499 31.5467 22.9827 31.5222 22.9277 31.5222C22.8788 31.5222 22.7566 31.4795 22.6588 31.4306C22.5671 31.3817 22.4571 31.3389 22.4266 31.3389C22.3899 31.3389 22.2799 31.3022 22.176 31.2533C22.066 31.2045 21.8155 31.1067 21.6138 31.0272C21.4121 30.9478 21.2227 30.8622 21.1921 30.8378C21.1555 30.8133 21.0883 30.7889 21.0394 30.7889C20.9844 30.7889 20.8621 30.7461 20.7644 30.6972C20.6727 30.6483 20.5627 30.6056 20.5321 30.6056C20.4955 30.6056 20.3855 30.5689 20.2816 30.52C20.1716 30.4772 19.9638 30.3917 19.811 30.3367C19.6583 30.2756 19.4566 30.19 19.3649 30.1411C19.2671 30.0922 19.1633 30.0556 19.1266 30.0556C19.096 30.0556 18.9799 30.0189 18.876 29.97C18.6683 29.8845 18.4177 29.7867 17.8249 29.5606C17.6233 29.4811 17.4338 29.3956 17.4033 29.3711C17.3666 29.3467 17.2994 29.3222 17.2505 29.3222C17.1955 29.3222 17.0794 29.2856 16.9938 29.2367C16.9083 29.1939 16.7616 29.1389 16.6699 29.1145C16.4988 29.0717 16.4988 29.0717 16.5416 29.3039Z" fill="white"/>
<path d="M47.0056 30.5811C46.8222 30.5933 46.4617 30.63 46.2111 30.6667C45.9606 30.7033 45.435 30.7583 45.05 30.7889C43.455 30.9111 42.685 30.9783 42.4222 31.0333C42.2694 31.07 41.7622 31.125 41.2917 31.1556C39.9778 31.2533 39.7517 31.2961 39.5561 31.51C39.4706 31.6139 39.2261 32.0172 39.0244 32.4206C38.8167 32.8178 38.505 33.4167 38.3278 33.7528C38.1506 34.0889 37.8511 34.6633 37.6556 35.0361C37.4661 35.4028 37.1789 35.9528 37.0139 36.2583C36.3844 37.4439 36.25 37.725 36.25 37.8472C36.25 37.945 36.9467 38.8861 37.5211 39.5583C37.5822 39.6256 37.8572 39.9678 38.1444 40.3222C38.4317 40.6767 38.6761 40.9761 38.6944 40.9944C38.7128 41.0128 39.0061 41.3672 39.3361 41.7889C39.6722 42.2106 39.9594 42.565 39.9778 42.5833C40.0328 42.6322 41.2856 44.1722 41.9578 45.0094C42.2817 45.425 42.5872 45.7611 42.6239 45.7611C42.6667 45.7611 42.8439 45.2967 43.0272 44.7344C43.2106 44.1722 43.3817 43.6894 43.4061 43.6589C43.4367 43.6222 43.4611 43.5428 43.4611 43.4756C43.4611 43.4022 43.5039 43.2678 43.5528 43.17C43.6017 43.0783 43.6444 42.95 43.6444 42.895C43.6444 42.84 43.6872 42.7178 43.7361 42.62C43.785 42.5283 43.8278 42.4 43.8278 42.345C43.8278 42.29 43.8706 42.1678 43.9194 42.07C43.9683 41.9783 44.0111 41.8561 44.0111 41.8072C44.0111 41.7583 44.0478 41.63 44.0906 41.5261C44.1394 41.4161 44.225 41.1656 44.2861 40.9639C44.3472 40.7622 44.4328 40.5117 44.4694 40.4139C44.5122 40.31 44.5917 40.0656 44.6528 39.8639C44.7139 39.6622 44.7994 39.4117 44.8361 39.3139C44.8789 39.21 44.9706 38.9228 45.05 38.6722C45.1294 38.4217 45.215 38.1894 45.2394 38.1528C45.27 38.1222 45.2944 38.0428 45.2944 37.9817C45.2944 37.9206 45.3311 37.78 45.38 37.6761C45.4228 37.5661 45.5206 37.2728 45.6 37.0222C45.6794 36.7717 45.765 36.5394 45.7894 36.5028C45.82 36.4722 45.8444 36.3928 45.8444 36.3194C45.8444 36.2522 45.8872 36.1178 45.9361 36.02C45.985 35.9283 46.0278 35.8 46.0278 35.745C46.0278 35.69 46.0706 35.5678 46.1194 35.47C46.1683 35.3783 46.2111 35.25 46.2111 35.195C46.2111 35.14 46.2539 35.0178 46.3028 34.92C46.3517 34.8283 46.3944 34.7 46.3944 34.645C46.3944 34.59 46.4372 34.4678 46.4861 34.37C46.535 34.2783 46.5778 34.15 46.5778 34.095C46.5778 34.04 46.6206 33.9178 46.6694 33.82C46.7183 33.7283 46.7611 33.6 46.7611 33.545C46.7611 33.49 46.8039 33.3678 46.8528 33.27C46.9017 33.1783 46.9444 33.05 46.9444 32.995C46.9444 32.94 46.9872 32.8178 47.0361 32.72C47.085 32.6283 47.1278 32.5 47.1278 32.445C47.1278 32.39 47.1706 32.2678 47.2194 32.17C47.2683 32.0783 47.3111 31.95 47.3111 31.895C47.3111 31.84 47.3539 31.7178 47.4028 31.62C47.4517 31.5283 47.4944 31.4 47.4944 31.345C47.4944 31.29 47.5372 31.1678 47.5861 31.0761C47.635 30.9783 47.6839 30.8317 47.69 30.74C47.7083 30.5567 47.6717 30.5444 47.0056 30.5811Z" fill="white"/>
<path d="M30.2915 35.2439C30.2732 35.305 30.2304 35.91 30.1999 36.5883C30.1693 37.2606 30.1143 38.1956 30.0838 38.66C29.986 39.9372 29.9004 41.3611 29.8332 42.9806C29.7965 43.7872 29.7415 44.5633 29.711 44.7039C29.6743 44.8444 29.6499 45.2722 29.6438 45.6511C29.6438 46.03 29.6193 46.6411 29.5827 47.0139C29.5521 47.3806 29.5032 48.2606 29.4665 48.9694C29.436 49.6722 29.3932 50.4239 29.3688 50.6317C29.326 51.0594 29.3627 51.0961 29.6865 50.925C29.7843 50.8761 29.9127 50.8333 29.9738 50.8333C30.0288 50.8333 30.1265 50.8089 30.1877 50.7783C30.2854 50.7233 30.6338 50.6133 31.4832 50.3628C31.6665 50.3078 31.9049 50.2283 32.0149 50.1794C32.1188 50.1367 32.2349 50.1 32.2777 50.1C32.3693 50.1 32.901 49.9289 33.176 49.8128C33.2799 49.77 33.4021 49.7333 33.4449 49.7333C33.4877 49.7333 33.6343 49.6967 33.7749 49.6478C33.9093 49.5989 34.1843 49.5133 34.386 49.4583C34.5877 49.3972 34.8077 49.33 34.8749 49.2994C34.9421 49.275 35.2049 49.1956 35.4554 49.1161C35.706 49.0428 36.146 48.9083 36.4332 48.8167C36.7204 48.725 37.1177 48.6028 37.3193 48.5417C37.521 48.4806 37.7288 48.4133 37.7838 48.3828C37.8388 48.3583 37.9915 48.3156 38.1138 48.2911C38.2421 48.2667 38.4193 48.2117 38.5049 48.1689C38.5904 48.12 38.7004 48.0833 38.7493 48.0833C38.841 48.0833 39.3665 47.9183 39.6538 47.7961C39.7577 47.7533 39.8738 47.7167 39.9165 47.7167C40.0021 47.7167 40.5704 47.5394 40.7232 47.4661C40.7782 47.4356 40.9371 47.3928 41.0777 47.3744C41.261 47.3439 41.3221 47.3072 41.3221 47.2217C41.3221 47.1544 41.0715 46.7939 40.766 46.415C40.4604 46.0422 40.0999 45.59 39.9654 45.425C39.6782 45.0583 39.2993 44.6061 39.2138 44.5144C39.1771 44.4778 38.5477 43.6894 37.8082 42.7667C37.0688 41.8439 36.4515 41.0739 36.4332 41.0556C36.4149 41.0372 36.1643 40.7378 35.871 40.3833C35.5838 40.0289 35.2538 39.6439 35.1438 39.5217C35.0277 39.3994 34.7038 39.045 34.4165 38.7333C33.6527 37.89 33.3349 37.5844 32.2471 36.6433C32.1493 36.5517 31.966 36.3989 31.8499 36.295C31.7338 36.1911 31.6177 36.1056 31.5993 36.1056C31.581 36.1056 31.4954 36.0506 31.416 35.9772C31.086 35.6961 30.8904 35.525 30.6704 35.3294C30.4077 35.0972 30.3465 35.085 30.2915 35.2439Z" fill="white"/>
<path d="M27.5416 36.2095C27.1077 36.6372 26.4722 37.2483 26.1361 37.5661C24.3577 39.265 22.7016 40.8539 22.0722 41.465C21.6872 41.8378 21.3022 42.2045 21.2166 42.2778C21.1311 42.3511 20.5994 42.8522 20.0311 43.3961L19.0044 44.38L19.145 44.4961C19.2244 44.5572 19.6522 44.8689 20.0861 45.1806C20.5261 45.4983 20.9111 45.7795 20.9416 45.81C20.9783 45.8406 21.1555 45.9689 21.3388 46.0972C21.5222 46.2256 21.9255 46.5128 22.225 46.7328C22.5305 46.9528 22.8788 47.2033 23.0011 47.2889C23.1294 47.3745 23.2333 47.46 23.2333 47.4845C23.2333 47.515 23.2638 47.5333 23.2944 47.5333C23.3494 47.5333 23.9361 47.9489 24.9383 48.7067C25.085 48.8167 25.25 48.9328 25.2988 48.9695C25.4149 49.0428 26.1666 49.5806 26.2583 49.66C26.2949 49.6906 26.4722 49.8189 26.6555 49.9472C26.8388 50.0756 27.0955 50.2589 27.2238 50.3628C27.3583 50.4667 27.4805 50.5217 27.5111 50.4911C27.5416 50.4606 27.5783 50.1489 27.5966 49.7945C27.6944 47.5883 27.7494 46.6717 27.8105 45.8833C27.9022 44.6733 27.9877 43.1883 28.0611 41.5445C28.0916 40.7867 28.1466 40.035 28.1833 39.8761C28.2138 39.7111 28.2444 39.2161 28.2444 38.7761C28.2505 38.33 28.2749 37.6945 28.3055 37.3583C28.4094 36.2706 28.4461 35.4333 28.3911 35.4333C28.3605 35.4333 27.9816 35.7817 27.5416 36.2095Z" fill="white"/>
</svg>
