<svg width="66" height="66" viewBox="0 0 66 66" fill="none" xmlns="http://www.w3.org/2000/svg">
<circle cx="33" cy="33" r="33" fill="#904808"/>
<path d="M31.6729 16.935C31.6424 17.0206 31.5813 17.1061 31.5507 17.1306C31.5141 17.1489 31.4835 17.2161 31.4835 17.2834C31.4835 17.3445 31.4407 17.4056 31.3918 17.43C31.3429 17.4484 31.3002 17.5156 31.3002 17.5828C31.3002 17.6439 31.2574 17.7111 31.2085 17.7356C31.1596 17.7539 31.1168 17.8211 31.1168 17.8822C31.1168 17.9495 31.0741 18.035 31.0252 18.0778C30.9763 18.1206 30.9335 18.1878 30.9335 18.2306C30.9335 18.2734 30.8907 18.3222 30.8418 18.3467C30.7929 18.365 30.7502 18.4322 30.7502 18.4995C30.7502 18.5606 30.7074 18.6278 30.6585 18.6522C30.6096 18.6706 30.5668 18.7378 30.5668 18.7989C30.5668 18.8661 30.5241 18.9517 30.4752 18.9945C30.4263 19.0372 30.3835 19.1106 30.3835 19.1534C30.3835 19.2022 30.3591 19.2389 30.3285 19.2389C30.2979 19.2389 30.2429 19.3122 30.2063 19.4039C30.1207 19.6117 30.0107 19.8011 29.9007 19.9356C29.8579 19.9906 29.8335 20.07 29.8518 20.1189C29.8763 20.18 29.8579 20.1984 29.8029 20.18C29.7479 20.1556 29.7052 20.1984 29.6807 20.2961C29.6563 20.3817 29.6013 20.4672 29.5524 20.4856C29.5035 20.5039 29.4668 20.5711 29.4668 20.6322C29.4668 20.6995 29.4241 20.785 29.3752 20.8278C29.3263 20.8706 29.2835 20.9439 29.2835 20.9867C29.2835 21.0356 29.2591 21.0722 29.2224 21.0722C29.1918 21.0722 29.1491 21.1395 29.1246 21.225C29.1063 21.3106 29.0635 21.3778 29.0391 21.3778C29.0085 21.3778 28.9657 21.4389 28.9413 21.5122C28.9229 21.5856 28.8618 21.6834 28.8191 21.7322C28.7702 21.775 28.7335 21.8484 28.7335 21.8972C28.7335 21.94 28.6907 21.9889 28.6418 22.0134C28.5929 22.0317 28.5502 22.0989 28.5502 22.1661C28.5502 22.2272 28.5074 22.2945 28.4585 22.3189C28.4096 22.3372 28.3668 22.4045 28.3668 22.4717C28.3668 22.5389 28.3363 22.6 28.2996 22.6122C28.2629 22.6245 28.2263 22.7039 28.2263 22.7895C28.2202 22.8872 28.1774 22.9484 28.1224 22.9422C28.0735 22.9361 28.0307 22.985 28.0307 23.0461C28.0307 23.1072 27.9818 23.1867 27.9207 23.2172C27.8657 23.2539 27.8168 23.3211 27.8168 23.3639C27.8168 23.4128 27.7924 23.4556 27.7618 23.4556C27.7313 23.4556 27.6763 23.535 27.6396 23.6389C27.6091 23.7367 27.5479 23.8222 27.5174 23.8222C27.4807 23.8222 27.4502 23.8772 27.4502 23.9445C27.4502 24.0117 27.4257 24.0667 27.3891 24.0667C27.3585 24.0667 27.3157 24.1339 27.2913 24.2134C27.2729 24.2989 27.2179 24.3784 27.1691 24.3967C27.1202 24.415 27.0835 24.4884 27.0835 24.5556C27.0835 24.6228 27.0529 24.6778 27.0224 24.6778C26.9857 24.6778 26.9307 24.7389 26.9002 24.8122C26.8635 24.8917 26.7841 25.0322 26.7168 25.1361C26.6496 25.2339 26.5702 25.3745 26.5335 25.4417C26.4235 25.6617 26.3196 25.8084 26.2463 25.8572C26.2035 25.8817 26.1668 25.9611 26.1668 26.0222C26.1668 26.0834 26.1363 26.1567 26.0996 26.175C26.0691 26.1995 26.0141 26.2789 25.9774 26.3461C25.9102 26.5111 25.7941 26.6945 25.6963 26.8045C25.6535 26.8472 25.6168 26.9206 25.6168 26.9695C25.6168 27.0122 25.5741 27.0611 25.5252 27.0856C25.4763 27.1039 25.4335 27.1711 25.4335 27.2384C25.4335 27.3056 25.4152 27.3667 25.3907 27.3789C25.3052 27.4156 25.0668 27.7884 25.0668 27.8861C25.0668 27.935 25.0363 27.9778 25.0057 27.9778C24.9691 27.9778 24.9141 28.0389 24.8835 28.1122C24.8468 28.1917 24.7674 28.3322 24.7002 28.4361C24.6329 28.5339 24.5535 28.6806 24.5229 28.7539C24.4924 28.8211 24.4313 28.9006 24.4007 28.925C24.3641 28.9434 24.3335 29.0472 24.3335 29.145C24.3335 29.2795 24.3702 29.3406 24.4802 29.3834C24.5596 29.4139 24.6452 29.4689 24.6696 29.5056C24.6941 29.5484 24.7796 29.5606 24.8591 29.5422C24.9691 29.5117 24.9935 29.5239 24.9691 29.5972C24.9446 29.6584 24.9874 29.7072 25.0852 29.7439C25.1707 29.7745 25.2563 29.8356 25.2807 29.8661C25.2991 29.9028 25.3663 29.9334 25.4335 29.9334C25.4946 29.9334 25.5618 29.9761 25.5802 30.0311C25.6046 30.0922 25.6657 30.1167 25.7329 30.0984C25.8002 30.0861 25.8735 30.1167 25.9163 30.1839C25.9529 30.2511 26.0263 30.3 26.0752 30.3C26.1241 30.3 26.1668 30.3245 26.1668 30.355C26.1668 30.3856 26.2524 30.4406 26.3502 30.4772C26.4541 30.5078 26.5335 30.5689 26.5335 30.5995C26.5335 30.6361 26.6007 30.6667 26.6802 30.6667C26.7596 30.6667 26.8452 30.7095 26.8635 30.7645C26.8879 30.8256 26.9491 30.85 27.0224 30.8317C27.0957 30.8134 27.1446 30.8317 27.1446 30.8745C27.1446 30.9111 27.2729 31.015 27.4379 31.0945C27.5968 31.18 27.7496 31.2839 27.7741 31.3206C27.7985 31.3634 27.8718 31.4 27.9329 31.4C27.9941 31.4 28.0796 31.4428 28.1224 31.4917C28.1652 31.5406 28.2263 31.5834 28.2568 31.5834C28.2874 31.5834 28.3546 31.6261 28.4035 31.675C28.4585 31.7239 28.5502 31.7667 28.6113 31.7667C28.6724 31.7667 28.7335 31.8095 28.7579 31.8584C28.7763 31.9072 28.8435 31.95 28.9107 31.95C28.9718 31.95 29.0391 31.9928 29.0635 32.0417C29.0818 32.0906 29.1552 32.1334 29.2224 32.1334C29.2896 32.1334 29.3446 32.1578 29.3446 32.1945C29.3446 32.225 29.4118 32.2678 29.4913 32.2922C29.5768 32.3106 29.6563 32.3656 29.6746 32.4145C29.6929 32.4634 29.7602 32.5 29.8274 32.5C29.8946 32.5 29.9679 32.5306 29.9863 32.5672C30.0107 32.5978 30.0902 32.6528 30.1574 32.6895C30.3224 32.7567 30.5057 32.8728 30.6157 32.9706C30.6585 33.0134 30.7318 33.05 30.7746 33.05C30.8235 33.05 30.8907 33.0928 30.9335 33.1417C30.9763 33.1967 31.0496 33.2272 31.0863 33.2089C31.1291 33.1967 31.2024 33.2334 31.2574 33.3006C31.3796 33.4411 31.5018 33.4472 31.6302 33.325C31.6791 33.2761 31.7463 33.2334 31.7829 33.2334C31.8196 33.2334 31.9052 33.1845 31.9663 33.1234C32.1802 32.9339 32.2718 32.8667 32.3207 32.8667C32.3513 32.8667 32.4674 32.7811 32.5774 32.6772C32.6935 32.5734 32.8707 32.445 32.9807 32.3839C33.0907 32.3289 33.2252 32.2372 33.2741 32.1884C33.4635 32.0172 33.5552 31.95 33.5918 31.95C33.6224 31.95 34.0563 31.6445 34.2641 31.4734C34.3007 31.4489 34.3741 31.4061 34.4352 31.3817C34.4902 31.3634 34.5391 31.3145 34.5391 31.2839C34.5391 31.2534 34.5941 31.2045 34.6613 31.1861C34.7285 31.1678 34.7835 31.1067 34.7835 31.0578C34.7835 31.0089 34.8141 30.9845 34.8446 31.0028C34.8813 31.0272 35.0096 30.96 35.1379 30.8622C35.2602 30.7645 35.4129 30.6667 35.4741 30.6484C35.5291 30.6239 35.5779 30.5811 35.5779 30.5445C35.5779 30.5139 35.6207 30.4834 35.6696 30.4834C35.7246 30.4834 35.7796 30.4406 35.7979 30.3917C35.8224 30.3428 35.8652 30.3 35.9079 30.3C35.9446 30.3 36.0607 30.2267 36.1707 30.1289C36.5679 29.7806 37.0507 29.6339 37.1302 29.8417C37.1485 29.8906 37.2035 29.9334 37.2585 29.9334C37.3563 29.9334 37.4663 30.0067 37.6435 30.19C37.6985 30.2511 37.7779 30.3 37.8146 30.3C37.8574 30.3 37.9002 30.3428 37.9246 30.3917C37.9429 30.4406 37.9918 30.4834 38.0346 30.4834C38.0835 30.4834 38.2057 30.5628 38.3157 30.6667C38.4257 30.7645 38.5357 30.85 38.5541 30.85C38.5907 30.85 39.0613 31.2045 39.1529 31.3022C39.1896 31.3389 39.3179 31.4245 39.4463 31.4917C39.5746 31.5589 39.7518 31.6872 39.8435 31.7789C39.9352 31.8706 40.0391 31.95 40.0696 31.95C40.1063 31.95 40.2224 32.0295 40.3324 32.1334C40.4424 32.2311 40.5585 32.3167 40.5891 32.3167C40.6135 32.3167 40.6502 32.3595 40.6746 32.4084C40.6929 32.4572 40.7418 32.5 40.7846 32.5C40.8335 32.5 40.9557 32.5795 41.0657 32.6834C41.1757 32.7811 41.2918 32.8667 41.3224 32.8667C41.3529 32.8667 41.4691 32.9461 41.5791 33.05C41.6891 33.1478 41.7991 33.2334 41.8235 33.2334C41.8479 33.2334 41.9579 33.3128 42.0679 33.4167C42.1779 33.5145 42.3002 33.6 42.3429 33.6C42.3796 33.6 42.4407 33.6428 42.4713 33.7039C42.5079 33.7589 42.5691 33.7895 42.6241 33.765C42.6913 33.7406 42.7096 33.7528 42.6852 33.8139C42.6668 33.8689 42.7035 33.9239 42.7646 33.9484C42.8318 33.9667 43.0946 34.15 43.3513 34.3456C43.6079 34.5411 43.8341 34.7 43.8524 34.7C43.8707 34.7 43.9746 34.7795 44.0846 34.8834C44.1946 34.9811 44.3107 35.0667 44.3474 35.0667C44.3841 35.0667 44.4757 35.1278 44.5613 35.2011C44.6468 35.2806 44.8302 35.4211 44.9768 35.5189C45.1174 35.6167 45.2335 35.7145 45.2335 35.7389C45.2335 35.7634 45.2824 35.8 45.3435 35.8245C45.4841 35.8734 45.6735 35.9956 45.7591 36.0995C45.7957 36.1484 45.8691 36.1667 45.9241 36.1484C45.9913 36.1239 46.0096 36.1361 45.9913 36.1911C45.9729 36.24 46.0524 36.3317 46.1929 36.4172C46.3213 36.4906 46.4496 36.5945 46.4741 36.6372C46.4985 36.68 46.5596 36.7167 46.6024 36.7167C46.6513 36.7167 46.7002 36.7595 46.7246 36.8084C46.7429 36.8572 46.7979 36.9 46.8468 36.9C46.8896 36.9 47.0241 36.9856 47.1341 37.0834C47.2379 37.1872 47.3663 37.2606 47.4152 37.2422C47.4579 37.2239 47.4946 37.2422 47.4946 37.285C47.4946 37.4011 47.8552 37.6517 47.9529 37.6089C48.0079 37.5906 48.0263 37.6089 48.0079 37.6578C47.9896 37.7067 48.1241 37.8289 48.3502 37.9756C48.5518 38.1039 48.7168 38.2322 48.7168 38.2567C48.7168 38.2872 48.7779 38.3361 48.8574 38.3667C49.0407 38.4461 49.1874 38.55 49.4135 38.7456C49.5174 38.8434 49.6213 38.9167 49.6457 38.9167C49.7313 38.9167 49.6946 38.7272 49.6029 38.6967C49.5541 38.6722 49.5113 38.6295 49.5113 38.5989C49.5113 38.5622 49.4318 38.4339 49.3279 38.3056C49.2302 38.1772 49.1446 38.0489 49.1446 38.0184C49.1446 37.9878 49.0957 37.9206 49.0407 37.8656C48.8696 37.7067 48.6985 37.45 48.5946 37.2178C48.5641 37.1445 48.5091 37.0834 48.4724 37.0834C48.4418 37.0834 48.4113 37.0467 48.4113 37.0039C48.4113 36.9611 48.3257 36.8389 48.2279 36.7289C48.1302 36.6189 48.0446 36.4845 48.0446 36.4356C48.0446 36.3867 48.0018 36.3317 47.9529 36.3134C47.9041 36.2889 47.8613 36.24 47.8613 36.1911C47.8613 36.1484 47.8246 36.0872 47.7818 36.0628C47.7329 36.0384 47.6474 35.9161 47.5802 35.8C47.5191 35.6839 47.4274 35.5617 47.3907 35.5372C47.3479 35.5128 47.3113 35.4517 47.3113 35.415C47.3113 35.3722 47.2379 35.2561 47.1463 35.1522C46.9507 34.9322 46.8468 34.7795 46.7674 34.6084C46.7368 34.5411 46.6452 34.4128 46.5596 34.3211C46.4741 34.2295 46.3885 34.095 46.3641 34.0278C46.3457 33.9606 46.2968 33.9056 46.2663 33.9056C46.2357 33.9056 46.2113 33.8628 46.2113 33.8139C46.2113 33.765 46.1807 33.7222 46.1502 33.7222C46.1135 33.7222 46.0585 33.655 46.0279 33.5695C45.9974 33.4839 45.9302 33.4167 45.8813 33.4167C45.8202 33.4167 45.8018 33.38 45.8202 33.325C45.8446 33.2761 45.8141 33.2211 45.7652 33.1967C45.7163 33.1784 45.6552 33.0989 45.6368 33.0134C45.6124 32.9339 45.5696 32.8667 45.5391 32.8667C45.5024 32.8667 45.4779 32.8361 45.4779 32.7995C45.4779 32.7445 45.1968 32.335 44.9891 32.0906C44.9585 32.0478 44.9279 31.9867 44.9279 31.9561C44.9279 31.9195 44.8913 31.8706 44.8546 31.8461C44.7752 31.7972 44.6591 31.6322 44.5796 31.4672C44.5613 31.4184 44.5002 31.3328 44.4574 31.2839C44.2985 31.1006 43.8524 30.4528 43.8096 30.3428C43.7913 30.2878 43.7424 30.2389 43.7057 30.2389C43.6752 30.2389 43.6446 30.1961 43.6446 30.1472C43.6446 30.1045 43.6079 30.0372 43.5713 30.0128C43.4796 29.9578 43.3696 29.7867 43.2779 29.5789C43.2474 29.5056 43.1924 29.4445 43.1618 29.4445C43.1313 29.4445 43.0824 29.3895 43.0641 29.3222C43.0457 29.255 42.9846 29.2 42.9418 29.2C42.8929 29.2 42.8685 29.1634 42.8807 29.1206C42.8991 29.0778 42.8318 28.9556 42.7279 28.8456C42.6302 28.7356 42.5446 28.6011 42.5446 28.5522C42.5446 28.5034 42.5018 28.4484 42.4529 28.43C42.4041 28.4056 42.3613 28.3628 42.3613 28.3322C42.3613 28.2956 42.2818 28.1672 42.1902 28.045C42.0924 27.9228 41.9946 27.7761 41.9763 27.715C41.9518 27.66 41.9091 27.6111 41.8724 27.6111C41.8418 27.6111 41.8113 27.5806 41.8113 27.5439C41.8113 27.5072 41.6952 27.3239 41.5485 27.1345C41.4018 26.945 41.2674 26.7372 41.2429 26.6761C41.2246 26.6211 41.1757 26.5722 41.1391 26.5722C41.1085 26.5722 41.0779 26.5417 41.0779 26.5111C41.0779 26.4378 40.8274 26.065 40.7602 26.0345C40.7296 26.0222 40.7113 25.9795 40.7113 25.9489C40.7113 25.9122 40.6685 25.8389 40.6196 25.7839C40.4729 25.6311 40.0085 24.965 39.9596 24.8428C39.9413 24.7878 39.8924 24.7389 39.8557 24.7389C39.8252 24.7389 39.7946 24.7084 39.7946 24.6778C39.7946 24.6045 39.5441 24.2317 39.4768 24.2011C39.4463 24.1889 39.4279 24.1461 39.4279 24.1034C39.4279 24.0667 39.3791 23.9872 39.3241 23.9322C39.1896 23.8039 39.0857 23.7 38.9574 23.5656C38.8718 23.48 38.7007 23.4617 37.6618 23.4617L36.4641 23.4556L36.2074 23.1806C36.0607 23.0278 35.9446 22.8872 35.9446 22.8689C35.9446 22.8445 35.8652 22.7284 35.7613 22.6C35.6635 22.4717 35.5779 22.3372 35.5779 22.3067C35.5779 22.27 35.4985 22.1478 35.3946 22.0378C35.2968 21.9278 35.2113 21.8117 35.2113 21.775C35.2113 21.7384 35.1318 21.6222 35.0279 21.5122C34.9302 21.4022 34.8446 21.2739 34.8446 21.2372C34.8446 21.1945 34.7591 21.0845 34.6613 20.9867C34.5635 20.8889 34.4657 20.7606 34.4474 20.6995C34.4229 20.6322 34.3802 20.5834 34.3496 20.5834C34.3191 20.5834 34.2946 20.5528 34.2946 20.5161C34.2946 20.4795 34.2152 20.345 34.1113 20.2167C34.0135 20.0884 33.9279 19.9539 33.9279 19.9234C33.9279 19.8867 33.8913 19.8317 33.8546 19.8072C33.7629 19.7522 33.6529 19.5811 33.5613 19.3734C33.5307 19.3 33.4757 19.2389 33.4391 19.2389C33.4085 19.2389 33.3779 19.1961 33.3779 19.1472C33.3779 19.1045 33.3413 19.0372 33.3046 19.0128C33.2252 18.9639 33.1029 18.7928 33.0296 18.6278C33.0113 18.5789 32.9563 18.5117 32.9074 18.4872C32.8646 18.4628 32.8279 18.4078 32.8279 18.3772C32.8279 18.3222 32.5407 17.9067 32.3391 17.6684C32.3085 17.6256 32.2779 17.5767 32.2779 17.5522C32.2779 17.5339 32.1985 17.4117 32.0946 17.2834C31.9968 17.155 31.9113 17.0267 31.9113 16.99C31.9113 16.9595 31.8685 16.8984 31.8196 16.8556C31.7463 16.7945 31.7218 16.8067 31.6729 16.935Z" fill="white"/>
<path d="M22.5368 31.3817C22.5184 31.4061 22.5001 31.4733 22.5001 31.5344C22.5001 31.5956 22.4695 31.6444 22.439 31.6444C22.4023 31.6444 22.3534 31.7056 22.3229 31.7789C22.2923 31.8583 22.1945 32.0233 22.109 32.1517C22.0234 32.28 21.9501 32.4083 21.9501 32.4389C21.9501 32.4756 21.9256 32.5 21.889 32.5C21.8584 32.5 21.8156 32.5672 21.7912 32.6528C21.7729 32.7383 21.7301 32.8056 21.6995 32.8056C21.669 32.8056 21.614 32.8667 21.5834 32.94C21.5101 33.1111 21.394 33.2883 21.2962 33.4044C21.2534 33.4472 21.2168 33.5267 21.2168 33.5756C21.2168 33.6244 21.1862 33.6611 21.1556 33.6611C21.119 33.6611 21.064 33.7222 21.0334 33.7956C20.9418 34.0033 20.8318 34.1744 20.7462 34.2294C20.7034 34.2539 20.6668 34.3272 20.6668 34.3944C20.6668 34.4556 20.6484 34.5167 20.624 34.5289C20.5629 34.5533 20.3001 34.9261 20.3001 34.9811C20.3001 34.9994 20.2206 35.1217 20.1168 35.25C20.019 35.3783 19.9334 35.525 19.9334 35.5739C19.9334 35.6228 19.8906 35.6778 19.8418 35.7022C19.7929 35.7206 19.7501 35.7756 19.7501 35.8306C19.7501 35.8794 19.7256 35.9222 19.689 35.9222C19.6584 35.9222 19.6156 35.9894 19.5912 36.075C19.5729 36.1606 19.5301 36.2278 19.5056 36.2278C19.4751 36.2278 19.3895 36.3561 19.3101 36.5089C19.2368 36.6678 19.139 36.8083 19.0962 36.8206C19.0534 36.8389 19.0168 36.9061 19.0168 36.9672C19.0168 37.0283 18.9923 37.0833 18.9556 37.0833C18.9251 37.0833 18.8823 37.1506 18.8579 37.2361C18.8395 37.3217 18.7968 37.3889 18.7662 37.3889C18.7356 37.3889 18.6806 37.45 18.6501 37.5233C18.5768 37.6944 18.4606 37.8717 18.3629 37.9878C18.3201 38.0306 18.2834 38.11 18.2834 38.1589C18.2834 38.2078 18.2529 38.2444 18.2223 38.2444C18.1856 38.2444 18.1306 38.3056 18.1001 38.3789C18.0084 38.5867 17.8984 38.7578 17.8129 38.8128C17.7701 38.8372 17.7334 38.9167 17.7334 38.9778C17.7334 39.045 17.709 39.1 17.6845 39.1C17.654 39.1 17.599 39.1611 17.5562 39.2344C17.5195 39.3139 17.434 39.4544 17.3668 39.5583C17.2995 39.6561 17.2262 39.7844 17.2018 39.8333C17.1834 39.8822 17.1284 39.9494 17.0795 39.9739C17.0368 39.9983 17.0001 40.0717 17.0001 40.1328C17.0001 40.2 16.9573 40.2611 16.9084 40.2856C16.8595 40.3039 16.8168 40.3589 16.8168 40.4139C16.8168 40.4628 16.7923 40.5056 16.7556 40.5056C16.7251 40.5056 16.6945 40.5606 16.6945 40.6278C16.6945 40.6889 16.6395 40.7744 16.5723 40.8111C16.5051 40.8478 16.4501 40.9028 16.4501 40.9394C16.4501 40.97 16.3768 41.1106 16.2851 41.2572C15.9979 41.6972 15.9673 41.7522 15.9245 41.8622C15.9062 41.9233 15.8634 41.9722 15.839 41.9722C15.8145 41.9722 15.729 42.0883 15.6618 42.2228C15.5884 42.3633 15.4906 42.5161 15.4418 42.565C15.3929 42.6139 15.3501 42.6933 15.3501 42.7422C15.3501 42.7911 15.3256 42.8278 15.2951 42.8278C15.2645 42.8278 15.179 42.9439 15.1056 43.0844C15.0323 43.225 14.9284 43.3717 14.8734 43.4144C14.8245 43.4511 14.794 43.5244 14.8184 43.5794C14.849 43.665 15.8206 43.6711 24.5473 43.6772C29.8823 43.6833 34.2334 43.665 34.2212 43.6406C34.209 43.61 34.1601 43.5 34.1173 43.39C34.0745 43.2861 34.0134 43.1944 33.9829 43.1944C33.9523 43.1944 33.9279 43.1272 33.9279 43.0478C33.9279 42.9622 33.8851 42.8583 33.8362 42.8033C33.7873 42.7544 33.7445 42.6567 33.7445 42.5894C33.7445 42.5222 33.7079 42.4306 33.6651 42.3878C33.6162 42.345 33.5612 42.2289 33.5368 42.1372C33.5184 42.0456 33.4695 41.9722 33.439 41.9722C33.4023 41.9722 33.3779 41.905 33.3779 41.8256C33.3779 41.74 33.3351 41.6361 33.2862 41.5811C33.2373 41.5322 33.1945 41.4406 33.1945 41.3733C33.1945 41.3061 33.1518 41.2206 33.1029 41.1778C33.054 41.135 33.0112 41.0556 33.0112 41.0006C33.0112 40.9394 32.9684 40.8417 32.9195 40.7744C32.8706 40.7133 32.8279 40.6094 32.8279 40.5544C32.8279 40.4994 32.7912 40.4139 32.7423 40.365C32.6934 40.3222 32.6445 40.2122 32.6323 40.1328C32.6201 40.0472 32.5773 39.9861 32.5162 39.9922C32.449 39.9983 32.4306 39.9556 32.449 39.8333C32.4612 39.7356 32.4306 39.6317 32.3756 39.5706C32.3206 39.5217 32.2779 39.4178 32.2779 39.3506C32.2779 39.2833 32.2351 39.1917 32.1862 39.1428C32.1434 39.0939 32.0823 38.9839 32.0579 38.8922C32.0395 38.8067 31.9968 38.7333 31.9662 38.7333C31.9356 38.7333 31.9112 38.6661 31.9112 38.5867C31.9112 38.5072 31.8684 38.4094 31.8195 38.3667C31.7706 38.3239 31.7279 38.2383 31.7279 38.1772C31.7279 38.1222 31.6851 38.0306 31.6362 37.9756C31.5873 37.9267 31.5445 37.8289 31.5445 37.7617C31.5445 37.6944 31.5079 37.6028 31.459 37.5539C31.4101 37.5111 31.3612 37.4011 31.349 37.3217C31.3368 37.2239 31.294 37.175 31.2206 37.1811C31.129 37.1933 31.1168 37.1628 31.1473 37.0283C31.1718 36.9 31.1412 36.8328 30.9701 36.6678C30.854 36.5639 30.7318 36.4722 30.6951 36.4722C30.6584 36.4722 30.6279 36.4478 30.6279 36.4172C30.6279 36.3867 30.5545 36.3317 30.4629 36.295C30.2979 36.2339 30.0779 36.1056 30.0168 36.0444C29.9862 36.0139 29.7356 35.8428 29.4973 35.6961C29.4301 35.6533 29.3262 35.6044 29.2712 35.58C29.2162 35.5617 29.1551 35.5067 29.1368 35.4578C29.1184 35.4089 29.0573 35.3722 29.0023 35.3722C28.9473 35.3722 28.8006 35.2928 28.6784 35.2011C28.5562 35.1033 28.4156 35.0056 28.3668 34.9872C28.3179 34.9628 28.1956 34.8894 28.0918 34.8222C27.994 34.755 27.8595 34.6817 27.8045 34.6633C27.7495 34.645 27.6884 34.59 27.6701 34.5411C27.6518 34.4922 27.5784 34.4556 27.5112 34.4556C27.444 34.4556 27.389 34.425 27.389 34.3944C27.389 34.3578 27.3279 34.3028 27.2545 34.2722C27.1018 34.205 26.9918 34.1378 26.6373 33.8872C26.5029 33.7956 26.3562 33.7222 26.3073 33.7222C26.2645 33.7222 26.2279 33.6917 26.2279 33.6611C26.2279 33.6244 26.1668 33.5694 26.0934 33.5389C25.9406 33.4717 25.8306 33.4044 25.4762 33.1539C25.3418 33.0622 25.1951 32.9889 25.1462 32.9889C25.1034 32.9889 25.0668 32.9583 25.0668 32.9278C25.0668 32.8911 24.9995 32.8361 24.914 32.8056C24.8284 32.775 24.7612 32.72 24.7612 32.6833C24.7612 32.6528 24.7184 32.6222 24.6634 32.6222C24.6084 32.6222 24.4618 32.5367 24.3334 32.4389C24.2051 32.335 24.0829 32.2556 24.0645 32.2556C24.0401 32.2556 23.9118 32.1822 23.7651 32.0906C23.4106 31.8583 23.2823 31.7789 23.1723 31.7239C23.1234 31.6994 23.044 31.6444 23.0012 31.6017C22.9584 31.5589 22.879 31.5222 22.8301 31.5222C22.7812 31.5222 22.7445 31.4978 22.7445 31.4672C22.7445 31.4 22.5856 31.3328 22.5368 31.3817ZM15.2584 43.4389C15.2829 43.4756 15.2218 43.5 15.124 43.5C14.9895 43.5 14.9712 43.4878 15.0445 43.4389C15.1606 43.3656 15.2095 43.3656 15.2584 43.4389Z" fill="white"/>
<path d="M36.959 33.6489C36.9346 33.6856 36.8185 33.765 36.6962 33.82C36.5801 33.8811 36.3907 34.0034 36.2868 34.1011C36.1829 34.1928 36.0668 34.2722 36.0179 34.2722C35.9751 34.2722 35.9262 34.315 35.9079 34.3639C35.8835 34.4128 35.8285 34.4556 35.7857 34.4556C35.7368 34.4556 35.6818 34.4984 35.6635 34.5472C35.639 34.5961 35.584 34.6389 35.5412 34.6389C35.4923 34.6389 35.4373 34.6817 35.419 34.7306C35.3946 34.7795 35.3518 34.8222 35.309 34.8222C35.2723 34.8222 35.1562 34.8956 35.0523 34.9872C34.9485 35.085 34.704 35.2684 34.5023 35.4028C34.3068 35.5372 34.1357 35.6656 34.1235 35.69C34.1112 35.7206 34.0623 35.7389 34.0135 35.7389C33.9646 35.7389 33.9096 35.7817 33.8912 35.8306C33.8668 35.8795 33.8179 35.9222 33.769 35.9222C33.659 35.9222 33.659 36.075 33.7751 36.1911C33.824 36.24 33.8668 36.3195 33.8668 36.3684C33.8668 36.4172 33.9035 36.4906 33.9523 36.5334C34.0012 36.57 34.0501 36.6617 34.0623 36.735C34.0746 36.8145 34.1235 36.8695 34.1785 36.8634C34.2518 36.8572 34.264 36.8939 34.2457 37.01C34.2273 37.1017 34.2518 37.1934 34.3007 37.23C34.3496 37.2667 34.4473 37.4256 34.5268 37.5845C34.6062 37.7434 34.6918 37.89 34.7285 37.9084C34.759 37.9328 34.7835 38 34.7835 38.0611C34.7835 38.1284 34.8385 38.2078 34.9057 38.2445C34.979 38.2811 35.0096 38.3422 34.9851 38.4034C34.9607 38.4645 34.9912 38.5256 35.0462 38.5622C35.1073 38.5928 35.1501 38.6661 35.1501 38.7211C35.1501 38.7822 35.1807 38.8617 35.2173 38.8984C35.3029 38.9839 35.4312 39.2039 35.5229 39.4178C35.5596 39.5156 35.6146 39.5889 35.6451 39.5889C35.6757 39.5889 35.7001 39.6378 35.7001 39.705C35.7001 39.7661 35.7429 39.8517 35.7918 39.8945C35.8407 39.9372 35.8835 40.0045 35.8835 40.0472C35.8835 40.09 35.9262 40.1572 35.9751 40.2C36.024 40.2428 36.0668 40.3284 36.0668 40.3895C36.0668 40.5361 36.189 40.6034 36.2562 40.4995C36.2929 40.4445 36.299 40.4811 36.2746 40.6034C36.2501 40.7256 36.2685 40.8234 36.3296 40.8784C36.3785 40.9272 36.4396 41.0311 36.4579 41.1045C36.4823 41.1778 36.5435 41.2389 36.5862 41.2389C36.6412 41.2389 36.6596 41.2756 36.6351 41.3306C36.6168 41.3856 36.6412 41.4711 36.6962 41.5322C36.7451 41.5872 36.8062 41.6972 36.8246 41.7706C36.849 41.85 36.8979 41.9111 36.9285 41.9111C36.959 41.9111 36.9835 41.96 36.9835 42.0272C36.9835 42.0884 37.0262 42.1739 37.0751 42.2167C37.124 42.2595 37.1668 42.3389 37.1668 42.3939C37.1668 42.4489 37.1973 42.5284 37.234 42.565C37.3073 42.6384 37.3868 42.7728 37.6007 43.1945C37.8512 43.6895 37.1729 43.6467 45.0257 43.6467C48.9001 43.6528 52.0535 43.6345 52.0412 43.6161C52.029 43.5917 51.9312 43.5306 51.8212 43.4756C51.5462 43.3411 51.3873 43.2372 51.314 43.1578C51.2835 43.1211 51.1551 43.0356 51.039 42.9745C50.9229 42.9072 50.8007 42.8217 50.7762 42.7789C50.7518 42.7422 50.6907 42.7056 50.6479 42.7056C50.599 42.7056 50.5318 42.6628 50.4829 42.6078C50.4401 42.5589 50.3607 42.5284 50.2996 42.5406C50.2262 42.5589 50.2018 42.5406 50.2262 42.4856C50.2446 42.4367 50.2079 42.3817 50.1468 42.3634C50.0796 42.3389 49.9818 42.2778 49.9268 42.2289C49.8657 42.18 49.7801 42.1556 49.7312 42.1739C49.6701 42.1984 49.6518 42.18 49.6762 42.125C49.6946 42.07 49.6518 42.0089 49.5662 41.9722C49.3523 41.8806 49.1812 41.7706 49.1262 41.6789C49.1018 41.6422 49.0468 41.6056 49.0101 41.6056C48.9796 41.6056 48.8451 41.5322 48.7229 41.4345C48.4296 41.2145 48.2829 41.1228 48.1546 41.08C48.0935 41.0556 48.0446 41.0189 48.0446 40.9884C48.0446 40.9395 47.8001 40.7867 47.6046 40.7134C47.5435 40.695 47.4946 40.6522 47.4946 40.6217C47.4946 40.5911 47.4335 40.5361 47.3601 40.5056C47.1523 40.4139 46.9812 40.3039 46.9262 40.2122C46.9018 40.1756 46.8407 40.1389 46.7979 40.1389C46.749 40.1389 46.6818 40.0961 46.6329 40.0411C46.5901 39.9922 46.5107 39.9617 46.4496 39.9739C46.3762 39.9922 46.3518 39.9739 46.3762 39.9189C46.3946 39.87 46.3457 39.8089 46.2662 39.7722C46.0829 39.6928 45.8873 39.5706 45.8385 39.5095C45.7896 39.4422 45.5512 39.3017 45.4046 39.2467C45.3435 39.2284 45.2946 39.1856 45.2946 39.155C45.2946 39.1245 45.2335 39.0695 45.1601 39.0389C45.0135 38.9778 44.7996 38.8495 44.7446 38.7945C44.6529 38.7028 44.3107 38.4889 44.2557 38.4889C44.2251 38.4889 44.1946 38.4584 44.1946 38.4278C44.1946 38.3911 44.1335 38.3361 44.0601 38.3056C43.8768 38.2261 43.6873 38.1039 43.6385 38.0428C43.5896 37.9756 43.3512 37.835 43.2046 37.78C43.1435 37.7617 43.0946 37.7189 43.0946 37.6884C43.0946 37.6395 42.8501 37.4867 42.6546 37.4134C42.5935 37.395 42.5446 37.3522 42.5446 37.3217C42.5446 37.2911 42.4835 37.2361 42.4101 37.2056C42.2023 37.1139 42.0312 37.0039 41.9762 36.9122C41.9151 36.8267 41.7135 36.8145 41.6585 36.9C41.6401 36.9306 41.5973 36.9611 41.5607 36.9611C41.5301 36.9611 41.5057 36.9306 41.5057 36.9C41.5057 36.8634 41.5485 36.8389 41.5973 36.8389C41.7257 36.8389 41.7135 36.7228 41.5851 36.6739C41.524 36.6495 41.4507 36.6006 41.4262 36.5517C41.4018 36.5089 41.3468 36.4722 41.3101 36.4722C41.2796 36.4722 41.1451 36.3989 41.0229 36.3011C40.7296 36.0811 40.5829 35.9895 40.4546 35.9467C40.3935 35.9222 40.3446 35.8856 40.3446 35.855C40.3446 35.8245 40.2835 35.7695 40.2101 35.7389C40.0023 35.6472 39.8312 35.5372 39.7762 35.4456C39.7518 35.4089 39.6785 35.3722 39.6173 35.3722C39.5501 35.3722 39.489 35.3295 39.4646 35.2806C39.4462 35.2317 39.3912 35.1889 39.3423 35.1889C39.2935 35.1889 39.2446 35.1706 39.2323 35.14C39.2018 35.0728 38.829 34.8222 38.7557 34.8222C38.7251 34.8222 38.6946 34.7917 38.6946 34.7611C38.6946 34.7245 38.6335 34.6695 38.5601 34.6389C38.389 34.5656 38.2118 34.4495 38.0957 34.3456C38.0529 34.3089 37.9796 34.2722 37.9307 34.2722C37.8879 34.2722 37.839 34.2295 37.8146 34.1806C37.7962 34.1317 37.7412 34.0889 37.6923 34.0889C37.6496 34.0889 37.5946 34.0461 37.5701 33.9972C37.5518 33.9484 37.4846 33.9056 37.4173 33.9056C37.3562 33.9056 37.289 33.8628 37.2646 33.8139C37.2462 33.765 37.1912 33.7222 37.1423 33.7222C37.0935 33.7222 37.0446 33.6917 37.0323 33.6489C37.014 33.5939 36.9957 33.5939 36.959 33.6489Z" fill="white"/>
</svg>
